<?xml version="1.0" encoding="UTF-8"?>
<svg version="1.1" xmlns="http://www.w3.org/2000/svg" width="512" height="512">
<path d="M0 0 C6.4425659 4.41317912 9.63401118 9.20550977 12.38354492 16.39868164 C12.75305614 17.31089257 13.12256735 18.2231035 13.50327587 19.16295719 C14.28824668 21.10879541 15.06320271 23.05869976 15.82876205 25.01225662 C16.98522063 27.96229889 18.16826035 30.90021028 19.36001587 33.83615112 C21.89050911 40.08620569 24.37788234 46.35300043 26.86328125 52.62109375 C27.7854881 54.94069816 28.70795386 57.26019966 29.63066101 59.5796051 C32.04011385 65.63809929 34.44629966 71.69788539 36.85168457 77.75799561 C38.78732097 82.63347987 40.72468974 87.50827409 42.6628027 92.38277435 C43.61717973 94.78416426 44.57068578 97.18590051 45.52330112 99.58798981 C47.84360676 105.43595691 50.17748077 111.27768628 52.54295349 117.10754395 C56.35862917 126.54561323 60.11534158 135.89822821 62.99829102 145.66796875 C67.28955277 160.08121734 67.28955277 160.08121734 78.01928711 170.09643555 C84.8522269 173.37264624 91.91513669 175.51654815 99.20398712 177.52616882 C102.79592368 178.54630184 106.34214506 179.70598287 109.89404297 180.85644531 C115.00038619 182.49963467 120.11528465 184.1057554 125.24877548 185.66209412 C137.73149808 189.45249176 149.92881016 193.90854739 162.15338135 198.46035767 C167.77361359 200.54817034 173.40881496 202.59465636 179.04296875 204.64453125 C180.08352417 205.02427597 181.12407959 205.40402069 182.19616699 205.79527283 C187.63320325 207.77918639 193.07463532 209.74977836 198.52459717 211.69790649 C201.3678783 212.71447499 204.2089403 213.73715129 207.04974365 214.76062012 C208.84217351 215.40331943 210.6380416 216.03640601 212.43408203 216.66894531 C222.58312666 220.3340962 230.94154393 224.65612711 236.3125 234.375 C240.1032028 248.84859251 233.76822235 261.85415942 228.71047974 275.30142212 C227.59150963 278.27654433 226.48024563 281.25444955 225.37084961 284.2331543 C224.17514463 287.44314105 222.97888983 290.65291365 221.78031921 293.86183167 C217.44817 305.46077071 213.16857411 317.07892734 208.89251709 328.69863892 C207.55287708 332.33864696 206.21234889 335.9783268 204.87158203 339.61791992 C199.60325001 353.9203376 194.34307248 368.22573556 189.08938599 382.53353882 C188.00642244 385.48251131 186.92308115 388.43134474 185.83959961 391.38012695 C185.10921107 393.36800087 184.37882371 395.35587523 183.6484375 397.34375 C183.28273148 398.33904221 182.91702545 399.33433441 182.54023743 400.35978699 C180.20004168 406.72992309 177.86273705 413.10111464 175.52714157 419.47293854 C173.60275333 424.72240201 171.67602301 429.97100277 169.74785233 435.21907806 C168.57882012 438.4012403 167.41086071 441.58378654 166.24560547 444.76733398 C164.95041698 448.3042673 163.65140825 451.83977608 162.3515625 455.375 C161.97005035 456.41966431 161.58853821 457.46432861 161.19546509 458.54064941 C153.11124777 480.47650352 153.11124777 480.47650352 142.96484375 485.23828125 C129.58292927 490.42610098 115.71154943 483.00320872 103.109375 478.4296875 C101.90765152 477.99620499 100.70592804 477.56272247 99.4677887 477.11610413 C96.23239586 475.94874947 92.99846163 474.77740544 89.76486588 473.60508347 C87.03754998 472.61684486 84.30939156 471.6309427 81.58127689 470.64491177 C62.5042007 463.74879928 43.4537242 456.78164505 24.42041016 449.765625 C9.75488659 444.36252945 -4.93661764 439.03349348 -19.63674927 433.7253418 C-55.91769352 420.61983364 -55.91769352 420.61983364 -73.94415283 413.97076416 C-75.7920685 413.29026201 -77.64096545 412.61241774 -79.49090576 411.93743896 C-82.01243649 411.01666018 -84.53007031 410.08594932 -87.046875 409.15234375 C-87.772164 408.88974258 -88.497453 408.62714142 -89.24472046 408.35658264 C-97.34367225 405.32241843 -103.79389374 400.77579442 -108.04296875 393.12109375 C-112.2887984 383.25402484 -109.50837655 374.17513057 -105.9375 364.5625 C-105.53281494 363.43537598 -105.12812988 362.30825195 -104.71118164 361.14697266 C-103.49013416 357.75855989 -102.2474253 354.37877776 -101 351 C-100.2805793 349.02758825 -99.56178537 347.05494773 -98.84375 345.08203125 C-97.24841147 340.71402217 -95.63165134 336.35456787 -94 332 C-94.70382813 332.30180176 -95.40765625 332.60360352 -96.1328125 332.91455078 C-104.07317445 336.31330558 -112.02830498 339.67538537 -120 343 C-120.87672363 343.36625488 -121.75344727 343.73250977 -122.65673828 344.10986328 C-132.84106737 348.31629396 -141.15190567 351.20828669 -151.8125 347.0625 C-159.37855074 343.38756107 -162.57856794 338.38891557 -165.7890625 330.859375 C-166.13450607 330.06500534 -166.47994965 329.27063568 -166.83586121 328.45219421 C-170.15142267 320.7717891 -173.27917723 313.01728435 -176.35372925 305.237854 C-178.0689748 300.89888385 -179.79730168 296.56511524 -181.5234375 292.23046875 C-181.88575974 291.31970581 -182.24808197 290.40894287 -182.62138367 289.47058105 C-186.85364236 278.83932283 -191.14446962 268.23182977 -195.4375 257.625 C-196.24520286 255.62866385 -197.05290142 253.63232595 -197.8605957 251.63598633 C-199.85584761 246.70517752 -201.85194092 241.77470979 -203.84832764 236.84436035 C-205.67143246 232.34171947 -207.49390671 227.8388234 -209.31640625 223.3359375 C-211.40153822 218.18423065 -213.48676795 213.0325635 -215.57250977 207.88110352 C-219.35099808 198.54832086 -223.12650967 189.21434246 -226.8984375 179.87890625 C-227.31056488 178.85899094 -227.72269226 177.83907562 -228.14730835 176.78825378 C-231.44970769 168.61553228 -231.44970769 168.61553228 -233.09417725 164.54379272 C-236.91646051 155.07987216 -240.739406 145.61641711 -244.609375 136.171875 C-244.87497223 135.52310898 -245.14056946 134.87434296 -245.41421509 134.20591736 C-246.59519157 131.32201184 -247.7790499 128.43935879 -248.96826172 125.55883789 C-249.36287598 124.5971167 -249.75749023 123.63539551 -250.1640625 122.64453125 C-250.49873535 121.83346924 -250.8334082 121.02240723 -251.17822266 120.18676758 C-254.22307266 112.08435478 -253.61322906 104.55539564 -250.65625 96.51953125 C-246.07423868 89.5492546 -239.44963028 85.8123094 -231.875 82.8125 C-230.5144751 82.25151611 -230.5144751 82.25151611 -229.12646484 81.67919922 C-226.09134537 80.43463294 -223.04682385 79.21560896 -220 78 C-217.86970932 77.14213155 -215.73950345 76.28405245 -213.609375 75.42578125 C-209.38304712 73.72822741 -205.15374177 72.03842242 -200.92160034 70.35543823 C-189.68020119 65.88448309 -178.46471167 61.34990541 -167.25 56.8125 C-166.24479309 56.40590149 -165.23958618 55.99930298 -164.20391846 55.5803833 C-157.13553831 52.72126166 -150.06768646 49.86083591 -143 47 C-141.18034074 46.26350369 -139.36067935 45.52701264 -137.54101562 44.79052734 C-130.65141488 42.0019932 -123.76185661 39.21335426 -116.87255859 36.42407227 C-107.60107906 32.67050584 -98.32856452 28.91951441 -89.0546875 25.171875 C-88.04841812 24.76520599 -87.04214874 24.35853699 -86.00538635 23.93954468 C-80.97667635 21.9073174 -75.94780645 19.87548716 -70.91870117 17.84423828 C-61.95977724 14.22478503 -53.00371009 10.59877346 -44.05859375 6.9453125 C-42.92112701 6.48118958 -42.92112701 6.48118958 -41.76068115 6.00769043 C-38.28490636 4.58943919 -34.81011832 3.16888895 -31.33740234 1.74316406 C-29.5558374 1.01564941 -29.5558374 1.01564941 -27.73828125 0.2734375 C-26.71774658 -0.14502441 -25.69721191 -0.56348633 -24.64575195 -0.99462891 C-16.28921645 -4.17006613 -8.08724293 -3.8860214 0 0 Z " fill="#46A6DC" transform="translate(264,14)"/>
<path d="M0 0 C3.28269258 1.08325444 6.51767955 2.2593952 9.75561523 3.46984863 C11.54134949 4.12149994 11.54134949 4.12149994 13.36315918 4.78631592 C15.87353205 5.70515139 18.38157374 6.62851004 20.88696289 7.56066895 C24.07644872 8.74718977 27.27129607 9.91833057 30.46848297 11.08391953 C33.54550588 12.20673575 36.61930552 13.33827104 39.69311523 14.46984863 C40.82978638 14.88667908 41.96645752 15.30350952 43.13757324 15.73297119 C47.71327649 17.43648978 52.18331477 19.13272023 56.50756836 21.4083252 C59.58642798 23.0156849 62.56571987 23.90322327 65.96813965 24.66445923 C70.93282545 25.92094135 75.71378752 27.82534021 80.52124023 29.57531738 C81.72296875 30.00930344 82.92469727 30.44328949 84.1628418 30.89042664 C87.42373583 32.06827424 90.68280496 33.25109496 93.94151306 34.43497467 C96.67242509 35.42639464 99.40439982 36.41486735 102.13638687 37.40332031 C122.57371653 44.79796793 142.99759508 52.23049113 163.40112305 59.71789551 C172.80213917 63.16680036 182.20722764 66.59880161 191.64624023 69.94250488 C193.95747144 70.76553557 196.26848281 71.58918103 198.57946777 72.41290283 C200.64675732 73.14547231 202.71801455 73.86582321 204.78979492 74.58557129 C205.99539063 75.0153125 207.20098633 75.44505371 208.44311523 75.88781738 C209.4737207 76.24867432 210.50432617 76.60953125 211.56616211 76.98132324 C214.67174369 78.4465485 216.28360738 79.37435936 218.22436523 82.23547363 C219.69924135 89.46249144 216.88868335 96.10149017 214.36889648 102.76281738 C213.96019821 103.87891388 213.55149994 104.99501038 213.13041687 106.14492798 C212.01296642 109.18907887 210.88300031 112.22821942 209.74758911 115.26570511 C208.54275914 118.49893584 207.35482715 121.73835918 206.16577148 124.97741699 C204.68086397 129.01935525 203.19442212 133.06070082 201.70083618 137.09944153 C198.39430229 146.04051723 195.125703 154.99417455 191.89233398 163.96203613 C191.4641185 165.14965042 191.03590302 166.33726471 190.5947113 167.56086731 C189.73437357 169.94764836 188.87415887 172.33447376 188.0140686 174.72134399 C180.11668867 196.62250656 172.10539926 218.48062518 164.02468872 240.3147583 C159.51637624 252.49679193 155.03620105 264.68567312 150.71264648 276.93469238 C150.36312927 277.92329254 150.01361206 278.9118927 149.65350342 279.93045044 C148.03676466 284.50842989 146.43000182 289.08951599 144.84008789 293.67687988 C144.27960034 295.27331204 143.718904 296.86967091 143.15795898 298.46594238 C142.79689812 299.52575569 142.79689812 299.52575569 142.42854309 300.60697937 C140.77952348 305.26757122 138.769581 309.69025787 135.22436523 313.23547363 C127.20810472 314.27004782 120.64157331 312.0329567 113.25561523 309.16906738 C112.11883835 308.74373718 110.98206146 308.31840698 109.81083679 307.88018799 C106.74554624 306.73069265 103.6859328 305.56742379 100.62810898 304.39825058 C97.41667512 303.17477765 94.19803221 301.97061957 90.97949219 300.76599121 C89.67944654 300.2791918 88.37941297 299.79236012 87.07939148 299.30549622 C86.43621161 299.06464106 85.79303173 298.8237859 85.13036156 298.5756321 C83.18022006 297.84440752 81.2309022 297.11102753 79.28181458 296.3769989 C68.36798708 292.2690686 57.40484366 288.31320545 46.41186523 284.42297363 C43.02987713 283.22249291 39.64850714 282.02027881 36.26733398 280.81750488 C35.44010834 280.52336197 34.61288269 280.22921906 33.7605896 279.92616272 C22.4418565 275.89613632 11.15701466 271.77269096 -0.13134766 267.65856934 C-1.97630282 266.9862448 -3.82127383 266.31396373 -5.66625977 265.64172363 C-6.60561874 265.29945236 -7.54497772 264.95718109 -8.51280212 264.60453796 C-16.63293185 261.64770472 -24.75841797 258.70573738 -32.88500977 255.76672363 C-34.19405213 255.29322588 -35.50309347 254.81972531 -36.81213379 254.34622192 C-41.97368129 252.47933561 -47.13526751 250.61255799 -52.29760742 248.74786377 C-59.15368032 246.27108813 -66.00669665 243.7862029 -72.85644531 241.29199219 C-75.52903324 240.32472412 -78.20666727 239.37350534 -80.88696289 238.42785645 C-82.33431727 237.90824682 -83.78159092 237.38841226 -85.22875977 236.86828613 C-87.01781738 236.23624268 -87.01781738 236.23624268 -88.84301758 235.59143066 C-92.12445437 234.07418958 -93.80231191 233.28752209 -95.77563477 230.23547363 C-96.97999274 223.05069037 -95.04168359 216.87738141 -92.44360352 210.25109863 C-91.92299095 208.86458351 -91.92299095 208.86458351 -91.39186096 207.45005798 C-90.26391574 204.45595155 -89.11358651 201.47099537 -87.96313477 198.48547363 C-87.16812904 196.38561623 -86.37484961 194.28510449 -85.58325195 192.18395996 C-84.02022863 188.03969293 -82.44994765 183.89831229 -80.87280273 179.75939941 C-78.36478562 173.16834326 -75.93500849 166.55073114 -73.52563477 159.92297363 C-72.66834468 157.57893718 -71.81021684 155.23520701 -70.95141602 152.89172363 C-70.60335403 151.94177773 -70.60335403 151.94177773 -70.2482605 150.97264099 C-65.63012308 138.3758708 -60.98159398 125.79023628 -56.34143066 113.2015686 C-51.11930476 99.03353361 -45.90046983 84.86432185 -40.69949341 70.68850708 C-38.81996699 65.56569356 -36.93868159 60.44354819 -35.05200195 55.32336426 C-31.96386706 46.93980139 -28.88070302 38.55547406 -25.87167358 30.14312744 C-24.68619463 26.83317321 -23.4895753 23.52731017 -22.29125977 20.22198486 C-21.74730014 18.71186347 -21.20887033 17.19973651 -20.67651367 15.68548584 C-19.95654418 13.63823236 -19.21801141 11.5986202 -18.47485352 9.55969238 C-18.07097412 8.42620361 -17.66709473 7.29271484 -17.25097656 6.12487793 C-13.37213115 -1.47170248 -7.61543952 -2.09761183 0 0 Z " fill="#F1877E" transform="translate(265.775634765625,170.7645263671875)"/>
<path d="M0 0 C6.4425659 4.41317912 9.63401118 9.20550977 12.38354492 16.39868164 C12.75305614 17.31089257 13.12256735 18.2231035 13.50327587 19.16295719 C14.28824668 21.10879541 15.06320271 23.05869976 15.82876205 25.01225662 C16.98522063 27.96229889 18.16826035 30.90021028 19.36001587 33.83615112 C21.89050911 40.08620569 24.37788234 46.35300043 26.86328125 52.62109375 C27.7854881 54.94069816 28.70795386 57.26019966 29.63066101 59.5796051 C32.04011385 65.63809929 34.44629966 71.69788539 36.85168457 77.75799561 C38.78732097 82.63347987 40.72468974 87.50827409 42.6628027 92.38277435 C43.61717973 94.78416426 44.57068578 97.18590051 45.52330112 99.58798981 C47.84360676 105.43595691 50.17748077 111.27768628 52.54295349 117.10754395 C56.35862917 126.54561323 60.11534158 135.89822821 62.99829102 145.66796875 C67.28955277 160.08121734 67.28955277 160.08121734 78.01928711 170.09643555 C84.8522269 173.37264624 91.91513669 175.51654815 99.20398712 177.52616882 C102.79592368 178.54630184 106.34214506 179.70598287 109.89404297 180.85644531 C115.00038619 182.49963467 120.11528465 184.1057554 125.24877548 185.66209412 C137.73149808 189.45249176 149.92881016 193.90854739 162.15338135 198.46035767 C167.77361359 200.54817034 173.40881496 202.59465636 179.04296875 204.64453125 C180.08352417 205.02427597 181.12407959 205.40402069 182.19616699 205.79527283 C187.63320325 207.77918639 193.07463532 209.74977836 198.52459717 211.69790649 C201.3678783 212.71447499 204.2089403 213.73715129 207.04974365 214.76062012 C208.84217351 215.40331943 210.6380416 216.03640601 212.43408203 216.66894531 C222.58312666 220.3340962 230.94154393 224.65612711 236.3125 234.375 C240.1032028 248.84859251 233.76822235 261.85415942 228.71047974 275.30142212 C227.59150963 278.27654433 226.48024563 281.25444955 225.37084961 284.2331543 C224.17514463 287.44314105 222.97888983 290.65291365 221.78031921 293.86183167 C217.44817 305.46077071 213.16857411 317.07892734 208.89251709 328.69863892 C207.55287708 332.33864696 206.21234889 335.9783268 204.87158203 339.61791992 C199.60325001 353.9203376 194.34307248 368.22573556 189.08938599 382.53353882 C188.00642244 385.48251131 186.92308115 388.43134474 185.83959961 391.38012695 C185.10921107 393.36800087 184.37882371 395.35587523 183.6484375 397.34375 C183.28273148 398.33904221 182.91702545 399.33433441 182.54023743 400.35978699 C180.20004168 406.72992309 177.86273705 413.10111464 175.52714157 419.47293854 C173.60275333 424.72240201 171.67602301 429.97100277 169.74785233 435.21907806 C168.57882012 438.4012403 167.41086071 441.58378654 166.24560547 444.76733398 C164.95041698 448.3042673 163.65140825 451.83977608 162.3515625 455.375 C161.97005035 456.41966431 161.58853821 457.46432861 161.19546509 458.54064941 C153.11124777 480.47650352 153.11124777 480.47650352 142.96484375 485.23828125 C129.58292927 490.42610098 115.71154943 483.00320872 103.109375 478.4296875 C101.90765152 477.99620499 100.70592804 477.56272247 99.4677887 477.11610413 C96.23239586 475.94874947 92.99846163 474.77740544 89.76486588 473.60508347 C87.03754998 472.61684486 84.30939156 471.6309427 81.58127689 470.64491177 C62.5042007 463.74879928 43.4537242 456.78164505 24.42041016 449.765625 C9.75488659 444.36252945 -4.93661764 439.03349348 -19.63674927 433.7253418 C-55.91769352 420.61983364 -55.91769352 420.61983364 -73.94415283 413.97076416 C-75.7920685 413.29026201 -77.64096545 412.61241774 -79.49090576 411.93743896 C-82.01243649 411.01666018 -84.53007031 410.08594932 -87.046875 409.15234375 C-87.772164 408.88974258 -88.497453 408.62714142 -89.24472046 408.35658264 C-97.34367225 405.32241843 -103.79389374 400.77579442 -108.04296875 393.12109375 C-112.2887984 383.25402484 -109.50837655 374.17513057 -105.9375 364.5625 C-105.53281494 363.43537598 -105.12812988 362.30825195 -104.71118164 361.14697266 C-103.49013416 357.75855989 -102.2474253 354.37877776 -101 351 C-100.2805793 349.02758825 -99.56178537 347.05494773 -98.84375 345.08203125 C-97.24841147 340.71402217 -95.63165134 336.35456787 -94 332 C-94.70382813 332.30180176 -95.40765625 332.60360352 -96.1328125 332.91455078 C-104.07317445 336.31330558 -112.02830498 339.67538537 -120 343 C-120.87672363 343.36625488 -121.75344727 343.73250977 -122.65673828 344.10986328 C-132.84106737 348.31629396 -141.15190567 351.20828669 -151.8125 347.0625 C-159.37855074 343.38756107 -162.57856794 338.38891557 -165.7890625 330.859375 C-166.13450607 330.06500534 -166.47994965 329.27063568 -166.83586121 328.45219421 C-170.15142267 320.7717891 -173.27917723 313.01728435 -176.35372925 305.237854 C-178.0689748 300.89888385 -179.79730168 296.56511524 -181.5234375 292.23046875 C-181.88575974 291.31970581 -182.24808197 290.40894287 -182.62138367 289.47058105 C-186.85364236 278.83932283 -191.14446962 268.23182977 -195.4375 257.625 C-196.24520286 255.62866385 -197.05290142 253.63232595 -197.8605957 251.63598633 C-199.85584761 246.70517752 -201.85194092 241.77470979 -203.84832764 236.84436035 C-205.67143246 232.34171947 -207.49390671 227.8388234 -209.31640625 223.3359375 C-211.40153822 218.18423065 -213.48676795 213.0325635 -215.57250977 207.88110352 C-219.35099808 198.54832086 -223.12650967 189.21434246 -226.8984375 179.87890625 C-227.31056488 178.85899094 -227.72269226 177.83907562 -228.14730835 176.78825378 C-231.44970769 168.61553228 -231.44970769 168.61553228 -233.09417725 164.54379272 C-236.91646051 155.07987216 -240.739406 145.61641711 -244.609375 136.171875 C-244.87497223 135.52310898 -245.14056946 134.87434296 -245.41421509 134.20591736 C-246.59519157 131.32201184 -247.7790499 128.43935879 -248.96826172 125.55883789 C-249.36287598 124.5971167 -249.75749023 123.63539551 -250.1640625 122.64453125 C-250.49873535 121.83346924 -250.8334082 121.02240723 -251.17822266 120.18676758 C-254.22307266 112.08435478 -253.61322906 104.55539564 -250.65625 96.51953125 C-246.07423868 89.5492546 -239.44963028 85.8123094 -231.875 82.8125 C-230.5144751 82.25151611 -230.5144751 82.25151611 -229.12646484 81.67919922 C-226.09134537 80.43463294 -223.04682385 79.21560896 -220 78 C-217.86970932 77.14213155 -215.73950345 76.28405245 -213.609375 75.42578125 C-209.38304712 73.72822741 -205.15374177 72.03842242 -200.92160034 70.35543823 C-189.68020119 65.88448309 -178.46471167 61.34990541 -167.25 56.8125 C-166.24479309 56.40590149 -165.23958618 55.99930298 -164.20391846 55.5803833 C-157.13553831 52.72126166 -150.06768646 49.86083591 -143 47 C-141.18034074 46.26350369 -139.36067935 45.52701264 -137.54101562 44.79052734 C-130.65141488 42.0019932 -123.76185661 39.21335426 -116.87255859 36.42407227 C-107.60107906 32.67050584 -98.32856452 28.91951441 -89.0546875 25.171875 C-88.04841812 24.76520599 -87.04214874 24.35853699 -86.00538635 23.93954468 C-80.97667635 21.9073174 -75.94780645 19.87548716 -70.91870117 17.84423828 C-61.95977724 14.22478503 -53.00371009 10.59877346 -44.05859375 6.9453125 C-42.92112701 6.48118958 -42.92112701 6.48118958 -41.76068115 6.00769043 C-38.28490636 4.58943919 -34.81011832 3.16888895 -31.33740234 1.74316406 C-29.5558374 1.01564941 -29.5558374 1.01564941 -27.73828125 0.2734375 C-26.71774658 -0.14502441 -25.69721191 -0.56348633 -24.64575195 -0.99462891 C-16.28921645 -4.17006613 -8.08724293 -3.8860214 0 0 Z M-19.35386658 14.51132202 C-20.19457703 14.84711777 -21.03528748 15.18291351 -21.901474 15.52888489 C-23.26690086 16.08958931 -23.26690086 16.08958931 -24.65991211 16.66162109 C-25.63038483 17.05211136 -26.60085754 17.44260162 -27.60073853 17.84492493 C-30.82958477 19.1463912 -34.05335279 20.45999497 -37.27734375 21.7734375 C-39.55863164 22.69521238 -41.84025951 23.61614623 -44.12220764 24.5362854 C-50.17223615 26.97806026 -56.21819374 29.42975418 -62.26318359 31.88397217 C-71.7554499 35.73590861 -81.25352584 39.57351868 -90.75154114 43.41125298 C-93.10874492 44.36373731 -95.46583047 45.31651428 -97.82279968 46.26957893 C-119.43817755 55.00770471 -141.12876225 63.54277932 -162.85635376 71.99731445 C-174.24605626 76.4301799 -185.62696884 80.885334 -196.98970318 85.38690948 C-200.47467334 86.76722447 -203.96196376 88.1410826 -207.45410156 89.50317383 C-210.98119901 90.87915375 -214.50239008 92.26930659 -218.01983261 93.66977501 C-219.32630724 94.18714961 -220.63477384 94.69952724 -221.94534683 95.20643044 C-223.73864212 95.90097658 -225.5240841 96.61569787 -227.30908203 97.33129883 C-228.31617218 97.72779129 -229.32326233 98.12428375 -230.36087036 98.53279114 C-233.48411298 100.26913981 -235.07065768 102.00628233 -237 105 C-237.08723761 112.22486012 -234.04895669 118.48309634 -231.3125 125.0625 C-230.77233438 126.38477064 -230.23341263 127.70754991 -229.69555664 129.03076172 C-228.47191026 132.03994283 -227.24427447 135.0474569 -226.01464844 138.05419922 C-222.70858473 146.15431759 -219.4702496 154.28168492 -216.22409058 162.40594482 C-214.9058449 165.70420119 -213.58596845 169.00180154 -212.26586914 172.29931641 C-205.75338634 188.57416228 -199.26819613 204.85980768 -192.79078865 221.14864349 C-191.35781699 224.75202177 -189.92460388 228.35530392 -188.49131775 231.95855713 C-187.52358582 234.39147779 -186.55585817 236.82440016 -185.58813477 239.25732422 C-185.1058929 240.46970512 -184.62365103 241.68208603 -184.12679577 242.93120575 C-181.23615462 250.19903889 -178.3473721 257.46760753 -175.4598875 264.73669529 C-173.616751 269.3755126 -171.77196859 274.01367423 -169.92682457 278.65169334 C-169.06743233 280.81291135 -168.20871828 282.9743992 -167.35077858 285.13619423 C-164.98903174 291.08674094 -162.61440892 297.03181528 -160.21965027 302.96915817 C-159.36808754 305.08529917 -158.52082161 307.2031721 -157.67683411 309.32234573 C-156.34613662 312.65800868 -154.99953577 315.98685635 -153.64941406 319.31469727 C-153.24304592 320.34162406 -152.83667778 321.36855085 -152.41799545 322.42659664 C-152.02935444 323.37548543 -151.64071342 324.32437422 -151.24029541 325.30201721 C-150.9034586 326.13879785 -150.56662178 326.97557848 -150.21957779 327.8377161 C-148.79361356 330.36591851 -147.50277973 331.54662986 -145 333 C-136.41426752 332.99034226 -128.7634281 328.85824173 -121.0065918 325.54248047 C-119.20121948 324.77701904 -119.20121948 324.77701904 -117.359375 323.99609375 C-116.44693779 323.60901245 -116.44693779 323.60901245 -115.5160675 323.21411133 C-111.38731463 321.49366398 -107.23148292 320.08295685 -102.953125 318.78515625 C-90.25967639 315.10721618 -90.25967639 315.10721618 -81.62890625 305.7734375 C-79.45751882 300.74527699 -77.61389398 295.46753506 -77 290 C-77.33 289.34 -77.66 288.68 -78 288 C-78.78375 288.7425 -79.5675 289.485 -80.375 290.25 C-88.82884211 297.10288356 -98.39142209 298.26650807 -108.95068359 297.31787109 C-116.50500627 296.14611411 -123.25555607 291.94135461 -127.82421875 285.86328125 C-133.71697492 276.52492678 -135.10465249 267.99237528 -134 257 C-131.09035823 247.41595096 -125.21865479 240.64827747 -116.65625 235.625 C-108.13952664 231.64315531 -98.95768585 231.71903905 -90.125 234.6875 C-81.7654796 238.18175526 -75.91802051 242.61781067 -72 251 C-70.6995326 255.62497054 -69.76871126 260.2596139 -69 265 C-66.77157592 262.77157592 -66.30962773 261.41359258 -65.328125 258.453125 C-65.00046143 257.48165527 -64.67279785 256.51018555 -64.33520508 255.50927734 C-63.9770874 254.43371582 -63.61896973 253.3581543 -63.25 252.25 C-59.28285773 240.55692974 -55.09462729 228.95606542 -50.8125 217.375 C-50.51903687 216.58033325 -50.22557373 215.7856665 -49.92321777 214.96691895 C-49.0604106 212.63124988 -48.19625297 210.29608347 -47.33203125 207.9609375 C-47.0561618 207.21307983 -46.78029236 206.46522217 -46.49606323 205.69470215 C-45.09830373 201.91612879 -43.67480784 198.15044055 -42.20458984 194.39941406 C-41.91992355 193.66534332 -41.63525726 192.93127258 -41.34196472 192.17495728 C-40.80204555 190.78595863 -40.25467093 189.39982714 -39.69868469 188.0171814 C-38.13801014 184.08862499 -38.13801014 184.08862499 -39 180 C-40.69675834 178.57743984 -40.69675834 178.57743984 -42.75 177.25 C-49.48626623 172.34541976 -53.4588664 166.23913734 -55 158 C-56.01787702 146.69163461 -54.9799906 137.72410743 -47.875 128.6875 C-42.86772603 123.33340186 -35.36919472 119.2954462 -27.99609375 118.796875 C-17.69956308 118.66124562 -9.02735208 119.46452922 -0.81640625 126.1328125 C3.37842237 130.4449159 6.29693422 135.70520114 8.05151367 141.43212891 C9.39730917 144.56110919 10.68027476 145.69585776 13.78125 147.07983398 C15.34438142 147.66222413 16.91828828 148.21623889 18.5 148.74609375 C19.33208984 149.04693375 20.16417969 149.34777374 21.02148438 149.6577301 C23.67295001 150.60899996 26.33570936 151.52285326 29 152.4375 C30.79248594 153.07778919 32.5841644 153.72034374 34.375 154.36523438 C42.50709945 157.63357738 42.50709945 157.63357738 51 159 C48.92489101 151.57228 46.32417217 144.45672753 43.44921875 137.3046875 C43.00242767 136.1828154 42.5556366 135.0609433 42.0953064 133.90507507 C40.88204889 130.86010379 39.66524543 127.81657909 38.44697952 124.77360916 C36.37289654 119.58864652 34.30914419 114.39955286 32.24342918 109.21125221 C31.44056765 107.19511605 30.63719565 105.17918375 29.83381653 103.16325378 C26.15014418 93.91537169 22.49804724 84.65545429 18.8671875 75.38671875 C18.49751704 74.44338558 18.49751704 74.44338558 18.12037849 73.48099518 C15.97565542 68.00779853 13.83234709 62.53405165 11.69418335 57.05828857 C9.198157 50.66665682 6.68897896 44.28065166 4.15216064 37.90509033 C3.38645103 35.97440852 2.62611643 34.04158597 1.87127686 32.10662842 C0.82432508 29.42783983 -0.24304768 26.75814001 -1.31640625 24.08984375 C-1.61747787 23.30670303 -1.9185495 22.52356232 -2.22874451 21.71669006 C-3.61287849 18.33546651 -4.56438013 16.36136699 -7.41772461 13.99438477 C-11.73947533 12.33016139 -15.12943286 12.79917611 -19.35386658 14.51132202 Z M-14 160 C-15.81847453 163.5903127 -17.1158085 167.34405287 -18.44921875 171.13671875 C-18.85918091 172.26261917 -19.26914307 173.38851959 -19.69152832 174.54853821 C-20.80559949 177.6164856 -21.90585617 180.6889696 -23.00042343 183.76391602 C-24.15764156 187.0037387 -25.33300481 190.23695958 -26.50708008 193.47070312 C-28.42775376 198.76597627 -30.3396985 204.06431721 -32.24609375 209.36474609 C-35.81004666 219.26830614 -39.44840735 229.14425668 -43.0894165 239.01968384 C-44.93631817 244.03237268 -46.776525 249.04751753 -48.6171875 254.0625 C-49.34861645 256.05469351 -50.08006172 258.04688102 -50.81152344 260.0390625 C-51.54102014 262.02604001 -52.27051233 264.01301918 -53 266 C-62.3495564 291.46635116 -71.70473152 316.93062899 -81.07821655 342.38818359 C-82.02059507 344.94764328 -82.9626604 347.50721789 -83.90444946 350.06689453 C-85.21685879 353.63339285 -86.53017908 357.19955438 -87.84375 360.765625 C-88.23559982 361.83097473 -88.62744965 362.89632446 -89.03117371 363.99395752 C-89.39406998 364.97853943 -89.75696625 365.96312134 -90.13085938 366.97753906 C-90.44518921 367.83124084 -90.75951904 368.68494263 -91.08337402 369.56451416 C-91.72612892 371.27232137 -92.39974486 372.96868106 -93.0958252 374.65545654 C-94.09568375 377.2481099 -94.33216448 379.29104175 -94.375 382.0625 C-94.41753906 383.31740234 -94.41753906 383.31740234 -94.4609375 384.59765625 C-93.83868778 387.8407374 -92.47165638 388.85268881 -90 391 C-87.68135933 392.20302415 -87.68135933 392.20302415 -85.09448242 393.06445312 C-83.61611404 393.59902382 -83.61611404 393.59902382 -82.10787964 394.14439392 C-80.49793625 394.70713768 -80.49793625 394.70713768 -78.85546875 395.28125 C-77.72400421 395.68706802 -76.59253967 396.09288605 -75.42678833 396.51100159 C-72.33159479 397.61911668 -69.23308198 398.71728564 -66.1329689 399.81154251 C-62.85076596 400.97303997 -59.57334797 402.14787206 -56.2956543 403.32202148 C-52.22972579 404.77773956 -48.16345092 406.23244587 -44.0952301 407.68174744 C-31.93822352 412.01281614 -19.80700434 416.41323304 -7.68234253 420.83404541 C-2.01186808 422.90118068 3.66019007 424.9639622 9.33203125 427.02734375 C10.45602829 427.43637939 11.58002533 427.84541504 12.73808289 428.2668457 C19.64192419 430.77912019 26.54666507 433.28890422 33.45220947 435.79649353 C36.94631056 437.06535016 40.44020171 438.33478368 43.93408203 439.60424805 C48.52143677 441.27085957 53.10976182 442.93476182 57.69873047 444.59692383 C69.15652593 448.75178941 80.59098314 452.96030855 91.99609375 457.2578125 C95.35896644 458.51816256 98.72228603 459.77731235 102.08575439 461.03607178 C104.21088401 461.83556301 106.333802 462.64096175 108.45428467 463.45269775 C111.3770342 464.57153854 114.30662572 465.6703754 117.23828125 466.765625 C118.0836998 467.0957962 118.92911835 467.42596741 119.80015564 467.7661438 C125.50770799 469.86936782 130.91100688 470.84133975 137 470 C141.92623923 466.28687791 143.44970073 458.95967473 145.4375 453.3125 C145.90084102 452.02087587 146.36524647 450.72963323 146.83056641 449.4387207 C147.91925308 446.41426091 149.00235589 443.38786547 150.08251953 440.36035156 C153.53493387 430.69504765 157.03829547 421.04801809 160.53216553 411.39764404 C161.66060573 408.27985418 162.78809686 405.1617234 163.91511917 402.04342079 C170.47444381 383.89744941 177.12042313 365.78501071 183.8125 347.6875 C190.89567858 328.53212141 197.86002544 309.3401512 204.6418457 290.07592773 C207.41799146 282.19866175 210.21501973 274.33731256 213.20703125 266.5390625 C213.45047775 265.9008255 213.69392426 265.2625885 213.94474792 264.60501099 C215.03088127 261.7606525 216.13051034 258.92345874 217.26049805 256.09619141 C219.35262931 250.66535779 221.58124612 244.8453786 220 239 C217.05675286 235.16510492 213.53058768 233.77998925 209.08203125 232.28515625 C208.02657608 231.91392891 208.02657608 231.91392891 206.94979858 231.53520203 C205.39990331 230.99113557 203.84821212 230.45216544 202.29501343 229.91760254 C197.89894386 228.40337498 193.5170111 226.84897039 189.1328125 225.30078125 C188.17596054 224.9640036 187.21910858 224.62722595 186.23326111 224.28024292 C175.04907308 220.33356733 163.93100749 216.20919198 152.8092041 212.09072876 C132.58916841 204.60541726 112.34478334 197.18999007 92.0625 189.875 C91.00678802 189.49323608 89.95107605 189.11147217 88.8633728 188.71813965 C85.8800185 187.6398775 82.89533516 186.56538632 79.91015625 185.4921875 C79.049133 185.18064728 78.18810974 184.86910706 77.30099487 184.54812622 C73.20907498 183.0824578 69.12217636 181.7282845 64.94311523 180.53173828 C60.89151075 179.34267589 57.16053962 177.80325529 53.33190918 176.03546143 C48.98479594 174.10516838 44.49281265 172.55974637 40.015625 170.9609375 C38.99700378 170.59400787 37.97838257 170.22707825 36.92889404 169.84902954 C33.70371877 168.68786872 30.47694339 167.53123693 27.25 166.375 C24.00909205 165.21075763 20.76852801 164.04556729 17.52825928 162.87954712 C15.51978825 162.15711066 13.51089494 161.43584679 11.50152588 160.71591187 C10.13420319 160.22497543 10.13420319 160.22497543 8.73925781 159.72412109 C7.94255676 159.43862396 7.14585571 159.15312683 6.32501221 158.85897827 C4.64966578 158.24001972 2.98671098 157.58714634 1.33270264 156.91323853 C-0.93101231 156.02700825 -2.58588558 155.67367166 -5 155.625 C-5.639375 155.59664062 -6.27875 155.56828125 -6.9375 155.5390625 C-10.24740447 156.278776 -11.58060948 157.56411009 -14 160 Z " fill="#2C307A" transform="translate(264,14)"/>
<path d="M0 0 C9.74348334 5.42767615 15.13576961 13.05184009 18.6015625 23.44921875 C19.58387533 34.78607499 17.67004311 44.72182267 10.35546875 53.66796875 C3.36142994 60.77104602 -5.43077611 64.40086431 -15.3359375 64.88671875 C-26.41369109 64.43598073 -33.96007262 59.34554266 -41.3984375 51.44921875 C-46.85275986 44.87606103 -49.05203008 36.49654377 -48.74609375 28.0234375 C-47.51995776 18.94452048 -43.44726646 10.50302303 -36.2578125 4.73046875 C-34.02481709 3.18104336 -31.75981459 1.79319401 -29.3984375 0.44921875 C-28.3465625 -0.16953125 -27.2946875 -0.78828125 -26.2109375 -1.42578125 C-17.56898239 -3.97586637 -8.31268082 -3.49426849 0 0 Z " fill="#2F327A" transform="translate(261.3984375,348.55078125)"/>
<path d="M0 0 C6.71359656 5.45652395 11.83773453 13.77097807 12.75 22.4375 C12.8428125 23.26765625 12.935625 24.0978125 13.03125 24.953125 C13.56347109 34.26699401 10.38739629 42.47807463 4.6875 49.8125 C-1.49182652 56.31776902 -10.21387765 59.92324935 -19.046875 60.67578125 C-28.88344542 60.92299664 -35.70877419 58.28048635 -43.3984375 52.19921875 C-50.58818523 45.35834064 -54.33187167 36.85948689 -54.6875 27.0625 C-54.43309707 17.49473764 -50.92229581 9.33220568 -44.25 2.4375 C-30.84838526 -8.7136549 -14.62542168 -9.72210112 0 0 Z " fill="#2C327C" transform="translate(154.25,181.5625)"/>
<path d="M0 0 C1.4656807 0.89280042 2.90770014 1.82667554 4.3125 2.8125 C5.385 3.534375 6.4575 4.25625 7.5625 5 C15.09806822 12.70683113 18.75605448 21.31467498 18.67163086 32.01049805 C18.38193704 42.00432893 14.62816733 48.44906553 7.828125 55.609375 C-0.0954552 62.54865952 -8.62034818 64.28957379 -18.88671875 64.08984375 C-23.93688799 63.72133191 -27.4415643 62.49546331 -31.6875 59.8125 C-32.73164063 59.17634766 -32.73164063 59.17634766 -33.796875 58.52734375 C-41.42386908 53.38055639 -45.93241668 46.2001137 -48.21484375 37.34375 C-49.79599757 28.87608324 -48.75587552 21.45974061 -44.6875 13.8125 C-34.59943557 -0.03424481 -16.48321481 -7.97817703 0 0 Z " fill="#2E327A" transform="translate(396.6875,316.1875)"/>
<path d="M0 0 C6.68586985 4.8615825 13.38290767 10.98610761 15.59765625 19.22265625 C17.13856743 29.85943146 17.35450904 39.94482462 11 49 C10.278125 50.0725 9.55625 51.145 8.8125 52.25 C1.38015667 59.51718015 -6.98688529 62.98899571 -17.3125 63.375 C-27.75152239 63.14806473 -34.37045343 59.52706719 -41.8671875 52.37109375 C-44.74602648 49.17062624 -46.56358336 46.03601848 -48 42 C-48.35320312 41.071875 -48.70640625 40.14375 -49.0703125 39.1875 C-51.37777477 31.27620078 -51.15993311 22.35524023 -47.25390625 15.01953125 C-46.84011719 14.35308594 -46.42632812 13.68664062 -46 13 C-45.57589844 12.30261719 -45.15179688 11.60523438 -44.71484375 10.88671875 C-34.6763685 -3.96127668 -15.7451261 -8.58615794 0 0 Z " fill="#2E327A" transform="translate(424,245)"/>
<path d="M0 0 C6.10211485 5.0192761 10.6735904 11.73734283 12.6875 19.375 C13.68875969 29.85329905 13.02721796 38.50060771 6.69921875 47.06640625 C2.30769142 52.27707857 -1.86304715 56.07964347 -8.3125 58.375 C-9.25222656 58.72820312 -10.19195312 59.08140625 -11.16015625 59.4453125 C-19.09897831 61.78662557 -27.47450918 61.17034941 -34.96484375 57.69921875 C-42.23501649 53.59840584 -47.62105634 48.93578822 -51.3125 41.375 C-51.86164063 40.27285156 -51.86164063 40.27285156 -52.421875 39.1484375 C-54.85031886 31.5861781 -54.59802091 19.83776306 -51.546875 12.42578125 C-46.37789532 3.83807766 -39.20995846 -2.33154393 -29.9375 -5.9375 C-19.25340733 -7.96379344 -9.11121508 -6.20338048 0 0 Z " fill="#2C327C" transform="translate(232.3125,67.625)"/>
<path d="M0 0 C7.4759524 5.18082159 14.00875008 12.70218792 15.75 21.84375 C16.97415062 32.40204911 15.36280306 40.44823166 9.25 49.25 C3.93945407 55.83827127 -2.59600111 60.47999422 -11 62 C-21.17990463 62.96667324 -29.36770952 62.15483457 -37.6953125 56.01171875 C-42.90194874 51.61719633 -46.70489443 47.44874773 -49 41 C-49.35191406 40.05769531 -49.70382812 39.11539063 -50.06640625 38.14453125 C-52.73173684 29.16716253 -51.21963811 21.0490634 -47.484375 12.65625 C-44.79292638 7.83997351 -41.69568784 4.47178124 -37.1875 1.3125 C-36.37667969 0.73113281 -35.56585938 0.14976562 -34.73046875 -0.44921875 C-24.4454934 -6.29061391 -10.12441597 -6.05673026 0 0 Z " fill="#2E327A" transform="translate(317,207)"/>
<path d="M0 0 C8.06142819 4.75898265 14.11192936 11.3587666 17.3046875 20.19921875 C19.87043676 30.53428739 17.92618281 40.12619665 12.71484375 49.25 C7.59489302 56.78017823 0.27876454 61.27296886 -8.46875 63.52734375 C-16.93641676 65.10849757 -24.35275939 64.06837552 -32 60 C-40.19108015 54.03237761 -45.22210211 47.7805155 -48 38 C-49.13281648 27.17288861 -48.60121884 18.1173151 -42 9 C-31.46028211 -3.42263046 -14.75231823 -6.73090334 0 0 Z " fill="#2C327C" transform="translate(120,107)"/>
<path d="M0 0 C7.1268793 4.31796251 11.87065779 12.08822389 14 20 C15.1211714 31.61585714 13.89784873 41.5497769 6.5 50.8125 C-0.88072031 58.32839833 -8.69756068 61.55515297 -19.125 61.6875 C-26.37540727 61.55753207 -32.02624468 60.33726679 -38 56 C-38.65226563 55.54238281 -39.30453125 55.08476562 -39.9765625 54.61328125 C-46.18795625 49.78953929 -49.91159906 43.53283483 -52 36 C-53.19329156 25.23742804 -52.20889834 17.13679115 -46 8 C-43.4375 5 -43.4375 5 -41 3 C-40.2575 2.319375 -39.515 1.63875 -38.75 0.9375 C-26.58648503 -7.63224919 -12.88141093 -7.20959588 0 0 Z " fill="#2D317A" transform="translate(292,279)"/>
<path d="M0 0 C7.29517659 5.26512001 12.72647668 11.98333744 14.625 20.89453125 C15.77830798 32.70392444 14.65949315 42.24895267 7 51.70703125 C-0.0109406 59.12497402 -8.39105306 61.98883307 -18.375 62.33203125 C-27.87283556 62.41658515 -35.3593481 58.9819216 -42.3125 52.58203125 C-47.48205287 46.85634066 -50.9786684 40.68905276 -51.375 32.89453125 C-51.46007812 32.01023437 -51.54515625 31.1259375 -51.6328125 30.21484375 C-52.20445946 20.64597075 -49.06954519 13.36687543 -43 6.01953125 C-41.700625 4.96765625 -41.700625 4.96765625 -40.375 3.89453125 C-39.7665625 3.38277344 -39.158125 2.87101562 -38.53125 2.34375 C-27.58818424 -6.47383568 -12.04156668 -6.98607197 0 0 Z " fill="#2D317A" transform="translate(373.375,390.10546875)"/>
<path d="M0 0 C4.69134349 3.15305876 7.51817733 7.45767513 8.6953125 12.9765625 C9.00882726 18.33106461 7.90909101 22.34112878 4.76171875 26.6875 C0.56057311 31.29751626 -3.61210405 33.71518604 -9.90625 34.01171875 C-16.08836748 33.6698505 -19.91637867 31.53286343 -24.15625 26.94921875 C-27.71342798 21.67932544 -28.66617298 17.77875254 -27.84375 11.44921875 C-25.98945775 5.23123277 -22.50016948 1.50709749 -16.84375 -1.55078125 C-10.77268899 -3.57446825 -5.64392092 -2.75431072 0 0 Z " fill="#FAFAFC" transform="translate(282.84375,291.55078125)"/>
<path d="M0 0 C4.05523038 2.85709413 7.51585617 6.46921234 9.75 10.9375 C10.2572965 16.49281248 10.51260422 21.35580236 8.0625 26.4375 C3.02253461 31.88611124 -1.21395392 34.41430884 -8.625 35.375 C-14.6223084 34.65118692 -18.63248621 31.67943793 -22.6875 27.3125 C-26.02378811 22.24134208 -25.94844901 16.81410549 -25.25 10.9375 C-23.36774504 5.83937445 -20.17589784 1.96700767 -15.2734375 -0.44140625 C-10.08869133 -2.03286309 -5.09967073 -1.66720005 0 0 Z " fill="#FBFBFC" transform="translate(307.25,219.0625)"/>
<path d="M0 0 C4.55602895 2.68101517 8.40276168 5.85712979 10.47265625 10.859375 C11.29693528 18.07181649 10.88887723 22.9795629 6.72265625 29.046875 C2.72814222 32.84166333 -1.06631491 35.32997485 -6.65234375 35.359375 C-11.75163837 35.20915028 -15.27190172 34.08056269 -18.94140625 30.359375 C-23.99567286 24.61044616 -24.69399743 21.05251201 -24.6171875 13.3203125 C-24.04598464 7.81838153 -21.82796843 5.20907968 -17.73828125 1.7421875 C-12.42533628 -1.90888843 -5.94687232 -2.48891397 0 0 Z " fill="#FBFBFC" transform="translate(362.27734375,401.953125)"/>
<path d="M0 0 C4.86450826 2.44301631 7.89062566 6.41920943 9.828125 11.38671875 C10.8744109 16.74574411 10.41104434 21.03001841 7.640625 25.76171875 C4.46752885 30.19867524 1.27073285 33.30221386 -4.171875 34.38671875 C-10.74346354 35.12769269 -14.80532157 34.28010065 -20.171875 30.38671875 C-24.40314797 26.04108706 -25.94875915 21.88561624 -26.484375 15.88671875 C-25.96771395 10.10011495 -23.90239041 6.83060724 -19.609375 3.07421875 C-13.91734414 -1.58957428 -7.1096994 -2.00759497 0 0 Z " fill="#FBFBFC" transform="translate(170.171875,262.61328125)"/>
<path d="M0 0 C3.7535738 2.72779958 6.26966717 5.45059069 7.625 9.9375 C8.50183245 15.52417535 8.37795126 20.37804014 5.5625 25.375 C2.88134348 29.00200895 0.01303424 31.66560602 -4.375 32.9375 C-10.01821022 33.66565616 -14.70013079 33.74502622 -19.875 31.25 C-24.11403639 27.32889134 -27.09200789 24.15247597 -27.61328125 18.23046875 C-27.76337002 11.95043881 -27.84916284 7.7744328 -23.375 2.9375 C-16.98911462 -2.96944398 -7.76550784 -4.4353556 0 0 Z " fill="#FCFCFD" transform="translate(417.375,259.0625)"/>
<path d="M0 0 C4.69000712 2.65620964 8.03613552 5.9088222 9.65234375 11.12109375 C10.71439115 17.8916459 9.65859406 23.5252667 5.65234375 29.12109375 C0.31684149 34.19632761 -4.28739876 34.47096656 -11.3984375 34.40234375 C-16.67976432 33.89869404 -19.23483907 31.35421549 -22.66015625 27.55859375 C-26.2994967 22.30176865 -26.16731499 16.28805 -25.34765625 10.12109375 C-23.33471003 5.73301029 -20.49429945 2.97440962 -16.66015625 0.12109375 C-11.10133639 -1.55704055 -5.52792176 -2.06952146 0 0 Z " fill="#FCFCFD" transform="translate(141.34765625,191.87890625)"/>
<path d="M0 0 C3.66864538 2.68437467 6.50666083 5.76332166 8.5625 9.875 C9.24817286 17.28251496 9.26398901 22.93627704 4.5625 28.875 C-0.82400856 33.05229235 -5.10671077 34.30279504 -11.80078125 34.21484375 C-16.87021444 33.56145014 -20.40897445 31.08116479 -23.8203125 27.37109375 C-27.25597289 22.38578234 -27.40170484 16.71053536 -26.4375 10.875 C-24.73402 6.52568935 -22.19171197 3.61081656 -18.875 0.375 C-12.75257897 -2.29660191 -6.30450021 -2.06329098 0 0 Z " fill="#FCFCFD" transform="translate(255.4375,363.125)"/>
<path d="M0 0 C4.35311051 1.66929196 7.27321015 4.2550404 10.5 7.5625 C13.17160191 13.68492103 12.93829098 20.13299979 10.875 26.4375 C8.19062533 30.10614538 5.11167834 32.94416083 1 35 C-4.83244197 35.4914074 -10.17872553 35.83075678 -15.5625 33.375 C-20.47228083 28.59111098 -23.11231549 24.0464535 -23.3125 17.1875 C-23.24874461 12.31375469 -22.29691479 9.73071937 -19 6 C-12.85424747 0.23051804 -8.37574278 -0.9946901 0 0 Z " fill="#FCFCFD" transform="translate(387,329)"/>
<path d="M0 0 C4.9995304 2.33060815 8.20200646 5.27901291 10.703125 10.28125 C11.19641255 16.13600711 11.56056788 21.47109281 9.015625 26.84375 C3.99738989 32.13324106 0.33514194 34.40947464 -6.984375 34.71875 C-12.50525169 34.67196291 -15.63242398 33.65170923 -19.73828125 29.97265625 C-24.28560864 25.0378373 -24.8473701 20.40691891 -24.64453125 13.8984375 C-23.95145152 8.68087101 -20.98090978 5.76431195 -17.171875 2.46875 C-11.92672603 -1.52212421 -6.34499279 -1.98550795 0 0 Z " fill="#FCFCFD" transform="translate(218.296875,77.71875)"/>
<path d="M0 0 C3.66864538 2.68437467 6.50666083 5.76332166 8.5625 9.875 C9.24817286 17.28251496 9.26398901 22.93627704 4.5625 28.875 C-1.57012769 33.63091535 -6.83322371 34.7185994 -14.4375 33.875 C-19.6662958 31.30993036 -23.8151477 27.1197046 -26.4375 21.875 C-27.2192635 15.24117828 -26.95114434 9.99711161 -22.90234375 4.53515625 C-16.71672109 -2.47521609 -8.59292499 -2.81223 0 0 Z " fill="#FCFCFD" transform="translate(113.4375,121.125)"/>
<path d="M0 0 C3.33079844 1.89398343 5.05770297 3.66040039 7.1875 6.8125 C6.630625 6.95945313 6.07375 7.10640625 5.5 7.2578125 C-1.07134179 9.18925417 -7.12781515 11.85913786 -11.09375 17.69921875 C-12.13440061 19.70562466 -13.00100256 21.7033907 -13.8125 23.8125 C-14.11027344 24.56789062 -14.40804687 25.32328125 -14.71484375 26.1015625 C-15.44083436 27.99516012 -16.13041059 29.90264965 -16.8125 31.8125 C-21.03029303 30.30614535 -22.5872674 27.57237578 -24.8125 23.8125 C-26.66239522 18.26281434 -26.77764041 12.77990161 -24.1875 7.5 C-17.16096227 -0.45108217 -10.36593291 -3.2287332 0 0 Z " fill="#F9F9FB" transform="translate(248.8125,148.1875)"/>
</svg>
