<?xml version="1.0" encoding="UTF-8"?>
<svg version="1.1" xmlns="http://www.w3.org/2000/svg" width="512" height="512">
<path d="M0 0 C0.81597656 0.62003906 1.63195312 1.24007812 2.47265625 1.87890625 C5.29741551 4.24960838 7.45549186 6.80396545 9.75 9.6875 C10.52859375 10.66074219 11.3071875 11.63398437 12.109375 12.63671875 C12.73328125 13.41660156 13.3571875 14.19648437 14 15 C15.59962366 16.59962366 17.31670143 16.14660932 19.53125 16.17578125 C48.91594327 16.82527715 74.04451859 25.25722025 94.76171875 46.8828125 C113.03721414 67.87304457 118.60433385 91.52411575 118.16113281 118.78613281 C118 121 118 121 117 124 C117.71800781 124.25652344 118.43601562 124.51304687 119.17578125 124.77734375 C137.91029819 132.88786076 152.06900556 151.72808947 160 170 C168.97930447 193.51209599 169.18185601 220.08871155 159.203125 243.29296875 C148.62874451 266.42190033 130.28680592 283.25344737 107 293 C101.53478911 294.98485155 95.84818888 297 90 297 C89.67 298.175625 89.34 299.35125 89 300.5625 C81.78391191 321.8432783 66.34809937 338.90958392 47 350 C45.63101563 350.78697266 45.63101563 350.78697266 44.234375 351.58984375 C34.20544311 356.97422931 23.21639509 360.2153478 12 362 C11.9906543 363.21469971 11.98130859 364.42939941 11.97167969 365.6809082 C11.93148095 370.2343264 11.8656422 374.78708998 11.79248047 379.34008789 C11.76444285 381.30191571 11.74314369 383.26385287 11.72900391 385.22583008 C11.60759806 401.12594886 10.45229947 413.28018262 -1.0703125 425.12890625 C-9.91665329 433.49748299 -18.86875227 436.33271465 -31 437 C-43.31668677 436.54099304 -53.29231389 431.38794026 -61.77124023 422.64379883 C-65.63237343 418.06364642 -68.23874247 412.9468811 -70.9375 407.625 C-71.55985452 406.4279691 -72.1836748 405.23169931 -72.80883789 404.03613281 C-74.51716218 400.75781722 -76.20317971 397.4684804 -77.88525391 394.17663574 C-79.90164506 390.23946199 -81.93706101 386.31210688 -83.96875 382.3828125 C-88.33350469 373.93259144 -92.67326221 365.46974047 -97 357 C-102.32129621 357.84010733 -107.18407774 359.27473264 -112.29296875 360.96484375 C-138.57454709 368.30374603 -164.9035329 363.82714766 -188.4140625 350.58984375 C-192.55951761 348.04120292 -196.2835519 345.1327128 -200 342 C-200.79019531 341.36707031 -201.58039063 340.73414063 -202.39453125 340.08203125 C-217.69479985 327.23944359 -227.35324378 309.27970903 -232 290 C-232 289.01 -232 288.02 -232 287 C-232.6084375 287.144375 -233.216875 287.28875 -233.84375 287.4375 C-258.16098234 292.58703155 -283.64858244 286.91643384 -304.38671875 273.55859375 C-310.52159 269.36904641 -315.79428171 264.27106203 -321 259 C-322.03060547 257.96746094 -322.03060547 257.96746094 -323.08203125 256.9140625 C-342.52611527 236.10933151 -346.90780909 209.66660593 -346.18359375 182.35644531 C-345.55161891 170.80273512 -341.64402747 158.98337833 -335.83203125 148.9921875 C-334.74980079 146.40093147 -334.9765821 144.65138165 -335.3125 141.875 C-335.42078125 140.90433594 -335.5290625 139.93367187 -335.640625 138.93359375 C-335.75921875 137.96550781 -335.8778125 136.99742187 -336 136 C-339.03509813 109.52276234 -333.63821843 83.74092293 -316.82666016 62.55102539 C-301.68095826 44.06143027 -280.25078716 30.76098207 -256.125 28.25 C-254.7509108 28.15279755 -253.37606258 28.06341302 -252 28 C-251.74734375 27.27554688 -251.4946875 26.55109375 -251.234375 25.8046875 C-249.0737494 20.89541795 -245.40589735 17.0974173 -242 13 C-241.53722656 12.38898437 -241.07445312 11.77796875 -240.59765625 11.1484375 C-227.43644457 -5.7331167 -204.14957059 -15.92866306 -183.5 -18.68359375 C-162.20865488 -20.60836937 -139.79379204 -17.58718034 -122.015625 -4.90625 C-120.06261527 -3.75885081 -120.06261527 -3.75885081 -118.19140625 -4.57421875 C-117.46824219 -5.04472656 -116.74507812 -5.51523437 -116 -6 C-114.89011719 -6.65613281 -113.78023437 -7.31226563 -112.63671875 -7.98828125 C-111.68841187 -8.54986938 -111.68841187 -8.54986938 -110.72094727 -9.12280273 C-102.38153793 -14.00189286 -94.31372354 -17.40311473 -85 -20 C-83.78957031 -20.34998047 -83.78957031 -20.34998047 -82.5546875 -20.70703125 C-54.11811396 -27.99980565 -21.77786388 -19.16129983 0 0 Z " fill="#FF9DB1" transform="translate(346,49)"/>
<path d="M0 0 C0.81597656 0.62003906 1.63195312 1.24007812 2.47265625 1.87890625 C5.29741551 4.24960838 7.45549186 6.80396545 9.75 9.6875 C10.52859375 10.66074219 11.3071875 11.63398437 12.109375 12.63671875 C12.73328125 13.41660156 13.3571875 14.19648437 14 15 C15.59962366 16.59962366 17.31670143 16.14660932 19.53125 16.17578125 C48.91594327 16.82527715 74.04451859 25.25722025 94.76171875 46.8828125 C113.03721414 67.87304457 118.60433385 91.52411575 118.16113281 118.78613281 C118 121 118 121 117 124 C117.71800781 124.25652344 118.43601562 124.51304687 119.17578125 124.77734375 C137.91029819 132.88786076 152.06900556 151.72808947 160 170 C168.97930447 193.51209599 169.18185601 220.08871155 159.203125 243.29296875 C148.62874451 266.42190033 130.28680592 283.25344737 107 293 C101.53478911 294.98485155 95.84818888 297 90 297 C89.67 298.175625 89.34 299.35125 89 300.5625 C81.78391191 321.8432783 66.34809937 338.90958392 47 350 C45.63101563 350.78697266 45.63101563 350.78697266 44.234375 351.58984375 C34.20544311 356.97422931 23.21639509 360.2153478 12 362 C11.9906543 363.21469971 11.98130859 364.42939941 11.97167969 365.6809082 C11.93148095 370.2343264 11.8656422 374.78708998 11.79248047 379.34008789 C11.76444285 381.30191571 11.74314369 383.26385287 11.72900391 385.22583008 C11.60759806 401.12594886 10.45229947 413.28018262 -1.0703125 425.12890625 C-9.91665329 433.49748299 -18.86875227 436.33271465 -31 437 C-43.31668677 436.54099304 -53.29231389 431.38794026 -61.77124023 422.64379883 C-65.63237343 418.06364642 -68.23874247 412.9468811 -70.9375 407.625 C-71.55985452 406.4279691 -72.1836748 405.23169931 -72.80883789 404.03613281 C-74.51716218 400.75781722 -76.20317971 397.4684804 -77.88525391 394.17663574 C-79.90164506 390.23946199 -81.93706101 386.31210688 -83.96875 382.3828125 C-88.33350469 373.93259144 -92.67326221 365.46974047 -97 357 C-102.32129621 357.84010733 -107.18407774 359.27473264 -112.29296875 360.96484375 C-138.57454709 368.30374603 -164.9035329 363.82714766 -188.4140625 350.58984375 C-192.55951761 348.04120292 -196.2835519 345.1327128 -200 342 C-200.79019531 341.36707031 -201.58039063 340.73414063 -202.39453125 340.08203125 C-217.69479985 327.23944359 -227.35324378 309.27970903 -232 290 C-232 289.01 -232 288.02 -232 287 C-232.6084375 287.144375 -233.216875 287.28875 -233.84375 287.4375 C-258.16098234 292.58703155 -283.64858244 286.91643384 -304.38671875 273.55859375 C-310.52159 269.36904641 -315.79428171 264.27106203 -321 259 C-322.03060547 257.96746094 -322.03060547 257.96746094 -323.08203125 256.9140625 C-342.52611527 236.10933151 -346.90780909 209.66660593 -346.18359375 182.35644531 C-345.55161891 170.80273512 -341.64402747 158.98337833 -335.83203125 148.9921875 C-334.74980079 146.40093147 -334.9765821 144.65138165 -335.3125 141.875 C-335.42078125 140.90433594 -335.5290625 139.93367187 -335.640625 138.93359375 C-335.75921875 137.96550781 -335.8778125 136.99742187 -336 136 C-339.03509813 109.52276234 -333.63821843 83.74092293 -316.82666016 62.55102539 C-301.68095826 44.06143027 -280.25078716 30.76098207 -256.125 28.25 C-254.7509108 28.15279755 -253.37606258 28.06341302 -252 28 C-251.74734375 27.27554688 -251.4946875 26.55109375 -251.234375 25.8046875 C-249.0737494 20.89541795 -245.40589735 17.0974173 -242 13 C-241.53722656 12.38898437 -241.07445312 11.77796875 -240.59765625 11.1484375 C-227.43644457 -5.7331167 -204.14957059 -15.92866306 -183.5 -18.68359375 C-162.20865488 -20.60836937 -139.79379204 -17.58718034 -122.015625 -4.90625 C-120.06261527 -3.75885081 -120.06261527 -3.75885081 -118.19140625 -4.57421875 C-117.46824219 -5.04472656 -116.74507812 -5.51523437 -116 -6 C-114.89011719 -6.65613281 -113.78023437 -7.31226563 -112.63671875 -7.98828125 C-111.68841187 -8.54986938 -111.68841187 -8.54986938 -110.72094727 -9.12280273 C-102.38153793 -14.00189286 -94.31372354 -17.40311473 -85 -20 C-83.78957031 -20.34998047 -83.78957031 -20.34998047 -82.5546875 -20.70703125 C-54.11811396 -27.99980565 -21.77786388 -19.16129983 0 0 Z M-109.625 15.9375 C-113.307585 18.82208256 -115.98221255 20.0788993 -120.6953125 19.6875 C-124.46285485 18.56362296 -127.23632629 16.31697176 -130.328125 13.9453125 C-146.37803086 2.25985472 -165.94461034 -0.03951403 -185.24169922 2.26806641 C-199.80919768 4.77701194 -212.82057735 12.50520798 -223 23 C-223.77988281 23.78246094 -224.55976563 24.56492187 -225.36328125 25.37109375 C-230.3843115 30.64528519 -234.02629978 36.07755217 -237.39453125 42.53125 C-239.15990261 45.24588431 -239.96064855 46.01557289 -243 47 C-245.15669357 47.37519798 -247.32605797 47.68044604 -249.5 47.9375 C-269.7070997 50.71102349 -287.0269292 58.65080021 -300.3125 74.71484375 C-313.04696035 91.95942548 -318.41754386 110.78934253 -315.58203125 132.1484375 C-314.65386213 137.17164445 -314.65386213 137.17164445 -313.36328125 142.109375 C-311.66193101 149.35032164 -315.60654763 154.80125444 -318.921875 160.9921875 C-323.10331471 168.85763268 -325.68009115 177.09373767 -326 186 C-326.03109863 186.62648437 -326.06219727 187.25296875 -326.09423828 187.8984375 C-327.01430248 208.0936155 -321.48764193 227.26566072 -308.11328125 242.76953125 C-297.94036069 253.5065694 -286.33668347 261.85692409 -272 266 C-270.82179688 266.35835938 -269.64359375 266.71671875 -268.4296875 267.0859375 C-262.97758305 268.42059728 -257.52018774 268.2912768 -251.9375 268.25 C-250.36258789 268.26160156 -250.36258789 268.26160156 -248.75585938 268.2734375 C-243.11246163 268.25923134 -238.32518812 267.9034715 -233 266 C-232.93530518 265.43716309 -232.87061035 264.87432617 -232.80395508 264.29443359 C-229.80102385 238.99763781 -221.58890843 216.31235961 -202 199 C-198.86128812 197.43064406 -196.46144178 197.64798897 -193 198 C-190.0625 200.0625 -190.0625 200.0625 -188 203 C-187.26307561 208.15847072 -188.14676308 210.77464465 -191 215 C-192.40472924 216.59202647 -193.84452015 218.1536005 -195.3125 219.6875 C-207.38239985 232.95069627 -213.39057899 249.49411243 -213.25 267.3125 C-213.26160156 268.7655957 -213.26160156 268.7655957 -213.2734375 270.24804688 C-213.24739507 280.00744885 -211.93850376 289.08181719 -207.875 298 C-207.57295654 298.67716064 -207.27091309 299.35432129 -206.9597168 300.05200195 C-204.07039572 306.28304611 -200.32722519 311.67349806 -196 317 C-195.3915625 317.81339844 -194.783125 318.62679688 -194.15625 319.46484375 C-185.98991924 329.06620003 -174.69888353 335.65787502 -163 340 C-162.27151855 340.27666504 -161.54303711 340.55333008 -160.79248047 340.83837891 C-153.72615015 343.25968885 -147.04687579 343.4498844 -139.625 343.375 C-138.48289063 343.38660156 -137.34078125 343.39820313 -136.1640625 343.41015625 C-126.05654854 343.37569882 -116.85906619 341.52292462 -107.5625 337.5 C-106.61503906 337.0978125 -105.66757813 336.695625 -104.69140625 336.28125 C-101.95605138 335.04124268 -101.95605138 335.04124268 -99.375 333.36328125 C-96.10507934 331.48630377 -93.71023581 331.66270584 -90 332 C-86.74945519 332.98157635 -85.98640972 334.02163683 -84.14404297 336.95483398 C-83.49804841 338.21247393 -82.86488987 339.47675969 -82.2421875 340.74609375 C-81.89763016 341.42428162 -81.55307281 342.10246948 -81.19807434 342.8012085 C-80.0796399 345.00806305 -78.97754577 347.22267145 -77.875 349.4375 C-77.10523536 350.96135724 -76.33415285 352.48454946 -75.56176758 354.00708008 C-74.04483688 356.99915026 -72.53273153 359.99356777 -71.02490234 362.99023438 C-67.52840851 369.92854187 -63.90557272 376.79847373 -60.24511719 383.65136719 C-58.80596977 386.36599428 -57.39267759 389.09360374 -55.9765625 391.8203125 C-54.92264664 393.81811559 -53.86797044 395.81551778 -52.8125 397.8125 C-52.33707764 398.73893311 -51.86165527 399.66536621 -51.37182617 400.61987305 C-47.83079868 407.25158511 -43.99779637 412.08801043 -37.125 415.375 C-30.43604802 416.7127904 -24.91228891 416.74516561 -18.85546875 413.3359375 C-13.99970458 409.8397873 -10.94693018 405.62603395 -9 400 C-8.71087489 397.43259563 -8.71087489 397.43259563 -8.76049805 394.73828125 C-8.75676682 393.71371826 -8.75303558 392.68915527 -8.74919128 391.63354492 C-8.75539238 389.98962769 -8.75539238 389.98962769 -8.76171875 388.3125 C-8.74630498 385.98176497 -8.73000179 383.65103569 -8.71289062 381.3203125 C-8.69640973 377.65319135 -8.68752599 373.98649125 -8.69458008 370.31933594 C-8.69719537 366.77490678 -8.66911849 363.23175831 -8.63671875 359.6875 C-8.64692551 358.59155518 -8.65713226 357.49561035 -8.66764832 356.36645508 C-8.57003667 348.78293614 -8.57003667 348.78293614 -5.68530273 344.82080078 C-2.30840342 342.53105489 0.65990011 342.12087576 4.625 341.875 C6.05786029 341.74029221 7.49017399 341.59964126 8.921875 341.453125 C9.96698242 341.34774414 9.96698242 341.34774414 11.03320312 341.24023438 C15.50478666 340.69405287 19.73815589 339.41618221 24 338 C24.81597656 337.73574219 25.63195312 337.47148437 26.47265625 337.19921875 C43.18236418 331.1879609 57.23326905 318.24026443 65.7578125 302.8203125 C67.20153921 300.05604253 67.20153921 300.05604253 67 297 C65.72769531 296.85304688 65.72769531 296.85304688 64.4296875 296.703125 C43.90543088 294.08684613 26.33343229 287.13231343 11 273 C10.3090625 272.40058594 9.618125 271.80117188 8.90625 271.18359375 C1.79066351 264.64685457 -7.44435931 254.39946876 -7.9375 244.3125 C-7.54586673 240.99740711 -7.04700519 240.05806524 -4.875 237.375 C-1.51833085 235.76963649 0.32296436 235.46376564 4 236 C8.12923399 238.01599964 9.9445871 240.03310007 12.1875 244 C22.22834368 260.33253114 36.67798283 270.06137339 54.625 276.25 C73.92805804 280.53956845 94.7271221 278.09818106 111.75 267.75 C129.0656181 255.97741383 141.04282871 239.66230254 145.34375 219.0703125 C148.84637441 199.41983632 144.02108357 180.85818042 133.2734375 164.34765625 C131.61585289 162.11266657 129.87421049 160.05621026 128 158 C127.27296875 157.18144531 126.5459375 156.36289063 125.796875 155.51953125 C118.74987543 148.00652042 110.93984356 142.92739307 101.7265625 138.38671875 C98.73722943 136.86635594 97.49569583 135.99139166 96 133 C95.61726654 129.09611872 96.00593756 125.80990086 97 122.0625 C101.14204702 104.35374826 96.17713229 86.24394116 87.18896484 70.88867188 C76.2876521 53.57192539 59.55239239 43.1242381 40 38 C20.13843048 34.38880554 1.86824635 38.14648835 -15 49 C-17.91218651 51.10882472 -20.75701703 53.24905033 -23.53515625 55.53125 C-26.60568688 57.36091643 -28.4802128 57.41240013 -32 57 C-34.69990662 55.20006226 -36.5418865 53.916227 -38 51 C-38.35242471 47.26429809 -38.45397596 44.82541084 -36.625 41.5 C-28.07291156 33.35515386 -17.41513237 28.32839139 -7 23 C-18.55971238 9.10907895 -34.04022934 0.47129789 -52 -2 C-73.64477933 -3.90310518 -93.05125676 1.74372335 -109.625 15.9375 Z " fill="#FF5D7F" transform="translate(346,49)"/>
<path d="M0 0 C11.05852877 8.33777963 19.33656685 19.2043732 22 33 C22.80439518 41.60970286 22.82978992 50.76382197 20 59 C19.53980469 60.39412109 19.53980469 60.39412109 19.0703125 61.81640625 C13.91855658 75.72614722 4.36264154 85.27012698 -9 91.4375 C-12.66108787 93 -12.66108787 93 -15 93 C-14.97905273 93.59425781 -14.95810547 94.18851562 -14.93652344 94.80078125 C-14.85258146 97.53367705 -14.80109719 100.26630057 -14.75 103 C-14.71648437 103.93457031 -14.68296875 104.86914062 -14.6484375 105.83203125 C-14.56095828 112.08679562 -15.28845126 116.84174107 -19 122 C-22.3968916 124.96965369 -26.21705729 125.8920079 -30.625 126.5 C-35.89155748 125.71976926 -38.80195881 123.32755916 -42.3125 119.4375 C-46.21624754 113.79875355 -45.33918387 107.17002175 -45.4375 100.5625 C-45.48326172 99.34111328 -45.52902344 98.11972656 -45.57617188 96.86132812 C-45.6953632 87.12391539 -43.52713234 79.38805747 -37.17700195 71.83032227 C-33.30248416 67.89037369 -28.95954706 66.04452313 -23.875 64 C-16.62526549 61.08147733 -13.0802463 58.16049261 -9.625 51.25 C-8.1006155 43.32320057 -8.09827634 36.83705001 -12.51171875 29.875 C-16.43772077 24.92885572 -21.92395608 22.50096629 -28.09765625 21.7421875 C-33.89767841 21.4437301 -38.26869613 22.59346121 -43 26 C-48.62592349 31.26416788 -50.91696554 36.29101345 -51.8125 43.9375 C-52.69178123 49.52230969 -53.76078836 52.25371995 -58 56 C-62.25552508 58.60059866 -67.14823937 58.68576122 -72 58 C-76.81852225 55.63619663 -79.67076821 52.83763525 -82 48 C-82.47690264 44.60802996 -82.31119448 41.40338092 -82 38 C-81.92910156 37.14277344 -81.85820312 36.28554687 -81.78515625 35.40234375 C-80.09759464 22.52757598 -73.14484889 10.67608022 -63.0546875 2.66015625 C-56.51085286 -2.21207525 -49.89934212 -5.78449169 -42 -8 C-41.37222656 -8.19078125 -40.74445313 -8.3815625 -40.09765625 -8.578125 C-26.16389701 -11.38044529 -11.81360862 -7.40694509 0 0 Z " fill="#FFFEFE" transform="translate(286,148)"/>
<path d="M0 0 C3.40362822 2.55676668 6.0255493 4.59887083 8.40234375 8.1640625 C9.07157452 15.07944712 9.07157452 15.07944712 6.58984375 19.1015625 C3.64312127 21.87990084 0.59045092 22.74491141 -3.4609375 22.7109375 C-6.4563033 21.94429909 -8.33942966 20.35408998 -10.78515625 18.4765625 C-21.53553113 10.25310998 -31.31071587 7.92358051 -44.59765625 9.1640625 C-55.03841708 10.88537712 -65.09467133 16.7899357 -71.59765625 25.1640625 C-73.47534095 28.22723458 -75.23512305 31.31996665 -76.921875 34.4921875 C-78.6084467 37.18126686 -79.8768573 38.572952 -82.59765625 40.1640625 C-87.05596582 40.82455281 -89.08742376 40.45164809 -93.03515625 38.2265625 C-96.00155429 34.68135509 -96.44386381 33.1067706 -96.109375 28.6171875 C-93.45954385 15.91418017 -83.06401755 5.12238822 -72.59765625 -1.8359375 C-49.15718678 -15.3938397 -22.53584955 -15.92759292 0 0 Z " fill="#FF5D7F" transform="translate(420.59765625,214.8359375)"/>
<path d="M0 0 C1.19206055 -0.01160156 1.19206055 -0.01160156 2.40820312 -0.0234375 C18.38051986 0.02854726 32.89605623 6.33289295 44.578125 17.109375 C47.15371987 19.82939575 48.4210621 21.61995846 49.25 25.3125 C48.28669559 29.42843703 46.51231618 31.2299501 43.5625 34.25 C40.44503403 35.80873298 38.00699729 35.55233832 34.5625 35.25 C31.60546875 33.421875 31.60546875 33.421875 28.75 31 C23.59632099 26.88740294 18.85924254 24.1663999 12.5625 22.25 C11.96566406 22.06050781 11.36882812 21.87101562 10.75390625 21.67578125 C0.01412154 19.58908511 -11.43186545 20.67738687 -20.67578125 26.7109375 C-22.64550421 28.17246452 -24.54805213 29.6866073 -26.4375 31.25 C-29.84809903 33.89495435 -31.71359035 35.14839865 -36 35.75 C-39.99350168 35.16912703 -41.61272831 34.07477169 -44.4375 31.25 C-46.05913347 28.00673307 -45.99002968 24.75593236 -45.4375 21.25 C-38.95128209 10.65584407 -25.06632521 4.55820865 -13.62890625 1.09765625 C-9.08088813 0.03178238 -4.65338117 -0.04506907 0 0 Z " fill="#FF5D7F" transform="translate(123.4375,158.75)"/>
<path d="M0 0 C3.62011046 2.33296007 5.89022378 4.96794755 7.8125 8.8125 C8.3451579 14.99133163 7.74947116 19.82787545 3.8125 24.8125 C0.16712503 27.62758349 -3.27958481 28.68727032 -7.8125 29.3125 C-13.07905748 28.53226926 -15.98945881 26.14005916 -19.5 22.25 C-22.36496756 18.11171352 -22.6743879 14.76252698 -22.1875 9.8125 C-20.28431227 5.16121161 -18.15443729 2.38549987 -13.8125 -0.1875 C-8.67860193 -1.60374774 -5.02901839 -1.87355587 0 0 Z " fill="#FFFDFD" transform="translate(263.1875,296.1875)"/>
</svg>
