<?xml version="1.0" encoding="UTF-8"?>
<svg version="1.1" xmlns="http://www.w3.org/2000/svg" width="512" height="512">
<path d="M0 0 C0.82419434 0.20399414 1.64838867 0.40798828 2.49755859 0.61816406 C14.5205156 3.6387424 25.87695934 7.52799531 37 13 C37.63099609 13.30663574 38.26199219 13.61327148 38.91210938 13.92919922 C51.79086973 20.26027178 63.28902933 28.12659236 73.78125 37.9375 C75.75737093 39.77445749 77.78954621 41.47811165 79.875 43.1875 C108.09079391 67.93320635 125.27208221 107.2151116 129 144 C129.11008138 146.6829834 129.18599089 149.34077377 129.203125 152.0234375 C129.21018463 152.76263931 129.21724426 153.50184113 129.22451782 154.26344299 C129.44902779 184.65942081 129.44902779 184.65942081 126 198 C125.80132324 198.81355957 125.60264648 199.62711914 125.39794922 200.46533203 C119.49369958 224.3078862 109.07034736 245.63473071 94 265 C75.31914948 289.65424823 63.26026673 317.41493632 60.88671875 348.5 C60.80267288 349.57509827 60.71862701 350.65019653 60.6320343 351.75787354 C60.06477042 359.62693928 59.82463274 367.47131668 59.76171875 375.359375 C59.75277588 376.46218811 59.74383301 377.56500122 59.73461914 378.70123291 C59.70544798 383.19285377 59.68529702 387.68406124 59.69458008 392.17578125 C59.70896412 410.48274133 58.63618279 423.97869532 45.34765625 437.70703125 C42.11190364 440.71437779 38.73614468 442.73567385 34.76953125 444.671875 C33.87468018 445.11112305 32.9798291 445.55037109 32.05786133 446.00292969 C31.03921997 446.49647949 31.03921997 446.49647949 30 447 C29.98598145 448.56512329 29.98598145 448.56512329 29.97167969 450.16186523 C29.93150284 454.07048664 29.86567068 457.97834362 29.79248047 461.88647461 C29.76443016 463.57094426 29.7431371 465.25554164 29.72900391 466.94018555 C29.56943733 484.89142549 29.56943733 484.89142549 25 492 C24.55503174 492.71454346 24.11006348 493.42908691 23.65161133 494.1652832 C18.52306127 502.03808322 11.02152118 506.80664442 2 509 C-0.61023314 509.18843429 -3.11319682 509.29399866 -5.72021484 509.29052734 C-6.82660057 509.30060318 -6.82660057 509.30060318 -7.95533752 509.31088257 C-10.37394091 509.3297537 -12.79226525 509.33378104 -15.2109375 509.3359375 C-16.90573232 509.34237244 -18.60052605 509.34910131 -20.2953186 509.35610962 C-23.84078546 509.36805476 -27.38615508 509.37179324 -30.93164062 509.37060547 C-35.45630035 509.37040231 -39.9803318 509.39771348 -44.50484276 509.43214989 C-48.00347716 509.45447556 -51.50196162 509.4584413 -55.00065994 509.45738602 C-56.66789542 509.4597331 -58.3351356 509.46850588 -60.00230026 509.48405075 C-76.71176825 509.62528485 -76.71176825 509.62528485 -84 505 C-84.7159433 504.55457855 -85.4318866 504.1091571 -86.16952515 503.65023804 C-93.56120894 498.82984553 -98.65319617 491.45020858 -101 483 C-101.2278657 480.15150425 -101.3705495 477.38872743 -101.4140625 474.5390625 C-101.43342865 473.74849457 -101.4527948 472.95792664 -101.4727478 472.1434021 C-101.53216053 469.63737517 -101.57877427 467.13130135 -101.625 464.625 C-101.66321513 462.91794957 -101.70226889 461.21091769 -101.7421875 459.50390625 C-101.83783011 455.33608956 -101.92200115 451.1681827 -102 447 C-102.6609668 446.68764404 -103.32193359 446.37528809 -104.00292969 446.0534668 C-116.28346939 440.10978443 -124.75418133 431.97174263 -129.55078125 419.0390625 C-131.34866947 413.55464063 -131.44075069 408.35655541 -131.44140625 402.625 C-131.46121803 401.00174805 -131.46121803 401.00174805 -131.48143005 399.34570312 C-131.52205216 395.89711037 -131.54385666 392.44877607 -131.5625 389 C-131.65890246 375.4724957 -131.84199529 361.99684191 -132.88671875 348.50390625 C-132.96144913 347.50862915 -133.0361795 346.51335205 -133.11317444 345.48791504 C-135.72892923 314.6508462 -149.09313095 286.55071325 -168.0625 262.5 C-187.69507645 237.50021686 -200.99893694 203.94601148 -201.203125 171.9765625 C-201.21018463 171.23736069 -201.21724426 170.49815887 -201.22451782 169.73655701 C-201.44939893 139.29033117 -201.44939893 139.29033117 -198 126 C-197.79600586 125.17580566 -197.59201172 124.35161133 -197.38183594 123.50244141 C-194.3612576 111.4794844 -190.47200469 100.12304066 -185 89 C-184.69336426 88.36900391 -184.38672852 87.73800781 -184.07080078 87.08789062 C-177.73972822 74.20913027 -169.87340764 62.71097067 -160.0625 52.21875 C-158.22554251 50.24262907 -156.52188835 48.21045379 -154.8125 46.125 C-118.68577798 4.93223191 -52.71754464 -13.68241617 0 0 Z " fill="#FEF160" transform="translate(292,3)"/>
<path d="M0 0 C26.07651996 0 49.60515103 4.49085182 73 16 C73.63099609 16.30663574 74.26199219 16.61327148 74.91210938 16.92919922 C87.79086973 23.26027178 99.28902933 31.12659236 109.78125 40.9375 C111.75737093 42.77445749 113.78954621 44.47811165 115.875 46.1875 C144.09079391 70.93320635 161.27208221 110.2151116 165 147 C165.11008138 149.6829834 165.18599089 152.34077377 165.203125 155.0234375 C165.21018463 155.76263931 165.21724426 156.50184113 165.22451782 157.26344299 C165.44902779 187.65942081 165.44902779 187.65942081 162 201 C161.80132324 201.81355957 161.60264648 202.62711914 161.39794922 203.46533203 C155.49369958 227.3078862 145.07034736 248.63473071 130 268 C107.42460208 297.79411798 99.010571 327.36786252 96 365 C64.32 365 32.64 365 0 365 C0 330.35 0 295.7 0 260 C2.97 259.01 5.94 258.02 9 257 C12.75463157 253.24536843 14.13999735 249.94429133 14.3125 244.6875 C14.244793 240.06085507 13.16491776 237.498067 10 234 C6.60821712 231.95079785 3.85857346 230.96464337 0 230 C0 220.1 0 210.2 0 200 C2.97 199.01 5.94 198.02 9 197 C13.26435466 192.73564534 14.05812122 189.32944608 14.23803711 183.40209961 C14.66834285 170.96555819 14.66834285 170.96555819 19 166 C21.43111529 164.1406627 23.92443404 162.42554167 26.47265625 160.73046875 C35.82727542 154.32537402 41.04823217 144.86787245 44 134 C45.54599968 121.17767452 43.71876791 109.47340226 36.25 98.6875 C25.93065574 86.27285742 15.86752818 82.64458803 0 80 C0 53.6 0 27.2 0 0 Z " fill="#FECD00" transform="translate(256,0)"/>
<path d="M0 0 C62.7 0 125.4 0 190 0 C190 61.60283688 190 61.60283688 176.34765625 75.70703125 C173.11190364 78.71437779 169.73614468 80.73567385 165.76953125 82.671875 C164.87468018 83.11112305 163.9798291 83.55037109 163.05786133 84.00292969 C162.03921997 84.49647949 162.03921997 84.49647949 161 85 C160.98598145 86.56512329 160.98598145 86.56512329 160.97167969 88.16186523 C160.93150284 92.07048664 160.86567068 95.97834362 160.79248047 99.88647461 C160.76443016 101.57094426 160.7431371 103.25554164 160.72900391 104.94018555 C160.56943733 122.89142549 160.56943733 122.89142549 156 130 C155.55503174 130.71454346 155.11006348 131.42908691 154.65161133 132.1652832 C149.52306127 140.03808322 142.02152118 144.80664442 133 147 C130.38976686 147.18843429 127.88680318 147.29399866 125.27978516 147.29052734 C124.54219467 147.29724457 123.80460419 147.30396179 123.04466248 147.31088257 C120.62605909 147.3297537 118.20773475 147.33378104 115.7890625 147.3359375 C114.09426768 147.34237244 112.39947395 147.34910131 110.7046814 147.35610962 C107.15921454 147.36805476 103.61384492 147.37179324 100.06835938 147.37060547 C95.54369965 147.37040231 91.0196682 147.39771348 86.49515724 147.43214989 C82.99652284 147.45447556 79.49803838 147.4584413 75.99934006 147.45738602 C74.33210458 147.4597331 72.6648644 147.46850588 70.99769974 147.48405075 C54.28823175 147.62528485 54.28823175 147.62528485 47 143 C46.2840567 142.55457855 45.5681134 142.1091571 44.83047485 141.65023804 C37.43879106 136.82984553 32.34680383 129.45020858 30 121 C29.7721343 118.15150425 29.6294505 115.38872743 29.5859375 112.5390625 C29.56657135 111.74849457 29.5472052 110.95792664 29.5272522 110.1434021 C29.46783947 107.63737517 29.42122573 105.13130135 29.375 102.625 C29.33678487 100.91794957 29.29773111 99.21091769 29.2578125 97.50390625 C29.16216989 93.33608956 29.07799885 89.1681827 29 85 C28.3390332 84.68764404 27.67806641 84.37528809 26.99707031 84.0534668 C16.25005073 78.85199583 8.04182775 72.05746647 3 61 C-3.43773597 41.68679208 0 20.35790865 0 0 Z " fill="#00465F" transform="translate(161,365)"/>
<path d="M0 0 C31.35 0 62.7 0 95 0 C95 28.71 95 57.42 95 87 C81.26375 87.0928125 81.26375 87.0928125 67.25 87.1875 C64.38344727 87.21481201 61.51689453 87.24212402 58.56347656 87.27026367 C56.25586364 87.27903696 53.94824603 87.2866789 51.640625 87.29296875 C50.47128418 87.30831665 49.30194336 87.32366455 48.09716797 87.33947754 C34.30216756 87.3438047 23.11676883 84.32900617 12.74609375 74.96484375 C5.41178572 67.29652548 -0.13964959 57.53563227 -0.11352539 46.77246094 C-0.11340454 45.71720215 -0.11328369 44.66194336 -0.11315918 43.57470703 C-0.10804321 42.47239746 -0.10292725 41.37008789 -0.09765625 40.234375 C-0.09664917 39.21617676 -0.09564209 38.19797852 -0.09460449 37.14892578 C-0.08937665 33.34927238 -0.07541538 29.54963505 -0.0625 25.75 C-0.041875 17.2525 -0.02125 8.755 0 0 Z " fill="#09607C" transform="translate(161,365)"/>
<path d="M0 0 C1.0858287 0.16233124 2.17165741 0.32466248 3.29039001 0.49191284 C8.64539885 1.1566094 13.96427482 1.13992931 19.35375977 1.12939453 C21.02113693 1.13202301 21.02113693 1.13202301 22.72219849 1.13470459 C26.37861718 1.13908827 30.0349871 1.13619758 33.69140625 1.1328125 C36.24153147 1.13348649 38.79165662 1.13445731 41.34178162 1.13571167 C46.67862623 1.13718388 52.01545352 1.13514532 57.35229492 1.13037109 C63.50872139 1.12492704 69.66511474 1.12669502 75.82154042 1.1321975 C81.76317529 1.13729394 87.70479994 1.13673978 93.64643669 1.13381577 C96.1665847 1.13314952 98.68673355 1.13396435 101.20688057 1.13629532 C104.72982131 1.13883914 108.25269873 1.13495691 111.77563477 1.12939453 C112.81323441 1.13141876 113.85083405 1.13344299 114.9198761 1.13552856 C120.05605881 1.12053085 124.93870483 0.88966818 130 0 C130.09961748 4.96210007 130.1718178 9.9236054 130.21972656 14.88647461 C130.23971886 16.57114821 130.26692223 18.25575351 130.30175781 19.94018555 C130.66280414 37.85976426 130.66280414 37.85976426 126 45 C125.55438721 45.71454346 125.10877441 46.42908691 124.6496582 47.1652832 C119.52764712 55.0400932 112.01803117 59.80749293 103 62 C100.38976686 62.18843429 97.88680318 62.29399866 95.27978516 62.29052734 C94.54219467 62.29724457 93.80460419 62.30396179 93.04466248 62.31088257 C90.62605909 62.3297537 88.20773475 62.33378104 85.7890625 62.3359375 C84.09426768 62.34237244 82.39947395 62.34910131 80.7046814 62.35610962 C77.15921454 62.36805476 73.61384492 62.37179324 70.06835938 62.37060547 C65.54369965 62.37040231 61.0196682 62.39771348 56.49515724 62.43214989 C52.99652284 62.45447556 49.49803838 62.4584413 45.99934006 62.45738602 C44.33210458 62.4597331 42.6648644 62.46850588 40.99769974 62.48405075 C24.28823175 62.62528485 24.28823175 62.62528485 17 58 C16.2840567 57.55457855 15.5681134 57.1091571 14.83047485 56.65023804 C7.45630282 51.8412656 2.31152688 44.44662287 0 36 C-0.16273122 33.14327959 -0.23423027 30.39114659 -0.1953125 27.5390625 C-0.1924826 26.74849457 -0.18965271 25.95792664 -0.18673706 25.1434021 C-0.17560955 22.63710916 -0.15051926 20.13118355 -0.125 17.625 C-0.11496058 15.91797394 -0.10583641 14.21094223 -0.09765625 12.50390625 C-0.07569463 8.3357976 -0.04121671 4.16796092 0 0 Z " fill="#00455E" transform="translate(191,450)"/>
<path d="M0 0 C9.18893764 7.38550128 16.86294946 17.51326468 18.32519531 29.62988281 C19.16817647 42.77189849 17.32236417 54.44225842 8.68359375 64.91015625 C8.15765625 65.49410156 7.63171875 66.07804687 7.08984375 66.6796875 C6.54328125 67.29457031 5.99671875 67.90945312 5.43359375 68.54296875 C1.93167556 72.25977737 -1.56840272 74.91002618 -6.11328125 77.24609375 C-8.78746583 79.37962797 -9.67868287 81.50085411 -10.91015625 84.6796875 C-11.19552707 87.40168614 -11.37435937 89.95912496 -11.41015625 92.6796875 C-11.48042511 98.02012057 -12.05659617 102.03579285 -14.91015625 106.6796875 C-19.24389677 110.68839748 -22.74016536 112.11874178 -28.71484375 112.01953125 C-32.7287516 111.39816117 -36.06433541 109.55074843 -38.91015625 106.6796875 C-41.93369599 101.18611644 -42.39276394 96.57070917 -42.28515625 90.3671875 C-42.27500488 89.52486572 -42.26485352 88.68254395 -42.25439453 87.81469727 C-41.90373571 73.75436594 -36.33354253 63.41192299 -26.22265625 53.7109375 C-24.06507773 51.81576718 -21.86366364 50.10758253 -19.53515625 48.4296875 C-16.42156594 46.16582204 -14.34751366 44.36291585 -12.91015625 40.6796875 C-12.33957788 35.44938574 -13.06067519 32.10129604 -15.91015625 27.6796875 C-19.53512709 23.61532626 -23.15473487 22.84041369 -28.40625 22.51953125 C-32.62388406 22.78930192 -34.5908107 24.03775941 -37.91015625 26.6796875 C-40.35255201 30.21695032 -41.11102037 33.52206467 -41.84765625 37.6796875 C-42.68484634 42.16945694 -43.78183378 45.21316801 -46.91015625 48.6796875 C-51.64964357 51.36241617 -55.49760929 52.43934321 -60.91015625 51.6796875 C-65.45321686 49.79024455 -68.28378621 47.67796475 -70.91015625 43.4921875 C-73.61679605 33.17312326 -71.47945213 23.23572579 -66.40234375 13.91015625 C-59.36469845 3.25548859 -49.04936649 -5.37998189 -36.2890625 -8.03515625 C-22.92356801 -9.63725986 -11.03660701 -8.0229946 0 0 Z " fill="#01475E" transform="translate(282.91015625,88.3203125)"/>
<path d="M0 0 C0.09961748 4.96210007 0.1718178 9.9236054 0.21972656 14.88647461 C0.23971886 16.57114821 0.26692223 18.25575351 0.30175781 19.94018555 C0.66280414 37.85976426 0.66280414 37.85976426 -4 45 C-4.44561279 45.71454346 -4.89122559 46.42908691 -5.3503418 47.1652832 C-9.92977606 54.20591122 -16.87926803 59.37066173 -24.97831726 61.59225464 C-28.63780093 62.33032173 -32.27652496 62.2438145 -35.99609375 62.1953125 C-36.73605591 62.19329834 -37.47601807 62.19128418 -38.23840332 62.18920898 C-40.97149967 62.17883777 -43.70450684 62.15091602 -46.4375 62.125 C-52.563125 62.08375 -58.68875 62.0425 -65 62 C-65 42.2 -65 22.4 -65 2 C-36.25 1.5625 -36.25 1.5625 -27.18457031 1.43188477 C-24.81574922 1.393762 -22.44693367 1.35529288 -20.078125 1.31640625 C-18.84626465 1.29993042 -17.6144043 1.28345459 -16.34521484 1.26647949 C-14.57960205 1.23620667 -14.57960205 1.23620667 -12.77832031 1.20532227 C-11.24609833 1.18200584 -11.24609833 1.18200584 -9.68292236 1.15821838 C-6.33275646 0.96065104 -3.36188461 0 0 0 Z " fill="#002C3C" transform="translate(321,450)"/>
<path d="M0 0 C0 9.9 0 19.8 0 30 C-2.64 30.99 -5.28 31.98 -8 33 C-13.63141738 36.75427826 -13.99193159 41.64770416 -15.26953125 47.89453125 C-16.22301785 51.948124 -17.13937557 53.98045199 -20 57 C-24.73948732 59.68272867 -28.58745304 60.75965571 -34 60 C-38.54306061 58.11055705 -41.37362996 55.99827725 -44 51.8125 C-46.7066398 41.49343576 -44.56929588 31.55603829 -39.4921875 22.23046875 C-32.52815102 11.68724143 -23.05059116 4.1132205 -10.8125 0.6875 C-7 0 -7 0 0 0 Z " fill="#0C627C" transform="translate(256,80)"/>
<path d="M0 0 C1.94873876 0.74979671 3.90543944 1.47507465 5.86401367 2.19873047 C19.86694626 7.4739928 19.86694626 7.4739928 23.63549805 13.81201172 C24.81664535 18.89094511 24.84359318 22.90367241 23.07299805 27.74951172 C19.61382809 32.99790752 15.91542887 35.08309252 9.90014648 36.33496094 C4.76031086 36.65536874 0.20469104 34.70130693 -4.55200195 32.93701172 C-6.14105347 32.37264404 -6.14105347 32.37264404 -7.76220703 31.796875 C-10.76376357 30.7209804 -13.75188194 29.61338705 -16.73950195 28.49951172 C-18.09073942 28.01812961 -19.44224416 27.53749605 -20.79418945 27.05810547 C-26.68991914 24.83066645 -30.34108177 22.89010926 -33.73950195 17.49951172 C-35.09632644 13.42903825 -35.26422449 9.75559455 -34.73950195 5.49951172 C-32.50536953 1.11399252 -29.8106271 -1.75247881 -25.73950195 -4.50048828 C-16.97361571 -7.30074847 -8.12804343 -3.13951709 0 0 Z " fill="#FFCD00" transform="translate(473.739501953125,226.50048828125)"/>
<path d="M0 0 C4.12260003 2.55993831 7.18273512 5.4482658 9 10 C9.78671167 15.61936904 9.22202478 20.22251498 6 25 C2.33547714 28.34190419 -1.16409607 30.06554822 -5.8046875 31.76171875 C-6.76799484 32.1159063 -6.76799484 32.1159063 -7.75076294 32.47724915 C-9.10218359 32.97162156 -10.45532409 33.46131542 -11.81005859 33.9465332 C-13.86639191 34.68441114 -15.91573037 35.43959993 -17.96484375 36.19726562 C-34.61767516 42.25806212 -34.61767516 42.25806212 -42.13671875 39.08984375 C-46.15730904 36.73817773 -48.52853728 33.41438815 -50 29 C-50.3684431 23.38124276 -50.19190228 19.84288621 -47 15 C-42.34404821 10.32468874 -36.32382781 8.62304605 -30.25 6.4375 C-29.20328125 6.05142578 -28.1565625 5.66535156 -27.078125 5.26757812 C-24.05841552 4.15972221 -21.03142027 3.07534353 -18 2 C-17.13906738 1.68893311 -16.27813477 1.37786621 -15.39111328 1.05737305 C-14.60978027 0.78320557 -13.82844727 0.50903809 -13.0234375 0.2265625 C-12.35231934 -0.0111084 -11.68120117 -0.2487793 -10.98974609 -0.49365234 C-7.19462077 -1.45943025 -3.69946786 -1.2264174 0 0 Z " fill="#FFF261" transform="translate(64,222)"/>
<path d="M0 0 C3.31743292 2.57121329 5.27352094 4.84449942 6.22265625 8.92578125 C6.66984689 14.56038331 6.41986641 18.07484169 3.22265625 22.92578125 C-1.43329554 27.60109251 -7.45351594 29.3027352 -13.52734375 31.48828125 C-14.5740625 31.87435547 -15.62078125 32.26042969 -16.69921875 32.65820312 C-19.71892823 33.76605904 -22.74592348 34.85043772 -25.77734375 35.92578125 C-26.63827637 36.23684814 -27.49920898 36.54791504 -28.38623047 36.8684082 C-29.16756348 37.14257568 -29.94889648 37.41674316 -30.75390625 37.69921875 C-31.42502441 37.93688965 -32.09614258 38.17456055 -32.78759766 38.41943359 C-36.58272298 39.3852115 -40.07787589 39.15219865 -43.77734375 37.92578125 C-47.89994378 35.36584294 -50.96007887 32.47751545 -52.77734375 27.92578125 C-53.56405542 22.30641221 -52.99936853 17.70326627 -49.77734375 12.92578125 C-46.09390543 9.55986652 -42.5763461 7.85430488 -37.90234375 6.1640625 C-37.25539551 5.92793747 -36.60844727 5.69181244 -35.94189453 5.4485321 C-34.5820346 4.95426034 -33.22050391 4.46456339 -31.85742188 3.97924805 C-29.78000701 3.23922996 -27.70812559 2.48516815 -25.63671875 1.72851562 C-7.8142082 -4.72287309 -7.8142082 -4.72287309 0 0 Z " fill="#FFCD00" transform="translate(491.77734375,70.07421875)"/>
<path d="M0 0 C1.78857422 0.63905273 1.78857422 0.63905273 3.61328125 1.29101562 C16.78588539 6.15531246 16.78588539 6.15531246 20.625 12.4375 C21.87157854 17.92244558 22.15449589 22.41200806 19.5625 27.5 C15.37010713 32.37224036 12.56366936 34.65636079 5.96313477 35.27905273 C0.45329077 35.09312711 -4.56673414 32.96104532 -9.6875 31.0625 C-10.80318359 30.670625 -11.91886719 30.27875 -13.06835938 29.875 C-32.73263115 22.82489202 -32.73263115 22.82489202 -36.75 16.1875 C-38.426194 11.15891801 -38.35642735 6.84719589 -36.5625 1.9375 C-33.96470106 -2.00398804 -31.23580523 -4.05232058 -27.0625 -6.1875 C-18.02611158 -7.89247895 -8.32176571 -3.09445724 0 0 Z " fill="#FFF261" transform="translate(51.75,73.8125)"/>
<path d="M0 0 C0.91092911 -0.00524185 1.82185822 -0.0104837 2.76039124 -0.0158844 C4.68261701 -0.02229391 6.60488207 -0.02098148 8.52709961 -0.01245117 C11.45953608 -0.00394431 14.39002157 -0.03271196 17.32226562 -0.06445312 C19.19400984 -0.06606545 21.06575748 -0.06548702 22.9375 -0.0625 C23.80954575 -0.07373398 24.68159149 -0.08496796 25.58006287 -0.09654236 C31.05135915 -0.03427472 34.19909883 0.78346157 38.53515625 4.43359375 C42.59146023 9.65619232 42.30913169 15.08699517 41.53515625 21.43359375 C39.36231821 26.02069627 37.0980721 28.30503943 32.53515625 30.43359375 C29.37932795 30.8790101 26.25358663 30.8778788 23.0703125 30.8671875 C22.15938339 30.87242935 21.24845428 30.8776712 20.30992126 30.8830719 C18.38769549 30.88948141 16.46543043 30.88816898 14.54321289 30.87963867 C11.61077642 30.87113181 8.68029093 30.89989946 5.74804688 30.93164062 C3.87630266 30.93325295 2.00455502 30.93267452 0.1328125 30.9296875 C-0.73923325 30.94092148 -1.61127899 30.95215546 -2.50975037 30.96372986 C-7.98104665 30.90146222 -11.12878633 30.08372593 -15.46484375 26.43359375 C-19.52114773 21.21099518 -19.23881919 15.78019233 -18.46484375 9.43359375 C-14.42692708 0.90910299 -8.62686886 -0.02897407 0 0 Z " fill="#FFCD00" transform="translate(470.46484375,149.56640625)"/>
<path d="M0 0 C0.91092911 -0.00524185 1.82185822 -0.0104837 2.76039124 -0.0158844 C4.68261701 -0.02229391 6.60488207 -0.02098148 8.52709961 -0.01245117 C11.45953608 -0.00394431 14.39002157 -0.03271196 17.32226562 -0.06445312 C19.19400984 -0.06606545 21.06575748 -0.06548702 22.9375 -0.0625 C23.80954575 -0.07373398 24.68159149 -0.08496796 25.58006287 -0.09654236 C31.05135915 -0.03427472 34.19909883 0.78346157 38.53515625 4.43359375 C42.59146023 9.65619232 42.30913169 15.08699517 41.53515625 21.43359375 C39.36231821 26.02069627 37.0980721 28.30503943 32.53515625 30.43359375 C29.37932795 30.8790101 26.25358663 30.8778788 23.0703125 30.8671875 C22.15938339 30.87242935 21.24845428 30.8776712 20.30992126 30.8830719 C18.38769549 30.88948141 16.46543043 30.88816898 14.54321289 30.87963867 C11.61077642 30.87113181 8.68029093 30.89989946 5.74804688 30.93164062 C3.87630266 30.93325295 2.00455502 30.93267452 0.1328125 30.9296875 C-0.73923325 30.94092148 -1.61127899 30.95215546 -2.50975037 30.96372986 C-7.98104665 30.90146222 -11.12878633 30.08372593 -15.46484375 26.43359375 C-19.52114773 21.21099518 -19.23881919 15.78019233 -18.46484375 9.43359375 C-14.42692708 0.90910299 -8.62686886 -0.02897407 0 0 Z " fill="#FFF260" transform="translate(18.46484375,149.56640625)"/>
<path d="M0 0 C3.5677811 2.35149209 5.84221079 4.99692157 7.75 8.8125 C8.34106487 14.49581608 8.02243416 18.96027003 4.75 23.8125 C0.41625948 27.82120998 -3.08000911 29.25155428 -9.0546875 29.15234375 C-13.14536157 28.51908993 -16.2222816 26.57572806 -19.25 23.8125 C-22.03537223 19.11218437 -22.92790686 15.23575487 -22.25 9.8125 C-20.52041524 4.92230498 -17.82308574 1.77747514 -13.17578125 -0.53125 C-8.56339171 -2.10301763 -4.58443247 -1.67508109 0 0 Z " fill="#04485D" transform="translate(263.25,231.1875)"/>
<path d="M0 0 C0 18.48 0 36.96 0 56 C-5.67712142 55.0538131 -7.76786885 54.57379964 -12 51 C-14.97657316 45.47609945 -15.48280426 40.90235351 -15.375 34.6875 C-15.36484863 33.84517822 -15.35469727 33.00285645 -15.34423828 32.13500977 C-15.05555746 20.5598038 -11.40814231 10.3339218 -3.1875 1.875 C-1 0 -1 0 0 0 Z " fill="#0C627C" transform="translate(256,144)"/>
<path d="M0 0 C0 9.9 0 19.8 0 30 C-5.67712142 29.0538131 -7.76786885 28.57379964 -12 25 C-14.68705259 20.25287376 -15.67801883 16.42415066 -15 11 C-13.4875308 6.72367341 -11.37995235 3.93219133 -7.5 1.5625 C-4 0 -4 0 0 0 Z " fill="#0E637C" transform="translate(256,230)"/>
<path d="M0 0 C9.02189781 2.25547445 9.02189781 2.25547445 11.4375 5.4375 C11.91058594 6.03433594 12.38367188 6.63117188 12.87109375 7.24609375 C15.33453986 11.07338546 15.37569633 14.56678329 15 19 C12.0831048 25.23154884 6.49621093 29.05554261 1 33 C0.67 33 0.34 33 0 33 C0 22.11 0 11.22 0 0 Z " fill="#FCCB01" transform="translate(256,110)"/>
</svg>
