<?xml version="1.0" encoding="UTF-8"?>
<svg version="1.1" xmlns="http://www.w3.org/2000/svg" width="512" height="512">
<path d="M0 0 C0.93421783 0.00681793 1.86843567 0.01363586 2.83096313 0.0206604 C18.00205094 0.13488908 32.89776139 0.84781215 47.875 3.4375 C49.37353516 3.69490967 49.37353516 3.69490967 50.90234375 3.95751953 C96.34014496 12.05384112 141.64025113 31.12834188 169.10424805 69.81982422 C186.33969175 94.76249375 193.54835129 124.7115567 188.28344727 154.7421875 C185.69209068 168.18673829 180.88658309 183.86272847 172.0703125 194.64453125 C170.66683689 196.35549131 170.66683689 196.35549131 171.0078125 198.42578125 C172.0077351 200.74542151 173.25761955 202.58689833 174.75 204.625 C181.17433294 214.18428387 182.23325894 224.11237474 180.875 235.4375 C178.27254787 246.4256312 171.24597689 254.92910087 161.8125 260.9375 C155.29565083 264.50865264 149.2787938 265.74599141 141.875 265.4375 C141.75125 265.97375 141.6275 266.51 141.5 267.0625 C134.11714301 295.11735658 113.23837152 319.4012863 88.87158203 334.28564453 C74.74146884 342.4375 74.74146884 342.4375 69.875 342.4375 C70.36729034 354.21851721 71.14178087 364.15763705 78.875 373.4375 C82.3208654 375.7347436 84.65716251 376.07345855 88.73046875 376.7265625 C89.39210526 376.83471283 90.05374176 376.94286316 90.73542786 377.05429077 C92.84340683 377.39724208 94.95285113 377.72999185 97.0625 378.0625 C98.49424914 378.29359956 99.92589133 378.52536271 101.35742188 378.7578125 C104.86207425 379.32540635 108.36811236 379.88386415 111.875 380.4375 C119.28151992 368.64813669 126.65926891 356.84480445 133.875 344.9375 C139.95968795 334.90009917 146.1520574 324.93359113 152.3984375 314.99609375 C154.53800781 311.58895311 156.65195129 308.16971397 158.7265625 304.72265625 C167.44275497 290.2895507 176.64425583 279.25997369 193.33984375 274.1328125 C208.98296238 271.05604442 222.62753687 273.79481457 236.109375 282.16796875 C243.27110582 288.04503882 248.36196105 295.28701062 253.0625 303.1875 C254.19506639 305.05353481 255.32788585 306.91941605 256.4609375 308.78515625 C257.0290918 309.72762207 257.59724609 310.67008789 258.18261719 311.64111328 C260.8153125 315.99121312 263.50319876 320.30663194 266.1875 324.625 C270.38018595 331.39083293 274.55506623 338.16745321 278.72192383 344.94921875 C284.60985754 354.53208426 290.52508045 364.09610056 296.5 373.625 C301.93660923 382.29646978 307.28772826 391.01571942 312.59057617 399.76953125 C317.52678087 407.90320112 322.56199207 415.97285802 327.63867188 424.01953125 C338.73755078 441.66957566 345.78872051 455.3227415 342.37109375 476.5703125 C341.70901283 478.98407038 340.91218139 481.16157971 339.875 483.4375 C339.54628906 484.17742187 339.21757812 484.91734375 338.87890625 485.6796875 C332.41567202 498.60615596 321.73372792 506.86148661 308.29645288 511.60505664 C301.01794018 513.37592702 293.51557893 512.98852687 286.06672668 512.9521637 C284.1572714 512.95749397 282.24782032 512.96456243 280.33837718 512.97321075 C275.11105708 512.99180031 269.884021 512.9855458 264.65668929 512.97505772 C259.01179847 512.9680555 253.36696541 512.98407121 247.72209167 512.99705505 C236.67241133 513.01868128 225.62283402 513.01857197 214.57313947 513.01042951 C205.59367331 513.00412742 196.61423719 513.00526846 187.63477135 513.01170158 C185.71714627 513.01305407 185.71714627 513.01305407 183.76078128 513.01443387 C181.16367 513.01628508 178.56655872 513.01814764 175.96944746 513.02002143 C158.53765592 513.0318883 141.10588376 513.03630434 123.67409229 513.0250864 C122.65236202 513.02442945 122.65236202 513.02442945 121.60999072 513.02375922 C116.07890822 513.02015257 110.54782586 513.01631771 105.01674352 513.01246829 C83.43176976 512.99761384 61.84692249 513.00641351 40.26196289 513.03442383 C15.99913809 513.06584911 -8.26359031 513.08075531 -32.52644044 513.07062382 C-35.11303316 513.06960126 -37.6996259 513.06860665 -40.28621864 513.0676403 C-41.55886703 513.06716391 -42.83151541 513.06668752 -44.14272889 513.0661967 C-53.11346359 513.06403139 -62.08413943 513.07384258 -71.05486107 513.08841133 C-81.98399289 513.10591321 -92.9129527 513.10584764 -103.84207769 513.08305968 C-109.41880942 513.07189952 -114.99523784 513.06879556 -120.57195663 513.08736038 C-125.6762214 513.10413405 -130.77991758 513.09785608 -135.8841453 513.07314359 C-137.73118502 513.06824983 -139.57827034 513.07180442 -141.42527201 513.08463103 C-158.10743645 513.19212769 -158.10743645 513.19212769 -163.77869493 508.80213398 C-168.12804291 504.39357297 -169.36213114 501.04262257 -169.56640625 494.95703125 C-169.45506842 486.19315318 -166.92411619 478.14969574 -164.38256836 469.81860352 C-163.56889335 467.14599964 -162.78538494 464.46594123 -162.00585938 461.78320312 C-153.56174743 433.19289244 -140.66131051 409.95814807 -113.6875 395.125 C-103.15083913 389.40715331 -91.67276703 386.93656885 -79.92673111 384.97562027 C-77.82157843 384.62254227 -75.71913368 384.25607148 -73.61691284 383.88595581 C-67.65123061 382.83683727 -61.68329687 381.80204937 -55.70996094 380.79736328 C-52.02792218 380.17709295 -48.3504127 379.53425861 -44.67477036 378.87719345 C-43.28649465 378.63351901 -41.89671352 378.39825166 -40.50549698 378.17197037 C-32.7152182 376.9022524 -26.24320025 375.84175149 -21.125 369.4375 C-15.70304215 361.42599586 -16.32640619 351.77267703 -16.125 342.4375 C-17.32125 342.1075 -18.5175 341.7775 -19.75 341.4375 C-47.06469679 332.23270406 -68.76084789 308.05148454 -81.4296875 283.00390625 C-87.125 271.02275346 -87.125 271.02275346 -87.125 265.4375 C-88.218125 265.52 -89.31125 265.6025 -90.4375 265.6875 C-99.48559514 265.65552793 -108.32880562 261.20591451 -115.125 255.4375 C-123.43207699 246.86722849 -127.56212926 236.21545598 -127.40234375 224.3203125 C-126.59390981 215.9171541 -124.00776212 208.40702865 -118.19921875 202.21875 C-116.88997751 200.43299218 -116.88997751 200.43299218 -117.29296875 197.98828125 C-118.15470748 195.34642497 -119.21526192 193.43531427 -120.75 191.125 C-129.76600011 176.47399982 -135.46063472 159.71099719 -136.125 142.4375 C-136.18494141 141.21933594 -136.18494141 141.21933594 -136.24609375 139.9765625 C-137.15418807 102.69127818 -125.68223282 67.75800151 -100.2109375 40.2421875 C-73.47727068 12.22282194 -38.2607941 -0.5198 0 0 Z " fill="#010000" transform="translate(169.125,-0.4375)"/>
<path d="M0 0 C4.07118905 1.4465397 7.31011545 3.44803371 10.875 5.875 C34.87456546 21.62695603 61.12798737 31.59697007 89 38 C89.70415039 38.16193848 90.40830078 38.32387695 91.13378906 38.49072266 C104.42436726 41.47657873 118.13124443 43.80984031 131.75 44.4375 C138.77203835 44.8588223 143.49651686 46.36475459 148.375 51.5 C151.25502136 55.9308021 152.25170165 58.69414182 152.2746582 64.05932617 C152.28419022 65.28548141 152.29372223 66.51163666 152.30354309 67.77494812 C152.3032813 69.11428862 152.3023425 70.45362913 152.30078125 71.79296875 C152.30467494 73.1814232 152.30901099 74.56987648 152.31376648 75.95832825 C152.32123101 78.87614787 152.32094029 81.79384661 152.31567383 84.71166992 C152.31107549 87.67243778 152.3178279 90.63279185 152.33618164 93.59350586 C152.53046372 125.19737237 152.53046372 125.19737237 149 139 C148.67140991 140.33865112 148.67140991 140.33865112 148.33618164 141.7043457 C147.75791246 143.86004109 147.105806 145.9542559 146.375 148.0625 C145.99541138 149.16791138 145.99541138 149.16791138 145.6081543 150.2956543 C140.6396783 164.07503195 132.85598099 175.29357997 123 186 C122.44183594 186.65097656 121.88367188 187.30195313 121.30859375 187.97265625 C105.89113409 205.00029446 80.06058035 215.26311995 57.45092773 217.22070312 C30.11341127 218.4455069 3.80366832 211.24723666 -16.8840332 192.8046875 C-19.3003814 190.58087247 -21.6481411 188.29191647 -24 186 C-24.96486328 185.14535156 -24.96486328 185.14535156 -25.94921875 184.2734375 C-35.93233515 175.19787714 -42.36384152 162.45056397 -47 150 C-47.38929687 148.98164063 -47.77859375 147.96328125 -48.1796875 146.9140625 C-52.84901712 133.92855458 -53.32344408 120.94434653 -53.3359375 107.31640625 C-53.34238112 105.64542024 -53.34911058 103.97443531 -53.35610962 102.30345154 C-53.36799042 98.82833231 -53.3717992 95.35331189 -53.37060547 91.87817383 C-53.37040089 87.43410228 -53.39788559 82.99066026 -53.43214989 78.54673862 C-53.45439902 75.10742792 -53.4584439 71.66827049 -53.45738602 68.22889519 C-53.45973792 66.58988174 -53.46853825 64.9508638 -53.48405075 63.31192207 C-53.50370498 61.02463342 -53.49788009 58.73872816 -53.48583984 56.45141602 C-53.48868988 55.15381851 -53.49153992 53.85622101 -53.49447632 52.51930237 C-52.77393674 47.3910555 -50.45562398 44.33473317 -46.6953125 40.88671875 C-43.52577338 38.66804137 -40.22873546 36.73271491 -36.875 34.8125 C-22.10364074 26.11732822 -9.22753768 14.51841253 0 0 Z " fill="#FEDFB1" transform="translate(147,116)"/>
<path d="M0 0 C6.04529699 4.9583648 9.89148039 12.1057761 13.9375 18.6875 C14.73099854 19.97599854 14.73099854 19.97599854 15.54052734 21.29052734 C18.49917276 26.10933238 21.43514902 30.94149217 24.359375 35.78125 C27.70423117 41.31382291 31.09184451 46.8187414 34.5 52.3125 C35.03214111 53.17053223 35.56428223 54.02856445 36.11254883 54.91259766 C37.18432975 56.64012323 38.25635052 58.36750002 39.32861328 60.09472656 C42.03531704 64.45666797 44.73611674 68.82226235 47.4375 73.1875 C50.65115683 78.37964245 53.86530405 83.57147782 57.08203125 88.76171875 C63.73230278 99.49433518 70.36640583 110.23674285 76.96899414 120.9987793 C80.18493757 126.23661811 83.4169719 131.4621197 86.703125 136.65625 C87.29222656 137.59210938 87.88132812 138.52796875 88.48828125 139.4921875 C89.57783798 141.2204499 90.67364941 142.94479417 91.77734375 144.6640625 C97.65663027 154.01536861 101.36219121 162.48289725 99.9375 173.6875 C97.96755409 182.0967066 93.00275358 188.93899997 86.07421875 194.06640625 C79.95398888 197.74397231 74.15685742 198.9856269 67.10809326 198.95492554 C65.95329983 198.96172221 65.95329983 198.96172221 64.77517724 198.96865618 C62.20519971 198.98127821 59.63543471 198.97968124 57.06542969 198.97802734 C55.21872181 198.98401402 53.37201643 198.99081989 51.52531433 198.99838257 C46.514814 199.01603695 41.504382 199.02073775 36.49385357 199.02201414 C33.36096933 199.02343678 30.22810241 199.02770854 27.09522247 199.03300858 C16.15835977 199.05150799 5.2215458 199.05967942 -5.71533203 199.05810547 C-15.89798227 199.05690455 -26.08042037 199.07799742 -36.26301694 199.1095928 C-45.01482425 199.13577746 -53.76656237 199.14647182 -62.51840854 199.14519465 C-67.7412021 199.1446856 -72.96380716 199.15033707 -78.18656158 199.17155075 C-83.10159605 199.19096963 -88.01626293 199.19103262 -92.93131065 199.17651749 C-94.72995989 199.17443272 -96.52863235 199.17911038 -98.3272419 199.1912384 C-111.2841067 199.27291153 -121.30543609 198.23014016 -131.08203125 188.97265625 C-136.75524761 182.42663738 -139.13737678 174.99193587 -139.375 166.4375 C-139.41238281 165.56609375 -139.44976562 164.6946875 -139.48828125 163.796875 C-138.33542117 155.37782344 -133.0214149 148.01714148 -128.625 140.9375 C-127.70182983 139.43630615 -127.70182983 139.43630615 -126.76000977 137.90478516 C-124.86644184 134.82885762 -122.96515795 131.75781107 -121.0625 128.6875 C-119.9450442 126.87776981 -118.82784498 125.06788115 -117.7109375 123.2578125 C-115.03230352 118.92115031 -112.34657507 114.58893153 -109.65820312 110.25830078 C-107.01950869 106.00716057 -104.38436007 101.75382716 -101.75 97.5 C-100.95493042 96.2164563 -100.95493042 96.2164563 -100.14379883 94.90698242 C-96.48951025 89.00364978 -92.85016786 83.09125787 -89.21557617 77.17578125 C-82.71922783 66.60269475 -76.18055956 56.05827476 -69.58447266 45.54711914 C-64.60143249 37.59049962 -59.71492887 29.57745246 -54.89208984 21.52270508 C-40.76838672 -1.89763985 -40.76838672 -1.89763985 -28.21484375 -5.875 C-18.06043318 -7.93905442 -8.66925401 -5.51838057 0 0 Z " fill="#F24234" transform="translate(395.0625,296.3125)"/>
<path d="M0 0 C0.77125214 0.00237671 1.54250427 0.00475342 2.33712769 0.00720215 C18.45145118 0.08402257 34.10680341 1.74405879 50 4.4375 C50.94665527 4.59766602 51.89331055 4.75783203 52.86865234 4.92285156 C71.47172992 8.19899646 89.02673176 14.20127832 106 22.4375 C106.67579102 22.76508301 107.35158203 23.09266602 108.04785156 23.43017578 C121.22120958 29.91348366 132.30381441 38.37821512 143 48.4375 C143.90298828 49.24380859 143.90298828 49.24380859 144.82421875 50.06640625 C162.44548746 66.45541841 171.96635932 90.52920149 173.30859375 114.171875 C174.03078242 134.81375057 167.93612846 152.89211341 157.1953125 170.375 C155 172.4375 155 172.4375 151.25 172.75 C149.64125 172.5953125 149.64125 172.5953125 148 172.4375 C147.96261719 171.47070312 147.92523438 170.50390625 147.88671875 169.5078125 C147.25199287 156.93775093 145.65049405 145.82475124 136.18359375 136.68359375 C128.07804897 130.15003342 119.27094521 127.92605136 109.0625 127.375 C107.01268253 127.22459376 104.96319793 127.06958555 102.9140625 126.91015625 C101.40440918 126.79438232 101.40440918 126.79438232 99.86425781 126.67626953 C59.48737366 123.31038198 17.39155701 107.929391 -13.94140625 82.1015625 C-16.79210975 79.79719876 -18.6658912 78.5005394 -22.3125 77.8125 C-26.36444848 78.49927093 -26.67966988 78.7270208 -29 81.8125 C-30.01993234 83.34105295 -31.01883485 84.88377832 -32 86.4375 C-42.3667576 101.89978252 -54.01316732 112.95647516 -70 122.4375 C-78.32241648 127.44100719 -85.2948843 133.17471075 -89 142.4375 C-89.87753242 146.10912677 -90.18113144 149.62616164 -90.31640625 153.39453125 C-90.35830078 154.50634766 -90.40019531 155.61816406 -90.44335938 156.76367188 C-90.48267578 157.91416016 -90.52199219 159.06464844 -90.5625 160.25 C-90.60568359 161.41982422 -90.64886719 162.58964844 -90.69335938 163.79492188 C-90.79918279 166.67567031 -90.90126825 169.55650123 -91 172.4375 C-93.64 172.7675 -96.28 173.0975 -99 173.4375 C-104.50747801 166.21911905 -108.51760186 158.81436625 -112 150.4375 C-112.3196875 149.67824219 -112.639375 148.91898438 -112.96875 148.13671875 C-121.77790829 124.74840349 -118.66609971 93.06028655 -109 70.4375 C-95.61602477 41.06537101 -73.52622073 18.52620402 -43.18359375 6.94140625 C-28.8507031 1.90471788 -15.11014812 -0.12357362 0 0 Z " fill="#9F512C" transform="translate(168,16.5625)"/>
<path d="M0 0 C1.72265625 1.43359375 1.72265625 1.43359375 3.0625 3.4375 C12.15223645 14.85534267 26.98615706 20.54692989 41 23 C61.43527746 24.47688859 82.31265187 23.20747748 98.78125 9.72265625 C103.35098986 5.69484043 103.35098986 5.69484043 107.46484375 1.21875 C109 0 109 0 111.34765625 -0.14453125 C112.69150391 0.01982422 112.69150391 0.01982422 114.0625 0.1875 C115.02929688 0.30351562 115.99609375 0.41953125 116.9921875 0.5390625 C121.36268519 1.20882708 125.68525774 2.03596865 130 3 C125.70569634 10.5423588 121.20438316 17.9409716 116.625 25.3125 C115.49476407 27.13800375 114.36455554 28.96352446 113.234375 30.7890625 C111.2577931 33.97976391 109.26863391 37.16177851 107.265625 40.3359375 C98.71982666 53.99804828 95.61632676 66.08488625 99.125 82.3125 C100.54985611 87.38169963 102.80329764 91.56021956 105.6953125 95.94140625 C107 98 107 98 108 101 C56.52 101 5.04 101 -48 101 C-48.33 91.43 -48.66 81.86 -49 72 C-49.33 71.01 -49.66 70.02 -50 69 C-53.59264452 67.80245183 -56.22717474 67.66905042 -60 68 C-67.38722274 74.47746508 -67.38722274 74.47746508 -65 101 C-84.47 101 -103.94 101 -124 101 C-125.29516602 98.40966797 -124.79579599 97.55831738 -124.03125 94.80078125 C-123.7935791 93.93267822 -123.5559082 93.0645752 -123.31103516 92.17016602 C-123.04339355 91.22713623 -122.77575195 90.28410645 -122.5 89.3125 C-122.22591309 88.33659912 -121.95182617 87.36069824 -121.66943359 86.35522461 C-121.08429137 84.28575069 -120.49481087 82.21749931 -119.90136719 80.15039062 C-119.31078394 78.0862286 -118.72781152 76.01987033 -118.15332031 73.95117188 C-111.37950169 49.57177778 -102.24595702 30.57048606 -79.71875 17.02734375 C-65.07438209 9.1173698 -48.0905395 7.13791056 -31.87597656 4.28027344 C-28.84291447 3.74433048 -25.81209655 3.19675582 -22.78125 2.6484375 C-20.83085271 2.3013883 -18.88033604 1.95500922 -16.9296875 1.609375 C-16.03482635 1.44693298 -15.13996521 1.28449097 -14.21798706 1.11712646 C-9.40869206 0.2795568 -4.88360774 -0.31093833 0 0 Z " fill="#00BBD2" transform="translate(142,394)"/>
<path d="M0 0 C5.5926392 3.99031189 9.32401305 9.33595664 11 16 C13.3205742 36.14680332 7.78220667 65.50866716 -3.0625 82.5625 C-3.701875 83.366875 -4.34125 84.17125 -5 85 C-5.556875 85.763125 -6.11375 86.52625 -6.6875 87.3125 C-10.2727429 89.92875833 -13.59957075 90.65030974 -18 90 C-27.94638159 84.51113564 -30.75669529 73.76084753 -33.765625 63.578125 C-44.77355862 24.27393569 -44.77355862 24.27393569 -38.4375 10.4375 C-29.30706711 -4.02433951 -15.12382931 -7.73351635 0 0 Z " fill="#030101" transform="translate(390,328)"/>
<path d="M0 0 C10.29485782 -0.71685664 19.84669032 1.21428034 27.99609375 7.8984375 C32.82474495 12.96240308 36.35188467 19.06555327 40 25 C40.52899902 25.85899902 41.05799805 26.71799805 41.60302734 27.60302734 C44.56167276 32.42183238 47.49764902 37.25399217 50.421875 42.09375 C53.76673117 47.62632291 57.15434451 53.1312414 60.5625 58.625 C61.36071167 59.91204834 61.36071167 59.91204834 62.17504883 61.22509766 C63.24682975 62.95262323 64.31885052 64.68000002 65.39111328 66.40722656 C68.09781704 70.76916797 70.79861674 75.13476235 73.5 79.5 C76.71365683 84.69214245 79.92780405 89.88397782 83.14453125 95.07421875 C89.79480278 105.80683518 96.42890583 116.54924285 103.03149414 127.3112793 C106.24743757 132.54911811 109.4794719 137.7746197 112.765625 142.96875 C113.35472656 143.90460938 113.94382812 144.84046875 114.55078125 145.8046875 C115.64033798 147.5329499 116.73614941 149.25729417 117.83984375 150.9765625 C123.71913027 160.32786861 127.42469121 168.79539725 126 180 C124.03005409 188.4092066 119.06525358 195.25149997 112.13671875 200.37890625 C106.16720659 203.96590801 100.92033771 205.27681351 94 205 C94.66 204.01 95.32 203.02 96 202 C96.66 202 97.32 202 98 202 C98.27972656 201.41605469 98.55945313 200.83210937 98.84765625 200.23046875 C99.9270405 198.14121992 101.12606449 196.26126866 102.4375 194.3125 C108.26736858 184.91226812 109.50961657 175.29675448 107.51953125 164.359375 C104.36450779 154.17361397 97.58743505 144.98330314 92 136 C90.9263651 134.25955744 89.85344222 132.51867544 88.78125 130.77734375 C86.07747603 126.39260099 83.36121781 122.01573937 80.64111328 117.64111328 C77.92153407 113.26437898 75.21118941 108.8819344 72.5 104.5 C69.28639296 99.30782676 66.07219593 94.11602215 62.85546875 88.92578125 C57.60668598 80.45478844 52.36882201 71.97735625 47.15209961 63.48657227 C39.96055639 51.78245044 32.72302387 40.10874006 25.421875 28.47265625 C23.2659267 25.03429042 21.12871238 21.58595659 19.015625 18.12109375 C18.56429199 17.3852002 18.11295898 16.64930664 17.64794922 15.89111328 C16.83654451 14.56616129 16.03031115 13.23801859 15.23095703 11.90576172 C12.88515997 8.08921233 10.39839069 4.92983286 7 2 C3.31558496 1.11472891 3.31558496 1.11472891 0 1 C0 0.67 0 0.34 0 0 Z " fill="#C51D1D" transform="translate(369,290)"/>
<path d="M0 0 C0.91136719 0.144375 1.82273438 0.28875 2.76171875 0.4375 C10.82089695 1.59224792 18.72970591 2.21500097 26.875 2.25 C27.72924561 2.25902344 28.58349121 2.26804687 29.46362305 2.27734375 C34.75550866 2.25281826 39.6216434 1.62498875 44.77783203 0.42871094 C47 0 47 0 51 0 C51.09796875 1.25554687 51.1959375 2.51109375 51.296875 3.8046875 C52.49162445 17.72720438 54.69611507 27.18031359 64 38 C61.49295434 44.21311317 55.12360106 47.47473282 49.328125 50.3046875 C36.58785103 55.59383154 18.53542571 56.52975925 5.3828125 52.046875 C-1.78139905 48.89931976 -8.22558381 45.30622028 -14 40 C-12.67182262 37.12228235 -11.14951569 34.86586985 -9.125 32.4375 C-3.32743437 24.88223721 -1.09138163 15.59116613 -0.4375 6.25 C-0.35371094 5.07953125 -0.26992187 3.9090625 -0.18359375 2.703125 C-0.12300781 1.81109375 -0.06242188 0.9190625 0 0 Z " fill="#FCDEB0" transform="translate(171,347)"/>
<path d="M0 0 C6.92816494 -0.51109413 12.23524282 -0.12340271 18 4 C22.5277562 8.76605916 24.24662997 12.50883804 24.2746582 19.05932617 C24.28419022 20.28548141 24.29372223 21.51163666 24.30354309 22.77494812 C24.3032813 24.11428862 24.3023425 25.45362913 24.30078125 26.79296875 C24.30467494 28.1814232 24.30901099 29.56987648 24.31376648 30.95832825 C24.32123101 33.87614787 24.32094029 36.79384661 24.31567383 39.71166992 C24.31107549 42.67243778 24.3178279 45.63279185 24.33618164 48.59350586 C24.53046372 80.19737237 24.53046372 80.19737237 21 94 C20.78093994 94.89243408 20.56187988 95.78486816 20.33618164 96.7043457 C19.75791246 98.86004109 19.105806 100.9542559 18.375 103.0625 C18.12194092 103.79944092 17.86888184 104.53638184 17.6081543 105.2956543 C12.6396783 119.07503195 4.85598099 130.29357997 -5 141 C-5.55816406 141.65097656 -6.11632812 142.30195313 -6.69140625 142.97265625 C-17.98138992 155.44175048 -34.96530146 163.87368931 -51 168 C-51 167.34 -51 166.68 -51 166 C-49.34848057 165.00047707 -47.6499149 164.07867771 -45.9375 163.1875 C-22.59550877 149.8649484 -5.90155887 126.3532271 1.96484375 100.875 C5.14608651 88.7198038 6.33121628 76.83430104 6.37109375 64.3046875 C6.38008896 62.82121709 6.38921117 61.33774746 6.39845276 59.85427856 C6.41481223 56.76659969 6.42262001 53.67902763 6.42553711 50.59130859 C6.43093848 46.65972506 6.46874558 42.72916019 6.51428127 38.79786491 C6.54418385 35.74183564 6.55126334 32.6860494 6.55226326 29.62988663 C6.5564316 28.1811565 6.56872756 26.73242332 6.58978081 25.28384018 C6.70880456 16.39588485 5.8617419 9.63578308 1 2 C0.505 1.01 0.505 1.01 0 0 Z " fill="#DBC099" transform="translate(275,161)"/>
<path d="M0 0 C15.48328243 4.79965809 31.08808732 12.1331632 44 22 C44.91394531 22.69480469 45.82789063 23.38960937 46.76953125 24.10546875 C67.98365217 40.86907479 85.24996439 63.70873284 88.5703125 91.296875 C90.97911 115.51203045 85.92761144 136.21306536 73.1953125 156.9375 C71 159 71 159 64 159 C63.67 153.39 63.34 147.78 63 142 C63.66 142 64.32 142 65 142 C65.12375 141.31550781 65.2475 140.63101563 65.375 139.92578125 C66.33553874 135.42925928 67.73429513 131.06764738 69.0625 126.66796875 C72.63295624 112.69855872 71.89422056 97.00728539 69 83 C68.84015625 82.07832031 68.6803125 81.15664062 68.515625 80.20703125 C65.34219734 64.66152411 56.89890193 50.21393648 47 38 C45.83017578 36.55560547 45.83017578 36.55560547 44.63671875 35.08203125 C32.52435955 21.02693686 16.30788724 10.58536921 0 2 C0 1.34 0 0.68 0 0 Z " fill="#763D21" transform="translate(252,30)"/>
<path d="M0 0 C5.79533385 4.39946849 9.40372964 10.35720623 10.57421875 17.5546875 C10.93117278 25.96690424 8.66929654 33.43068896 2.94140625 39.69140625 C-3.2438081 45.24628029 -9.78368923 47.61844756 -18.1015625 47.2578125 C-25.90007109 46.01489082 -31.63983526 41.96214226 -36.46484375 35.83984375 C-41.106715 29.16070678 -41.93472484 22.76831485 -40.87109375 14.81640625 C-38.43185163 7.08671899 -34.06976476 1.7192735 -27.03125 -2.2109375 C-18.11662542 -6.1669161 -8.13244407 -5.14432266 0 0 Z " fill="#030101" transform="translate(390.87109375,431.18359375)"/>
<path d="M0 0 C4.15690163 1.38563388 5.37963849 2.21409144 7.375 6.125 C8.44530255 14.19707965 6.46395589 22.38106915 4.92138672 30.27661133 C4.49780808 32.44874023 4.08970482 34.62337273 3.68359375 36.79882812 C1.48541533 48.33930615 1.48541533 48.33930615 -0.625 53.125 C-7.3088306 43.0992541 -8.79570872 27.01150835 -9.625 15.125 C-9.71394531 14.24199219 -9.80289062 13.35898437 -9.89453125 12.44921875 C-10.29219579 6.20681031 -10.29219579 6.20681031 -8.53125 3.3515625 C-5.78401596 0.70661909 -3.76092593 0.1296871 0 0 Z " fill="#EDEDED" transform="translate(376.625,340.875)"/>
<path d="M0 0 C0.33 13.86 0.66 27.72 1 42 C-5.47594564 40.92067573 -8.48103356 39.56704056 -13 35 C-17.22053723 28.92855677 -18.06361966 22.22603463 -17 15 C-14.94336685 8.63538972 -9.62228609 4.02064093 -3.90625 0.83203125 C-2 0 -2 0 0 0 Z " fill="#F8DAAD" transform="translate(77,205)"/>
<path d="M0 0 C7.03797404 1.17299567 10.18040493 3.13856042 14.33203125 8.82421875 C17.32817627 14.04365159 17.91413675 19.08167135 17 25 C15.19059381 31.03849165 11.43407794 35.78662811 6 39 C3.69 39.66 1.38 40.32 -1 41 C-0.67 27.47 -0.34 13.94 0 0 Z " fill="#FADBAE" transform="translate(316,206)"/>
<path d="M0 0 C4.4297642 0.79102932 5.89210172 1.98974785 8.5 5.625 C9.21235686 9.4242366 8.81263988 11.06224821 6.9375 14.4375 C3.73003157 17.31599731 1.7850666 17.70017661 -2.5 17.625 C-5.30189446 15.85858828 -7.01524911 14.59450178 -8.5 11.625 C-9.03507099 7.6119676 -8.83051628 6.08571967 -6.4375 2.75 C-3.5 0.625 -3.5 0.625 0 0 Z " fill="#ECECEC" transform="translate(375.5,443.375)"/>
<path d="M0 0 C4.15086082 1.47041564 7.48123017 3.54155288 11.125 6 C19.71158422 11.68386074 28.83394219 16.33169176 38 21 C34.3132674 22.22891087 33.53883141 21.64964586 30.0625 20.12109375 C29.08410156 19.69376953 28.10570312 19.26644531 27.09765625 18.82617188 C26.07542969 18.36791016 25.05320313 17.90964844 24 17.4375 C22.51306641 16.79071289 22.51306641 16.79071289 20.99609375 16.13085938 C14.95666668 13.46547989 9.13598395 10.53952227 3.375 7.31665039 C1.27428418 6.15205742 -0.84299598 5.05572115 -3 4 C-2.01 2.68 -1.02 1.36 0 0 Z " fill="#D3BA94" transform="translate(147,116)"/>
</svg>
