<?xml version="1.0" encoding="UTF-8"?>
<svg version="1.1" xmlns="http://www.w3.org/2000/svg" width="512" height="512">
<path d="M0 0 C0.70454315 0.00021149 1.4090863 0.00042297 2.13497925 0.00064087 C13.66562129 0.03511337 24.42037427 1.06525417 35.5 4.375 C36.47694824 4.64787842 36.47694824 4.64787842 37.47363281 4.92626953 C47.77904614 7.82807062 57.12355043 12.30998771 66.5 17.375 C68.14548828 18.26058594 68.14548828 18.26058594 69.82421875 19.1640625 C81.39594152 25.65370984 90.89412836 34.34441037 100.5 43.375 C101.19867188 44.00792969 101.89734375 44.64085937 102.6171875 45.29296875 C133.62245031 74.43276969 152.19577587 124.15572238 153.70825195 165.9699707 C153.82687688 170.81350721 153.83402569 175.6553037 153.8125 180.5 C153.80976578 181.78192734 153.80976578 181.78192734 153.80697632 183.0897522 C153.75936634 196.3763468 153.21792559 209.32842214 150.5 222.375 C150.33371094 223.19307129 150.16742188 224.01114258 149.99609375 224.85400391 C144.99387744 248.65621649 135.02235364 286.06664129 114.25 301 C105.13001236 305.55999382 97.22776748 302.61737494 88 299.6875 C78.97700296 296.92391512 69.96403188 294.36031406 60.75 292.3125 C59.81736328 292.09698486 58.88472656 291.88146973 57.92382812 291.65942383 C57.04662109 291.4714624 56.16941406 291.28350098 55.265625 291.08984375 C54.51055664 290.92605225 53.75548828 290.76226074 52.97753906 290.59350586 C49.73640534 290.21284059 49.73640534 290.21284059 43.5 291.375 C43.5 302.925 43.5 314.475 43.5 326.375 C46.22121094 327.04144531 48.94242188 327.70789063 51.74609375 328.39453125 C69.57122524 332.80258367 87.3252585 337.30704106 104.75 343.125 C105.3990329 343.33871246 106.0480658 343.55242493 106.71676636 343.77261353 C135.62152805 353.35088073 160.04511069 368.10667491 174.3203125 395.921875 C179.94478569 408.41442349 183.58314183 421.7176488 183.66113281 435.46850586 C183.66609772 436.13942764 183.67106262 436.81034943 183.67617798 437.50160217 C183.69065674 439.69769351 183.69757596 441.89371274 183.703125 444.08984375 C183.70595238 444.8457184 183.70877975 445.60159306 183.71169281 446.380373 C183.72662404 450.37720202 183.73589293 454.37399549 183.74023438 458.37084961 C183.74572329 462.48072253 183.76977738 466.5902649 183.79820633 470.70003414 C183.81689706 473.87863602 183.82204162 477.05715906 183.82357025 480.23581123 C183.82658063 481.75035988 183.8345541 483.26490768 183.84775543 484.77940178 C183.99190578 502.58059327 183.99190578 502.58059327 179.08331299 507.91441345 C174.74138983 511.74838968 171.40227111 512.49954916 165.77803421 512.50922108 C164.57808988 512.51367892 163.37814555 512.51813676 162.14183927 512.52272969 C160.80348284 512.5226404 159.46512642 512.52245054 158.12677002 512.52217102 C156.71023735 512.52546973 155.29370562 512.52919531 153.87717509 512.5333125 C149.97532462 512.54333969 146.07348953 512.54705044 142.171628 512.54970181 C137.96700193 512.55360269 133.76238806 512.56318113 129.55776978 512.57191467 C119.39946534 512.59168447 109.2411599 512.60174562 99.08284104 512.61064246 C94.30100255 512.61502423 89.51916518 512.6203913 84.73732758 512.62563133 C68.84495397 512.64264359 52.95258105 512.65713851 37.06019974 512.66438007 C32.93531544 512.66629001 28.81043115 512.66821034 24.68554688 512.67016602 C23.14768867 512.67089163 23.14768867 512.67089163 21.57876262 512.6716319 C4.96467486 512.67993502 -11.64934097 512.70527672 -28.26339731 512.73774669 C-45.31428465 512.7707992 -62.36513541 512.78882717 -79.41605496 512.79202431 C-88.99214465 512.79419101 -98.56812942 512.80296307 -108.14418793 512.82848549 C-116.29830628 512.85016774 -124.45229422 512.8582551 -132.60643813 512.84851871 C-136.76732563 512.8439669 -140.92794394 512.8459112 -145.08879471 512.86528015 C-148.89859925 512.88286194 -152.70793721 512.88195505 -156.51774636 512.86638286 C-158.54747374 512.86287067 -160.57720573 512.87907016 -162.60686564 512.89598733 C-169.43450234 512.84758316 -174.02457231 512.62209047 -179.5 508.375 C-183.94239386 502.76355513 -184.62077144 498.76202016 -184.66113281 491.74902344 C-184.66609772 491.09139008 -184.67106262 490.43375671 -184.67617798 489.75619507 C-184.6907657 487.58224424 -184.69760127 485.40836674 -184.703125 483.234375 C-184.70595238 482.48573433 -184.70877975 481.73709366 -184.71169281 480.96576691 C-184.72668343 476.99214833 -184.73590954 473.01856593 -184.74023438 469.04492188 C-184.74567237 464.98394915 -184.76960011 460.92331969 -184.79820633 456.86245346 C-184.81706082 453.70496748 -184.82205057 450.54755974 -184.82357025 447.39002228 C-184.82655393 445.8960409 -184.83443277 444.40205941 -184.84775543 442.90813446 C-185.0690055 416.15547982 -177.0692137 391.29000738 -158.125 371.9609375 C-144.9666664 358.99841244 -129.35586747 351.41948814 -112 345.375 C-110.76588379 344.94203613 -109.53176758 344.50907227 -108.26025391 344.06298828 C-89.2275244 337.44301613 -70.04869207 332.4451426 -50.4296875 327.9140625 C-49.75981812 327.75814636 -49.08994873 327.60223022 -48.39978027 327.44158936 C-43.73590776 326.375 -43.73590776 326.375 -41.5 326.375 C-41.5 314.825 -41.5 303.275 -41.5 291.375 C-48.74259117 290.38221179 -48.74259117 290.38221179 -55.34375 291.34375 C-56.41399414 291.58206543 -57.48423828 291.82038086 -58.58691406 292.06591797 C-59.71323242 292.33291504 -60.83955078 292.59991211 -62 292.875 C-63.17530273 293.14328613 -64.35060547 293.41157227 -65.56152344 293.68798828 C-74.72264346 295.82902237 -83.75102426 298.35288801 -92.72070312 301.18945312 C-99.53247049 303.29819732 -105.93404903 304.90586915 -112.6953125 301.5703125 C-134.80148474 286.92856206 -144.66274346 246.84495706 -149.75 222.5 C-159.60675765 172.09894702 -151.51213682 116.01779215 -123.30371094 72.53076172 C-99.54857659 37.39953685 -68.42938225 11.72198889 -26.5 2.375 C-25.67999512 2.18663574 -24.85999023 1.99827148 -24.01513672 1.80419922 C-16.03635734 0.1455973 -8.12646228 -0.02254468 0 0 Z " fill="#FACA98" transform="translate(256.5,-0.375)"/>
<path d="M0 0 C0.70454315 0.00021149 1.4090863 0.00042297 2.13497925 0.00064087 C13.66562129 0.03511337 24.42037427 1.06525417 35.5 4.375 C36.47694824 4.64787842 36.47694824 4.64787842 37.47363281 4.92626953 C47.77904614 7.82807062 57.12355043 12.30998771 66.5 17.375 C68.14548828 18.26058594 68.14548828 18.26058594 69.82421875 19.1640625 C81.39594152 25.65370984 90.89412836 34.34441037 100.5 43.375 C101.19867188 44.00792969 101.89734375 44.64085937 102.6171875 45.29296875 C133.62245031 74.43276969 152.19577587 124.15572238 153.70825195 165.9699707 C153.82687688 170.81350721 153.83402569 175.6553037 153.8125 180.5 C153.80976578 181.78192734 153.80976578 181.78192734 153.80697632 183.0897522 C153.75936634 196.3763468 153.21792559 209.32842214 150.5 222.375 C150.33371094 223.19307129 150.16742188 224.01114258 149.99609375 224.85400391 C144.99387744 248.65621649 135.02235364 286.06664129 114.25 301 C105.194525 305.5277375 97.35333085 302.66082819 88.1875 299.75 C74.76265624 295.6144416 61.22449365 292.34541777 47.5 289.375 C50.41009285 286.40013561 53.32391133 283.9938956 56.75 281.625 C73.24692498 269.67895087 83.93940197 252.11230128 87.375 232 C87.77902333 229.46092704 88.14846082 226.9221172 88.5 224.375 C89.17804688 224.43300781 89.85609375 224.49101562 90.5546875 224.55078125 C98.15164431 224.91905478 103.11798267 223.45817747 109.5 219.375 C110.13808594 218.98699219 110.77617187 218.59898437 111.43359375 218.19921875 C117.58651336 213.77295364 121.46319977 206.56934141 123.5 199.375 C124.98465999 190.19511704 124.78213292 180.28997176 119.5 172.375 C119.07589844 171.68277344 118.65179688 170.99054688 118.21484375 170.27734375 C113.66406059 163.49553598 107.20208794 159.013024 99.5 156.375 C96.8383813 155.92950643 96.8383813 155.92950643 94.1875 155.75 C93.30449219 155.67523438 92.42148437 155.60046875 91.51171875 155.5234375 C90.84785156 155.47445312 90.18398438 155.42546875 89.5 155.375 C89.21962891 153.94994141 89.21962891 153.94994141 88.93359375 152.49609375 C87.8043271 149.09414373 87.8043271 149.09414373 84.47265625 148.16015625 C83.18230469 147.92167969 81.89195312 147.68320313 80.5625 147.4375 C55.78047616 142.21605896 33.54635907 130.54261486 14.5078125 113.98828125 C13.01894531 112.69470703 13.01894531 112.69470703 11.5 111.375 C10.71810303 110.6787854 10.71810303 110.6787854 9.92041016 109.96850586 C6.40576843 106.90844792 4.15271171 105.46569465 -0.4375 105.1875 C-7.39260046 105.81978186 -12.527645 110.92443339 -17.6875 115.171875 C-23.01111977 119.34204382 -28.73709286 122.85465158 -34.5 126.375 C-35.38437744 126.92607422 -35.38437744 126.92607422 -36.28662109 127.48828125 C-46.86464209 134.02983808 -58.03426811 138.63636834 -69.6171875 143.11328125 C-71.09167358 143.68320801 -71.09167358 143.68320801 -72.59594727 144.26464844 C-74.53165783 145.0047587 -76.47233481 145.73200821 -78.41772461 146.44628906 C-79.3175708 146.78499023 -80.21741699 147.12369141 -81.14453125 147.47265625 C-82.34106323 147.91170288 -82.34106323 147.91170288 -83.56176758 148.35961914 C-85.85037653 149.33894148 -85.85037653 149.33894148 -87.3125 152.5 C-89.5 155.375 -89.5 155.375 -92.234375 155.95703125 C-93.88179687 156.13298828 -93.88179687 156.13298828 -95.5625 156.3125 C-103.94381672 157.28138397 -109.96469283 160.45119753 -115.6328125 166.7421875 C-122.79254811 176.35840144 -124.68428309 185.45232982 -123.5 197.375 C-121.21070087 207.5151724 -116.4952617 214.66526844 -107.8125 220.3125 C-102.92254155 223.28164489 -99.54524799 224.50494409 -93.8125 224.4375 C-92.81863281 224.42847656 -91.82476562 224.41945312 -90.80078125 224.41015625 C-90.04152344 224.39855469 -89.28226562 224.38695312 -88.5 224.375 C-88.15388672 226.11523438 -88.15388672 226.11523438 -87.80078125 227.890625 C-82.77145196 252.32928451 -72.09210844 270.92848545 -51.5 285.375 C-49.82816086 286.70184191 -48.16073566 288.03428652 -46.5 289.375 C-47.56734375 289.62145264 -48.6346875 289.86790527 -49.734375 290.12182617 C-53.77651316 291.05690356 -57.81671685 292.00012817 -61.85644531 292.94555664 C-63.58966896 293.35005019 -65.32337861 293.75246813 -67.05761719 294.15258789 C-77.21589886 296.49793855 -87.15556418 299.05872633 -97.01953125 302.45043945 C-102.44942136 303.89284923 -107.54907411 304.10912344 -112.6953125 301.5703125 C-134.80148474 286.92856206 -144.66274346 246.84495706 -149.75 222.5 C-159.60675765 172.09894702 -151.51213682 116.01779215 -123.30371094 72.53076172 C-99.54857659 37.39953685 -68.42938225 11.72198889 -26.5 2.375 C-25.67999512 2.18663574 -24.85999023 1.99827148 -24.01513672 1.80419922 C-16.03635734 0.1455973 -8.12646228 -0.02254468 0 0 Z " fill="#694B4B" transform="translate(256.5,-0.375)"/>
<path d="M0 0 C20.68047354 4.42681063 42.28186777 11.06321376 61 21 C61.84691406 21.42667969 62.69382812 21.85335938 63.56640625 22.29296875 C83.91598065 32.93259394 98.76991955 52.23441618 105.61669922 73.95654297 C108.29316845 82.94292496 110.10774689 91.68085048 110.16113281 101.09350586 C110.16609772 101.76442764 110.17106262 102.43534943 110.17617798 103.12660217 C110.19065674 105.32269351 110.19757596 107.51871274 110.203125 109.71484375 C110.20736607 110.84865573 110.20736607 110.84865573 110.21169281 112.005373 C110.22662404 116.00220202 110.23589293 119.99899549 110.24023438 123.99584961 C110.24572329 128.10572253 110.26977738 132.2152649 110.29820633 136.32503414 C110.31689706 139.50363602 110.32204162 142.68215906 110.32357025 145.86081123 C110.32658063 147.37535988 110.3345541 148.88990768 110.34775543 150.40440178 C110.49190578 168.20559327 110.49190578 168.20559327 105.58331299 173.53941345 C101.16125809 177.44414708 97.78284888 178.12513457 92.05854797 178.12025452 C90.81754333 178.12162918 89.5765387 178.12300385 88.29792786 178.12442017 C86.9203794 178.12088103 85.54283118 178.11724622 84.1652832 178.11352539 C82.71658327 178.11324336 81.2678832 178.11340157 79.81918335 178.1139679 C75.88352362 178.11425524 71.94789426 178.10836863 68.0122416 178.10139394 C63.90026773 178.09514997 59.78829319 178.09455577 55.67631531 178.09336853 C47.88843728 178.0902583 40.10057326 178.08204905 32.3127014 178.07201904 C23.44702251 178.06084836 14.58134296 178.05534504 5.71565878 178.05032361 C-12.52290209 178.03986619 -30.76144992 178.02227269 -49 178 C-48.31172703 172.90159704 -47.30052131 168.06232303 -45.875 163.125 C-45.42181857 161.52475556 -44.96869696 159.92449418 -44.515625 158.32421875 C-44.27134766 157.46747559 -44.02707031 156.61073242 -43.77539062 155.72802734 C-42.67241662 151.84747584 -41.58772717 147.96187723 -40.50219727 144.07641602 C-39.61143282 140.88895194 -38.71799472 137.70224582 -37.82421875 134.515625 C-36.61295782 130.19422966 -35.4075915 125.87125495 -34.20703125 121.546875 C-31.54138798 111.96009249 -28.84449429 102.39166165 -25.9375 92.875 C-23.43833345 84.6843494 -21.24045933 76.43232253 -19.10693359 68.13964844 C-17.53390049 62.02723221 -15.88311813 55.94779015 -14.12109375 49.88671875 C-12.58128206 44.58195903 -11.10978783 39.25785638 -9.625 33.9375 C-6.46087524 22.61222769 -3.24455647 11.30246593 0 0 Z " fill="#324A5E" transform="translate(330,334)"/>
<path d="M0 0 C4.2333423 13.87853978 8.22735303 27.81370465 12.10888672 41.79443359 C13.56481855 47.03179934 15.03293133 52.26574522 16.5 57.5 C17.08339373 59.58331642 17.66672701 61.66664977 18.25 63.75 C18.683125 65.296875 18.683125 65.296875 19.125 66.875 C24.66666667 86.66666667 30.20833333 106.45833333 35.75 126.25 C36.0392334 127.2827002 36.3284668 128.31540039 36.62646484 129.37939453 C37.20549579 131.44791704 37.78395306 133.51660023 38.36181641 135.58544922 C39.88113833 141.02189362 41.41242322 146.45460499 42.9609375 151.8828125 C43.28126953 153.01138672 43.60160156 154.13996094 43.93164062 155.30273438 C44.54383776 157.45873299 45.15951817 159.61374672 45.77929688 161.76757812 C46.05580078 162.74404297 46.33230469 163.72050781 46.6171875 164.7265625 C46.86065918 165.57814941 47.10413086 166.42973633 47.35498047 167.30712891 C48.12367013 170.51630643 48.54917503 173.73252908 49 177 C29.95452019 177.09348908 10.90908703 177.16400161 -8.13657475 177.20724869 C-16.98004393 177.22786383 -25.82337044 177.25596433 -34.66674805 177.30175781 C-42.37567839 177.34165774 -50.08450539 177.36744044 -57.79353613 177.37635398 C-61.87451722 177.38156341 -65.9552027 177.3937854 -70.03608894 177.42292023 C-73.87991371 177.45013937 -77.72332205 177.458432 -81.56723404 177.45243073 C-82.97530444 177.45352807 -84.38338926 177.46144356 -85.79137611 177.4768219 C-99.11036021 177.61511726 -99.11036021 177.61511726 -105 173 C-109.44239386 167.38855513 -110.12077144 163.38702016 -110.16113281 156.37402344 C-110.16609772 155.71639008 -110.17106262 155.05875671 -110.17617798 154.38119507 C-110.1907657 152.20724424 -110.19760127 150.03336674 -110.203125 147.859375 C-110.20595238 147.11073433 -110.20877975 146.36209366 -110.21169281 145.59076691 C-110.22668343 141.61714833 -110.23590954 137.64356593 -110.24023438 133.66992188 C-110.24567237 129.60894915 -110.26960011 125.54831969 -110.29820633 121.48745346 C-110.31706082 118.32996748 -110.32205057 115.17255974 -110.32357025 112.01502228 C-110.32655393 110.5210409 -110.33443277 109.02705941 -110.34775543 107.53313446 C-110.5690055 80.78047982 -102.5692137 55.91500738 -83.625 36.5859375 C-70.39109877 23.54896932 -54.70790391 15.99655379 -37.25 9.9375 C-36.02514893 9.50775879 -34.80029785 9.07801758 -33.53833008 8.63525391 C-30.02965904 7.41115315 -26.51637356 6.20177207 -23 5 C-22.09878418 4.69046387 -21.19756836 4.38092773 -20.26904297 4.06201172 C-13.40765637 1.72737987 -7.35762987 -0.27975779 0 0 Z " fill="#324A5E" transform="translate(182,335)"/>
<path d="M0 0 C5.48389807 1.73175729 10.756142 3.71714893 16.0625 5.9375 C50.11145912 19.80898083 85.02890701 16.01065478 118.83935547 3.77294922 C121.5453964 2.80488983 124.26829181 1.89280219 127 1 C126.37483696 7.74053998 124.75811244 13.94625281 122.875 20.4375 C122.23682491 22.67573727 121.59880849 24.91401979 120.9609375 27.15234375 C120.63448242 28.2904248 120.30802734 29.42850586 119.97167969 30.60107422 C118.45843576 35.89438626 116.98006681 41.19733569 115.5 46.5 C114.91685407 48.5833858 114.33352023 50.66671901 113.75 52.75 C113.46125 53.78125 113.1725 54.8125 112.875 55.875 C109.66666667 67.33333333 106.45833333 78.79166667 103.25 90.25 C102.96084717 91.2827002 102.67169434 92.31540039 102.3737793 93.37939453 C101.79453916 95.4480862 101.21527511 97.51677117 100.63598633 99.58544922 C99.11482394 105.01774341 97.59416326 110.45017741 96.07421875 115.8828125 C95.75839844 117.01138672 95.44257813 118.13996094 95.1171875 119.30273438 C94.51416887 121.45763919 93.91129547 123.61258465 93.30859375 125.76757812 C92.89867187 127.23227539 92.89867187 127.23227539 92.48046875 128.7265625 C92.12311646 130.00394287 92.12311646 130.00394287 91.75854492 131.30712891 C90.84773433 134.5405505 89.9228582 137.7699963 89 141 C72.5 141 56 141 39 141 C32.16543133 118.21810444 32.16543133 118.21810444 29.875 109.125 C29.37227355 107.16636347 28.86837343 105.20802779 28.36328125 103.25 C28.12818848 102.33863281 27.8930957 101.42726563 27.65087891 100.48828125 C26.54519775 96.26131111 25.33602645 92.06651873 24.1171875 87.87109375 C22.60301566 82.65387688 21.14984182 77.41942523 19.6875 72.1875 C19.23709351 70.57705811 19.23709351 70.57705811 18.77758789 68.93408203 C18.15939144 66.72350187 17.54131002 64.51288953 16.92333984 62.30224609 C15.73907525 58.06682493 14.55331822 53.83182272 13.3671875 49.59692383 C12.7900024 47.53566453 12.21317828 45.47430412 11.63671875 43.4128418 C10.12334152 38.00226255 8.60353477 32.5935975 7.07421875 27.1875 C6.75839844 26.06794922 6.44257813 24.94839844 6.1171875 23.79492188 C5.51633943 21.66544562 4.91360554 19.53650016 4.30859375 17.40820312 C2.68230744 11.63565384 1.2425945 5.86747063 0 0 Z " fill="#F4F4F6" transform="translate(192,371)"/>
<path d="M0 0 C0.33 0.66 0.66 1.32 1 2 C0.12730469 2.56589844 -0.74539063 3.13179688 -1.64453125 3.71484375 C-4.80983086 5.8235014 -7.73194878 8.16728026 -10.6875 10.5625 C-28.70895057 24.65684097 -50.32180645 34.34190115 -71.8828125 41.6484375 C-75.09898653 43.04291897 -76.81238336 44.2890301 -79 47 C-80.13472096 50.40416289 -80.14086321 53.02988669 -80.16113281 56.62011719 C-80.16609772 57.28896439 -80.17106262 57.95781158 -80.17617798 58.64692688 C-80.19079642 60.86358678 -80.19760646 63.08017476 -80.203125 65.296875 C-80.20595238 66.05871346 -80.20877975 66.82055191 -80.21169281 67.60547638 C-80.22669623 71.64925992 -80.23591413 75.69300778 -80.24023438 79.73681641 C-80.24567347 83.87526277 -80.26959991 88.01337246 -80.29820633 92.15171432 C-80.31703891 95.36406322 -80.32204945 98.57633505 -80.32357025 101.78873444 C-80.32655891 103.31145284 -80.33445573 104.83417116 -80.34775543 106.35683441 C-80.54045469 130.14713305 -73.9606601 151.80789606 -56.94140625 169.1796875 C-43.24707083 182.5787885 -26.07148481 190.43676354 -7 192 C-7 192.33 -7 192.66 -7 193 C-9.37576003 193.08330587 -11.74842782 193.14154418 -14.125 193.1875 C-14.77082031 193.21263672 -15.41664063 193.23777344 -16.08203125 193.26367188 C-23.62660782 193.37145154 -29.11021781 191.69066761 -37 190 C-37 201.55 -37 213.1 -37 225 C-47.56 227.64 -58.12 230.28 -69 233 C-68.1691648 238.90310802 -68.1691648 238.90310802 -66.84375 244.59375 C-66.62589844 245.39683594 -66.40804687 246.19992187 -66.18359375 247.02734375 C-65.95800781 247.84332031 -65.73242188 248.65929687 -65.5 249.5 C-63.98052051 254.99617437 -62.67045235 260.33163016 -62 266 C-61.17242187 266.25523437 -60.34484375 266.51046875 -59.4921875 266.7734375 C-55.56559849 268.15257503 -51.87742537 269.83605302 -48.125 271.625 C-47.09246094 272.11226563 -47.09246094 272.11226563 -46.0390625 272.609375 C-44.35794781 273.40323472 -42.67877079 274.20119558 -41 275 C-41 275.33 -41 275.66 -41 276 C-51.2304759 275.20749835 -61.30298487 271.44749219 -70 266 C-72.9836988 262.49787664 -73.41777894 259.48587463 -74 255 C-74.48438417 252.98130182 -75.0246461 250.9815781 -75.56445312 248.97705078 C-76.92410806 243.87834479 -78.062655 238.74351502 -79.0625 233.5625 C-79.371875 232.386875 -79.68125 231.21125 -80 230 C-80.99 229.67 -81.98 229.34 -83 229 C-78.19516784 227.85783664 -73.38965985 226.71857832 -68.58349609 225.58203125 C-66.94788919 225.19481309 -65.31247134 224.8067955 -63.67724609 224.41796875 C-61.32959198 223.85988481 -58.9812776 223.30465993 -56.6328125 222.75 C-55.89942657 222.57500977 -55.16604065 222.40001953 -54.41043091 222.21972656 C-49.22774341 221 -49.22774341 221 -47 221 C-47 209.45 -47 197.9 -47 186 C-48.65 185.34 -50.3 184.68 -52 184 C-70.15480941 173.93258648 -84.27943891 157.66896359 -90.71582031 137.7890625 C-92.01641718 133.2339767 -93.03678348 128.63649986 -94 124 C-94.32532247 122.66468948 -94.6540365 121.33011208 -95 120 C-95.60585937 120.05800781 -96.21171875 120.11601562 -96.8359375 120.17578125 C-105.3082771 120.63198415 -110.80637568 117.76397967 -117.75 113.1875 C-125.8947185 105.26902368 -130.12465881 96.43539485 -130.5 85 C-130.14166859 74.42344393 -126.65133308 65.4415159 -119 58 C-112.87559162 53.44309754 -107.59215835 49.83646548 -99.8125 49.9375 C-98.91144531 49.94652344 -98.01039063 49.95554688 -97.08203125 49.96484375 C-96.39496094 49.97644531 -95.70789063 49.98804688 -95 50 C-94.79375 49.2575 -94.5875 48.515 -94.375 47.75 C-91.27432934 41.54865868 -84.16082327 39.75721179 -78 37.625 C-76.28822061 37.00884434 -74.57728557 36.39033805 -72.8671875 35.76953125 C-72.0328418 35.46740723 -71.19849609 35.1652832 -70.33886719 34.85400391 C-52.5049871 28.34221763 -35.77722683 18.9209258 -21 7 C-13.71114687 1.29407962 -9.46040325 -1.89208065 0 0 Z " fill="#ECB988" transform="translate(262,105)"/>
<path d="M0 0 C1.04736328 0.00902344 2.09472656 0.01804688 3.17382812 0.02734375 C5.72030514 0.05059925 8.26627031 0.08327431 10.8125 0.125 C10.8125 0.455 10.8125 0.785 10.8125 1.125 C9.58015625 1.30675781 8.3478125 1.48851563 7.078125 1.67578125 C-18.8700427 5.57746503 -42.38738405 13.70212364 -63.1875 30.125 C-64.0021875 30.73730469 -64.816875 31.34960938 -65.65625 31.98046875 C-101.67862398 59.62422094 -123.62003139 104.84985765 -130.1875 149.125 C-136.28865612 199.40669885 -128.48582261 255.30193026 -96.859375 296.53125 C-96.34987305 297.17384766 -95.84037109 297.81644531 -95.31542969 298.47851562 C-94.1875 300.125 -94.1875 300.125 -94.1875 302.125 C-99.37926995 303.85558998 -104.40303973 303.7770004 -109.3828125 301.3203125 C-131.48898474 286.67856206 -141.35024346 246.59495706 -146.4375 222.25 C-156.29425765 171.84894702 -148.19963682 115.76779215 -119.99121094 72.28076172 C-96.24934594 37.16916074 -65.11216717 11.43782652 -23.1875 2.125 C-21.89984741 1.83810303 -21.89984741 1.83810303 -20.58618164 1.54541016 C-13.66901322 0.13800209 -7.04392074 -0.11747398 0 0 Z " fill="#563B3B" transform="translate(253.1875,-0.125)"/>
<path d="M0 0 C0 1.65 0 3.3 0 5 C-0.69335449 5.23074219 -1.38670898 5.46148437 -2.10107422 5.69921875 C-34.47780237 16.53249661 -63.48098495 27.81367055 -80.375 59.5859375 C-86.29704836 71.91120065 -90.10584284 84.97926806 -90.20532227 98.66748047 C-90.22017166 99.94163567 -90.22017166 99.94163567 -90.23532104 101.24153137 C-90.26676567 104.03338895 -90.29162573 106.8252635 -90.31640625 109.6171875 C-90.33699051 111.55917794 -90.35798736 113.50116404 -90.37937927 115.44314575 C-90.43444796 120.54268881 -90.48392402 125.64227129 -90.53222656 130.74188232 C-90.58255289 135.95035286 -90.63818074 141.1587665 -90.69335938 146.3671875 C-90.80075488 156.57807634 -90.90224084 166.78901468 -91 177 C-96.97672528 177.07359966 -100.34779594 176.7633214 -105 173 C-109.44239386 167.38855513 -110.12077144 163.38702016 -110.16113281 156.37402344 C-110.16609772 155.71639008 -110.17106262 155.05875671 -110.17617798 154.38119507 C-110.1907657 152.20724424 -110.19760127 150.03336674 -110.203125 147.859375 C-110.20595238 147.11073433 -110.20877975 146.36209366 -110.21169281 145.59076691 C-110.22668343 141.61714833 -110.23590954 137.64356593 -110.24023438 133.66992188 C-110.24567237 129.60894915 -110.26960011 125.54831969 -110.29820633 121.48745346 C-110.31706082 118.32996748 -110.32205057 115.17255974 -110.32357025 112.01502228 C-110.32655393 110.5210409 -110.33443277 109.02705941 -110.34775543 107.53313446 C-110.5690055 80.78047982 -102.5692137 55.91500738 -83.625 36.5859375 C-70.39109877 23.54896932 -54.70790391 15.99655379 -37.25 9.9375 C-36.02514893 9.50775879 -34.80029785 9.07801758 -33.53833008 8.63525391 C-30.02965904 7.41115315 -26.51637356 6.20177207 -23 5 C-22.09878418 4.69046387 -21.19756836 4.38092773 -20.26904297 4.06201172 C-13.40765637 1.72737987 -7.35762987 -0.27975779 0 0 Z " fill="#283D4C" transform="translate(182,335)"/>
<path d="M0 0 C2.15911865 1.590271 2.15911865 1.590271 4 4 C4.37454981 6.62118329 4.50811196 8.81569862 4.45410156 11.43066406 C4.45468567 12.17251953 4.45526978 12.914375 4.45587158 13.67871094 C4.45309025 16.12482902 4.42199786 18.56972047 4.390625 21.015625 C4.38316274 22.71384007 4.37746973 24.41206376 4.37347412 26.11029053 C4.35821651 30.5755601 4.31893389 35.04030753 4.2746582 39.50537109 C4.23370807 44.06340471 4.21546367 48.62152287 4.1953125 53.1796875 C4.15243936 62.12005774 4.08208875 71.05990372 4 80 C-1.28 80 -6.56 80 -12 80 C-12.04517755 70.29030103 -12.08187392 60.58067184 -12.10362434 50.87089157 C-12.11406323 46.36229295 -12.12822439 41.85376995 -12.15087891 37.34521484 C-12.17260348 32.99452216 -12.18456783 28.64390222 -12.18975449 24.29315948 C-12.19345093 22.63296615 -12.20066911 20.97277682 -12.21146011 19.31261444 C-12.22596996 16.98794436 -12.22797816 14.66357524 -12.22705078 12.33886719 C-12.23424133 11.6519429 -12.24143188 10.96501862 -12.24884033 10.25727844 C-12.23336282 6.67372393 -12.03032837 4.0094822 -10 1 C-6.60979367 -1.54265475 -3.96166205 -1.15548476 0 0 Z " fill="#283D4C" transform="translate(376,432)"/>
<path d="M0 0 C2.16693115 1.58636475 2.16693115 1.58636475 4 4 C4.37454981 6.62118329 4.50811196 8.81569862 4.45410156 11.43066406 C4.45468567 12.17251953 4.45526978 12.914375 4.45587158 13.67871094 C4.45309025 16.12482902 4.42199786 18.56972047 4.390625 21.015625 C4.38316274 22.71384007 4.37746973 24.41206376 4.37347412 26.11029053 C4.35821651 30.5755601 4.31893389 35.04030753 4.2746582 39.50537109 C4.23370807 44.06340471 4.21546367 48.62152287 4.1953125 53.1796875 C4.15243936 62.12005774 4.08208875 71.05990372 4 80 C-1.28 80 -6.56 80 -12 80 C-12.0903524 70.15992857 -12.16374533 60.32013243 -12.20724869 50.47974014 C-12.22812765 45.91049036 -12.25645071 41.34153898 -12.30175781 36.77246094 C-12.34520488 32.36339127 -12.36913478 27.9546087 -12.37950897 23.54534149 C-12.38690243 21.86278513 -12.40134017 20.18024457 -12.42292023 18.49781036 C-12.45194003 16.14174899 -12.45595675 13.78687527 -12.45410156 11.43066406 C-12.46848267 10.73438904 -12.48286377 10.03811401 -12.49768066 9.32073975 C-12.46888947 5.94362725 -12.22237156 4.28061529 -10.09661865 1.5980835 C-6.35729657 -1.25210049 -4.56704404 -1.18743145 0 0 Z " fill="#283D4C" transform="translate(143,432)"/>
<path d="M0 0 C8.75 2.75 8.75 2.75 11 5 C11.52294922 6.98291016 11.52294922 6.98291016 11.9296875 9.4140625 C12.99220173 15.17639694 14.51425755 20.74465701 16.125 26.375 C16.42921875 27.45007813 16.7334375 28.52515625 17.046875 29.6328125 C18.02664068 33.08987189 19.01248683 36.54514623 20 40 C20.32838867 41.15016602 20.65677734 42.30033203 20.99511719 43.48535156 C22.33310627 48.17027907 23.6720056 52.85494248 25.01367188 57.53881836 C27.54143179 66.36947672 30.02685703 75.21141823 32.49609375 84.05859375 C34.30816738 90.54565185 36.14344446 97.02554068 38 103.5 C40.30724912 111.55810679 42.60029934 119.62014059 44.875 127.6875 C45.18566406 128.78191406 45.49632812 129.87632812 45.81640625 131.00390625 C46.10128906 132.01710938 46.38617188 133.0303125 46.6796875 134.07421875 C47.06229736 135.42906372 47.06229736 135.42906372 47.45263672 136.8112793 C48 139 48 139 48 141 C45.03 141 42.06 141 39 141 C35.43117575 129.44561511 32.12135966 117.85782158 29.10864258 106.14575195 C27.53347181 100.02616451 25.88020282 93.93965474 24.1171875 87.87109375 C22.60301566 82.65387688 21.14984182 77.41942523 19.6875 72.1875 C19.23709351 70.57705811 19.23709351 70.57705811 18.77758789 68.93408203 C18.15939144 66.72350187 17.54131002 64.51288953 16.92333984 62.30224609 C15.73907525 58.06682493 14.55331822 53.83182272 13.3671875 49.59692383 C12.7900024 47.53566453 12.21317828 45.47430412 11.63671875 43.4128418 C10.12334152 38.00226255 8.60353477 32.5935975 7.07421875 27.1875 C6.75839844 26.06794922 6.44257813 24.94839844 6.1171875 23.79492188 C5.51633943 21.66544562 4.91360554 19.53650016 4.30859375 17.40820312 C2.68230744 11.63565384 1.2425945 5.86747063 0 0 Z " fill="#D0D0D5" transform="translate(192,371)"/>
<path d="M0 0 C0.928125 0.28875 1.85625 0.5775 2.8125 0.875 C4.11725618 3.48451236 3.92551572 5.40201285 3.91015625 8.3203125 C3.90693359 9.39667969 3.90371094 10.47304687 3.90039062 11.58203125 C3.89201172 12.70996094 3.88363281 13.83789062 3.875 15 C3.87048828 16.13566406 3.86597656 17.27132812 3.86132812 18.44140625 C3.84951615 21.25265638 3.83304507 24.0638023 3.8125 26.875 C4.57175781 26.85179687 5.33101563 26.82859375 6.11328125 26.8046875 C7.10714844 26.78664062 8.10101563 26.76859375 9.125 26.75 C10.11113281 26.72679687 11.09726562 26.70359375 12.11328125 26.6796875 C14.8125 26.875 14.8125 26.875 17.8125 28.875 C18.46899535 34.01754691 18.46899535 34.01754691 16.53320312 36.54589844 C13.55786077 38.84410556 9.91178142 38.22114107 6.3125 38.125 C5.54035156 38.11984375 4.76820313 38.1146875 3.97265625 38.109375 C0.68399375 38.06377829 -2.05023337 37.92075554 -5.1875 36.875 C-8.52403089 32.15441633 -7.55944848 25.9239577 -7.55810547 20.40283203 C-7.56248703 18.38098404 -7.59885626 16.36130708 -7.63671875 14.33984375 C-7.64058594 13.06238281 -7.64445313 11.78492188 -7.6484375 10.46875 C-7.65665527 9.30021484 -7.66487305 8.13167969 -7.67333984 6.92773438 C-6.9047573 2.09840966 -4.96806935 -0.19482625 0 0 Z " fill="#EDBA89" transform="translate(251.1875,189.125)"/>
<path d="M0 0 C0.81210938 0.29003906 1.62421875 0.58007812 2.4609375 0.87890625 C3.27820313 1.16636719 4.09546875 1.45382812 4.9375 1.75 C5.56398437 1.97816406 6.19046875 2.20632813 6.8359375 2.44140625 C6.8359375 2.77140625 6.8359375 3.10140625 6.8359375 3.44140625 C5.5778125 3.31765625 4.3196875 3.19390625 3.0234375 3.06640625 C1.96189453 2.96199219 1.96189453 2.96199219 0.87890625 2.85546875 C-1.1640625 2.44140625 -1.1640625 2.44140625 -4.1640625 0.44140625 C-2.1640625 -0.55859375 -2.1640625 -0.55859375 0 0 Z " fill="#EEC094" transform="translate(214.1640625,377.55859375)"/>
</svg>
