<?xml version="1.0" encoding="UTF-8"?>
<svg version="1.1" xmlns="http://www.w3.org/2000/svg" width="512" height="512">
<path d="M0 0 C1.01602757 -0.00382555 2.03205514 -0.00765109 3.07887143 -0.01159257 C6.46402667 -0.02186426 9.84901044 -0.01794149 13.23417664 -0.01396179 C15.6692063 -0.01831151 18.10423459 -0.02349553 20.53926086 -0.02944946 C26.45566287 -0.04143568 32.37202275 -0.04399414 38.28843228 -0.0416492 C43.10076283 -0.03986212 47.91307964 -0.04162403 52.72540855 -0.04587364 C53.75497985 -0.04676643 53.75497985 -0.04676643 54.80535057 -0.04767724 C56.20000099 -0.04888907 57.59465141 -0.0501032 58.98930182 -0.05131962 C72.05324339 -0.06218301 85.11715911 -0.06003849 98.18110212 -0.05393478 C110.11289688 -0.04876789 122.04460995 -0.06001715 133.97638855 -0.07903299 C146.24867381 -0.09844048 158.52092048 -0.10666222 170.79322118 -0.10290974 C177.67484075 -0.10100195 184.55639082 -0.10344383 191.43799782 -0.11762428 C197.91165381 -0.13082984 204.38518751 -0.1282386 210.85884476 -0.11521339 C213.22910938 -0.11285256 215.59938556 -0.11556455 217.96963692 -0.12383652 C235.53566239 -0.18069999 250.74013276 -0.07611779 264.35795593 12.57319641 C273.55104324 22.41520753 276.00808261 33.86874519 275.8860321 46.94062805 C275.88647018 48.18064575 275.88690826 49.42066345 275.88735962 50.69825745 C275.88563734 54.07180438 275.87067378 57.44478904 275.84963775 60.81823659 C275.83078397 64.35359975 275.82911369 67.88897176 275.82556152 71.42437744 C275.81626645 78.10714202 275.7916874 84.78975798 275.76151305 91.47245735 C275.72788961 99.08555942 275.71146314 106.69866889 275.69642675 114.31182683 C275.66513529 129.96153585 275.61242468 145.61109691 275.54545593 161.26069641 C276.11253423 161.25700924 276.67961252 161.25332207 277.26387501 161.24952316 C291.10401957 161.16093291 304.94411401 161.09512694 318.784482 161.05344772 C325.47778621 161.03287982 332.17087245 161.00436539 338.86405945 160.9589386 C345.32853388 160.91534079 351.79281134 160.89152961 358.25742149 160.88118744 C360.71847316 160.87382113 363.17951458 160.85943664 365.64048195 160.83777618 C369.09903017 160.80855788 372.55677401 160.80474822 376.01542664 160.80659485 C377.02316132 160.79221375 378.030896 160.77783264 379.06916809 160.76301575 C389.51464101 160.82300079 398.89627721 163.99817947 406.54545593 171.26069641 C416.48165108 181.95766752 417.13571317 193.46407641 417.0789032 207.37153625 C417.08597016 209.19588923 417.09471843 211.02023635 417.10501099 212.84457397 C417.12742896 217.77654529 417.12458282 222.70819454 417.11568952 227.64019728 C417.11056288 231.76772009 417.11788586 235.89518328 417.12516159 240.02269995 C417.14213692 249.76549705 417.13861909 259.50813744 417.12187195 269.25093079 C417.10495623 279.27919098 417.12078309 289.30701569 417.15309483 299.33522832 C417.17984514 307.96657656 417.18705195 316.5977897 417.17857975 325.22917521 C417.17366601 330.3748654 417.17578169 335.52029377 417.19636726 340.66595078 C417.21480976 345.50727519 417.20866153 350.34797656 417.18416786 355.18926811 C417.17918689 356.95804603 417.18257857 358.72687213 417.19531631 360.49561119 C417.28091592 373.41131081 415.95339223 384.69275649 406.56498718 394.51069641 C396.77225479 402.99646839 387.65467795 404.57929568 375.10795593 404.38569641 C373.99485046 404.37667297 372.881745 404.36764954 371.73490906 404.35835266 C369.0048657 404.33491881 366.27527583 404.30211041 363.54545593 404.26069641 C363.56116638 405.56740295 363.57687683 406.8741095 363.59306335 408.22041321 C363.64742313 413.07516805 363.68182819 417.92989605 363.71025085 422.78486633 C363.72532365 424.88484727 363.74578535 426.98479681 363.77177429 429.08467102 C363.80822347 432.10566465 363.82519753 435.12624152 363.83842468 438.14741516 C363.85390854 439.08405502 363.8693924 440.02069489 363.88534546 440.98571777 C363.88660263 445.87103762 363.8301424 449.34428243 360.54545593 453.26069641 C358.29545593 454.32319641 358.29545593 454.32319641 355.54545593 454.26069641 C350.92142811 451.8450781 346.89257609 449.13017264 342.79545593 445.88569641 C337.40491385 441.66590021 331.93796743 437.56298832 326.42045593 433.51069641 C325.62172058 432.92360901 324.82298523 432.33652161 324.00004578 431.73164368 C321.51592831 429.90697613 319.03079649 428.08369757 316.54545593 426.26069641 C313.16922203 423.78320465 309.79448642 421.30368778 306.42045593 418.82319641 C305.66361511 418.26857727 304.90677429 417.71395813 304.1269989 417.14253235 C303.3962616 416.60531555 302.66552429 416.06809875 301.91264343 415.51460266 C301.22882662 415.01945317 300.5450098 414.52430368 299.84047127 414.01414967 C297.54545593 412.26069641 297.54545593 412.26069641 295.5866375 410.44061565 C289.32058974 404.80917522 284.3638309 404.27649285 276.13188171 404.43769836 C274.9192868 404.43334778 273.70669189 404.42899719 272.45735168 404.42451477 C269.83529431 404.41992314 267.21694958 404.42780631 264.59541702 404.45765114 C260.44121483 404.50458408 256.2879586 404.50078791 252.13356018 404.49047852 C244.8087279 404.47869359 237.48454142 404.50947431 230.15983582 404.54963684 C219.14413465 404.60955485 208.12840141 404.6338231 197.11254871 404.621391 C193.66417624 404.61880628 190.21634745 404.62581492 186.76808548 404.65485573 C182.91784204 404.68562894 179.0681697 404.69264116 175.21781921 404.69551086 C174.0933136 404.71153854 172.96880798 404.72756622 171.81022644 404.74407959 C161.4720764 404.70713067 152.63715357 402.0750176 144.61967468 395.38179016 C136.06400666 386.63277371 133.22165508 377.42722393 133.31840515 365.5617218 C133.3181131 364.61460327 133.31782104 363.66748474 133.31752014 362.69166565 C133.31890657 359.58046611 133.33443544 356.46951005 133.35014343 353.35835266 C133.353876 351.19359467 133.35672182 349.02883499 133.35871887 346.86407471 C133.3663361 341.18084507 133.3859682 335.49771849 133.40812683 329.81452942 C133.42862643 324.00948989 133.43772938 318.20443362 133.44779968 312.39936829 C133.46921588 301.01976584 133.50332876 289.64023972 133.54545593 278.26069641 C128.7714906 278.22405036 124.00079401 278.23586851 119.22698975 278.28968811 C117.60848159 278.30145944 115.98982639 278.30073369 114.37133789 278.28651428 C99.11643591 278.16738834 90.84885366 282.46423164 79.80278015 293.16108704 C76.31182079 296.40813987 72.46074388 299.05539334 68.54545593 301.76069641 C61.85724481 306.522416 55.31198106 311.45477997 48.79545593 316.44819641 C46.17911894 318.44177719 43.56183264 320.43410583 40.94438171 322.42622375 C39.41970737 323.5921512 37.89932502 324.76372941 36.3848114 325.94282532 C34.51329035 327.39936685 32.62609064 328.83243612 30.73295593 330.26069641 C29.71588562 331.04444641 28.69881531 331.82819641 27.65092468 332.63569641 C23.47090649 334.82297637 21.21970508 334.87560277 16.54545593 334.26069641 C14.4137639 332.14357866 13.62296259 330.78815996 13.18469238 327.80555725 C13.19135422 326.89066528 13.19801605 325.97577332 13.20487976 325.03315735 C13.20521965 323.47199188 13.20521965 323.47199188 13.20556641 321.87928772 C13.22105026 320.76249634 13.23653412 319.64570496 13.25248718 318.49507141 C13.25673203 317.34653687 13.26097687 316.19800232 13.26535034 315.0146637 C13.2821426 311.34643611 13.31979696 307.67875795 13.35795593 304.01069641 C13.37300201 301.52372518 13.38669055 299.03674533 13.39897156 296.54975891 C13.43204798 290.45321729 13.48225338 284.35699611 13.54545593 278.26069641 C12.84573669 278.27640686 12.14601746 278.29211731 11.4250946 278.30830383 C8.19446698 278.37141971 4.96396975 278.40992721 1.73295593 278.44819641 C0.08263367 278.48590149 0.08263367 278.48590149 -1.60102844 278.52436829 C-14.45333852 278.63810554 -26.99746221 275.46890769 -36.45454407 266.26069641 C-47.21577422 253.17072625 -48.04383072 241.00293759 -47.97212219 224.72554016 C-47.97754928 222.65311696 -47.98467522 220.58069762 -47.99336243 218.50828552 C-48.01152877 212.9049742 -48.00455585 207.30195894 -47.99184608 201.69864273 C-47.98168372 195.82080059 -47.99112073 189.94298296 -47.99739075 184.06513977 C-48.00465773 174.19635999 -47.99510432 164.32770015 -47.97602844 154.4589386 C-47.95426162 143.06684348 -47.96131366 131.67503477 -47.98333406 120.28294659 C-48.00151507 110.48303376 -48.00403316 100.68320691 -47.99357939 90.88328266 C-47.98735933 85.03848899 -47.98646787 79.19382972 -47.99972534 73.3490448 C-48.0113225 67.85281412 -48.00318743 62.35695093 -47.98014832 56.86075974 C-47.97488187 54.84968042 -47.97633941 52.8385699 -47.98519897 50.8275032 C-48.04188849 36.64650063 -47.20512657 25.35375042 -37.45454407 14.26069641 C-36.94149719 13.64323547 -36.42845032 13.02577454 -35.89985657 12.38960266 C-26.66451753 2.11584033 -13.15795685 -0.0532168 0 0 Z " fill="#FEFEFE" transform="translate(71.45454406738281,28.739303588867188)"/>
<path d="M0 0 C14.41294365 -0.09371369 28.82583959 -0.16384447 43.23902607 -0.20724869 C49.93233028 -0.22781659 56.62541652 -0.25633102 63.31860352 -0.30175781 C69.78307794 -0.34535562 76.24735541 -0.3691668 82.71196556 -0.37950897 C85.17301723 -0.38687528 87.63405864 -0.40125978 90.09502602 -0.42292023 C93.55357423 -0.45213853 97.01131808 -0.45594819 100.4699707 -0.45410156 C101.47770538 -0.46848267 102.48544006 -0.48286377 103.52371216 -0.49768066 C113.96918508 -0.43769562 123.35082127 2.73748305 131 10 C140.93619515 20.69697111 141.59025723 32.20337999 141.53344727 46.11083984 C141.54051423 47.93519282 141.5492625 49.75953993 141.55955505 51.58387756 C141.58197303 56.51584888 141.57912688 61.44749813 141.57023358 66.37950087 C141.56510695 70.50702368 141.57242993 74.63448687 141.57970566 78.76200354 C141.59668099 88.50480064 141.59316316 98.24744103 141.57641602 107.99023438 C141.5595003 118.01849457 141.57532715 128.04631928 141.6076389 138.07453191 C141.63438921 146.70588015 141.64159602 155.33709329 141.63312382 163.9684788 C141.62821007 169.11416899 141.63032575 174.25959736 141.65091133 179.40525436 C141.66935383 184.24657878 141.6632056 189.08728015 141.63871193 193.9285717 C141.63373095 195.69734962 141.63712264 197.46617572 141.64986038 199.23491478 C141.73545999 212.1506144 140.4079363 223.43206008 131.01953125 233.25 C121.22679885 241.73577198 112.10922201 243.31859927 99.5625 243.125 C98.44939453 243.11597656 97.33628906 243.10695313 96.18945312 243.09765625 C93.45940977 243.0742224 90.7298199 243.041414 88 243 C88.02356567 244.96005981 88.02356567 244.96005981 88.04760742 246.9597168 C88.1019672 251.81447164 88.13637226 256.66919964 88.16479492 261.52416992 C88.17986772 263.62415086 88.20032941 265.7241004 88.22631836 267.82397461 C88.26276754 270.84496824 88.27974159 273.86554511 88.29296875 276.88671875 C88.30845261 277.82335861 88.32393646 278.75999847 88.33988953 279.72502136 C88.34114669 284.61034121 88.28468647 288.08358602 85 292 C82.75 293.0625 82.75 293.0625 80 293 C75.37597218 290.58438169 71.34712016 287.86947623 67.25 284.625 C61.85945791 280.40520379 56.39251149 276.3022919 50.875 272.25 C50.07626465 271.6629126 49.2775293 271.0758252 48.45458984 270.47094727 C45.97047238 268.64627972 43.48534056 266.82300116 41 265 C37.62376609 262.52250824 34.24903049 260.04299137 30.875 257.5625 C30.11815918 257.00788086 29.36131836 256.45326172 28.58154297 255.88183594 C27.85080566 255.34461914 27.12006836 254.80740234 26.3671875 254.25390625 C25.34146228 253.51118202 25.34146228 253.51118202 24.29501534 252.75345325 C22 251 22 251 20.04118156 249.17991924 C13.7751338 243.54847881 8.81837497 243.01579644 0.58642578 243.17700195 C-0.62616913 243.17265137 -1.83876404 243.16830078 -3.08810425 243.16381836 C-5.71016162 243.15922673 -8.32850635 243.1671099 -10.95003891 243.19695473 C-15.1042411 243.24388767 -19.25749733 243.2400915 -23.41189575 243.2297821 C-30.73672803 243.21799718 -38.06091451 243.2487779 -45.38562012 243.28894043 C-56.40132129 243.34885844 -67.41705452 243.37312669 -78.43290722 243.36069459 C-81.88127969 243.35810987 -85.32910849 243.36511851 -88.77737045 243.39415932 C-92.62761389 243.42493253 -96.47728623 243.43194475 -100.32763672 243.43481445 C-101.45214233 243.45084213 -102.57664795 243.46686981 -103.73522949 243.48338318 C-114.07337954 243.44643426 -122.90830236 240.81432119 -130.92578125 234.12109375 C-139.48144927 225.3720773 -142.32380085 216.16652751 -142.22705078 204.30102539 C-142.22748886 202.8803476 -142.22748886 202.8803476 -142.22793579 201.43096924 C-142.22654936 198.3197697 -142.2110205 195.20881364 -142.1953125 192.09765625 C-142.19157993 189.93289826 -142.18873411 187.76813858 -142.18673706 185.6033783 C-142.17911983 179.92014865 -142.15948773 174.23702208 -142.1373291 168.55383301 C-142.1168295 162.74879348 -142.10772655 156.94373721 -142.09765625 151.13867188 C-142.07624005 139.75906943 -142.04212717 128.3795433 -142 117 C-140.73181427 116.99191315 -139.46362854 116.98382629 -138.15701294 116.97549438 C-126.1810978 116.89786885 -114.20529398 116.81008844 -102.22952461 116.71247292 C-96.07328654 116.66261636 -89.91706475 116.6162855 -83.76074219 116.578125 C-77.81491451 116.54113767 -71.86922663 116.49474152 -65.92351913 116.44193649 C-63.65986468 116.42346386 -61.39618034 116.40832985 -59.13248062 116.39665604 C-55.95162009 116.37967117 -52.7710748 116.35060717 -49.59033203 116.31884766 C-48.66315872 116.31668747 -47.73598541 116.31452728 -46.78071594 116.31230164 C-38.25877428 116.20424387 -30.316615 115.10989633 -22.6875 111.125 C-21.72199219 110.63257813 -20.75648438 110.14015625 -19.76171875 109.6328125 C-9.57143601 103.60800601 -5.01927843 94.30585944 -1.46522522 83.35174561 C-0.7924274 79.95070619 -0.82143056 76.56413446 -0.79467773 73.11035156 C-0.78477814 72.31972824 -0.77487854 71.52910492 -0.76467896 70.71452332 C-0.73314339 68.10658746 -0.70833799 65.4986334 -0.68359375 62.890625 C-0.66301736 61.08029716 -0.64202071 59.26997405 -0.62062073 57.45965576 C-0.5654708 52.69874914 -0.51603033 47.93779966 -0.46777344 43.17681885 C-0.4175067 38.31705926 -0.36184764 33.45736178 -0.30664062 28.59765625 C-0.19914564 19.06515724 -0.09768147 9.53260427 0 0 Z " fill="#FEFEFE" transform="translate(347,190)"/>
<path d="M0 0 C1.01602757 -0.00382555 2.03205514 -0.00765109 3.07887143 -0.01159257 C6.46402667 -0.02186426 9.84901044 -0.01794149 13.23417664 -0.01396179 C15.6692063 -0.01831151 18.10423459 -0.02349553 20.53926086 -0.02944946 C26.45566287 -0.04143568 32.37202275 -0.04399414 38.28843228 -0.0416492 C43.10076283 -0.03986212 47.91307964 -0.04162403 52.72540855 -0.04587364 C53.75497985 -0.04676643 53.75497985 -0.04676643 54.80535057 -0.04767724 C56.20000099 -0.04888907 57.59465141 -0.0501032 58.98930182 -0.05131962 C72.05324339 -0.06218301 85.11715911 -0.06003849 98.18110212 -0.05393478 C110.11289688 -0.04876789 122.04460995 -0.06001715 133.97638855 -0.07903299 C146.24867381 -0.09844048 158.52092048 -0.10666222 170.79322118 -0.10290974 C177.67484075 -0.10100195 184.55639082 -0.10344383 191.43799782 -0.11762428 C197.91165381 -0.13082984 204.38518751 -0.1282386 210.85884476 -0.11521339 C213.22910938 -0.11285256 215.59938556 -0.11556455 217.96963692 -0.12383652 C235.53566239 -0.18069999 250.74013276 -0.07611779 264.35795593 12.57319641 C272.24557972 21.01759364 276.0248728 31.75028849 275.92640686 43.17218018 C275.93108683 44.02219323 275.9357668 44.87220629 275.94058859 45.74797732 C275.95247075 48.57130894 275.94310806 51.39414905 275.93363953 54.21748352 C275.93770827 56.25182374 275.94305185 58.28616175 275.9495697 60.32049561 C275.96321386 65.82877829 275.95795635 71.33689188 275.94843245 76.84517741 C275.94081981 82.61939485 275.94788601 88.39359813 275.95259094 94.16781616 C275.95804425 103.86441132 275.95086845 113.56093785 275.93656921 123.25752258 C275.92024817 134.45414925 275.92552902 145.65061198 275.94204843 156.84723467 C275.95568086 166.47383395 275.95757422 176.10038399 275.94973242 185.72698981 C275.94506499 191.4705976 275.94440539 197.21412845 275.95434189 202.95773125 C275.96303465 208.35948512 275.95694739 213.76102854 275.93965912 219.16275978 C275.93570642 221.14039639 275.93680738 223.11805083 275.94344711 225.09568024 C275.98981907 240.3156024 274.75649019 253.81271124 264.18217468 265.78804016 C251.96478214 276.7807776 239.13094368 278.45928295 223.4160614 278.21211243 C221.39984218 278.18785379 219.3836224 278.16362469 217.36738992 278.14049423 C215.94115453 278.12402885 214.51492607 278.10695355 213.08870482 278.089306 C203.89221707 277.97750298 194.6952695 277.94774268 185.49822021 277.91398728 C176.56618014 277.88073834 167.63617565 277.82234497 158.7051239 277.68135071 C151.59073066 277.56918829 144.47847243 277.51528829 137.36316979 277.52691787 C133.60969462 277.53100215 129.86127893 277.50814768 126.10886765 277.41438484 C108.17935841 276.9872242 95.57634057 278.57585536 81.89338684 291.18731689 C81.17756565 291.87286589 80.46174446 292.55841488 79.72423172 293.26473808 C76.24815668 296.44914143 72.41673588 299.08426071 68.54545593 301.76069641 C61.86205793 306.52940545 55.31224571 311.45457717 48.79545593 316.44819641 C46.17911894 318.44177719 43.56183264 320.43410583 40.94438171 322.42622375 C39.41970737 323.5921512 37.89932502 324.76372941 36.3848114 325.94282532 C34.51329035 327.39936685 32.62609064 328.83243612 30.73295593 330.26069641 C29.71588562 331.04444641 28.69881531 331.82819641 27.65092468 332.63569641 C23.47090649 334.82297637 21.21970508 334.87560277 16.54545593 334.26069641 C14.4137639 332.14357866 13.62296259 330.78815996 13.18469238 327.80555725 C13.19135422 326.89066528 13.19801605 325.97577332 13.20487976 325.03315735 C13.20521965 323.47199188 13.20521965 323.47199188 13.20556641 321.87928772 C13.22105026 320.76249634 13.23653412 319.64570496 13.25248718 318.49507141 C13.25673203 317.34653687 13.26097687 316.19800232 13.26535034 315.0146637 C13.2821426 311.34643611 13.31979696 307.67875795 13.35795593 304.01069641 C13.37300201 301.52372518 13.38669055 299.03674533 13.39897156 296.54975891 C13.43204798 290.45321729 13.48225338 284.35699611 13.54545593 278.26069641 C12.84573669 278.27640686 12.14601746 278.29211731 11.4250946 278.30830383 C8.19446698 278.37141971 4.96396975 278.40992721 1.73295593 278.44819641 C0.08263367 278.48590149 0.08263367 278.48590149 -1.60102844 278.52436829 C-14.45333852 278.63810554 -26.99746221 275.46890769 -36.45454407 266.26069641 C-47.21577422 253.17072625 -48.04383072 241.00293759 -47.97212219 224.72554016 C-47.97754928 222.65311696 -47.98467522 220.58069762 -47.99336243 218.50828552 C-48.01152877 212.9049742 -48.00455585 207.30195894 -47.99184608 201.69864273 C-47.98168372 195.82080059 -47.99112073 189.94298296 -47.99739075 184.06513977 C-48.00465773 174.19635999 -47.99510432 164.32770015 -47.97602844 154.4589386 C-47.95426162 143.06684348 -47.96131366 131.67503477 -47.98333406 120.28294659 C-48.00151507 110.48303376 -48.00403316 100.68320691 -47.99357939 90.88328266 C-47.98735933 85.03848899 -47.98646787 79.19382972 -47.99972534 73.3490448 C-48.0113225 67.85281412 -48.00318743 62.35695093 -47.98014832 56.86075974 C-47.97488187 54.84968042 -47.97633941 52.8385699 -47.98519897 50.8275032 C-48.04188849 36.64650063 -47.20512657 25.35375042 -37.45454407 14.26069641 C-36.94149719 13.64323547 -36.42845032 13.02577454 -35.89985657 12.38960266 C-26.66451753 2.11584033 -13.15795685 -0.0532168 0 0 Z M-2.45454407 49.19819641 C-2.99079407 49.82596985 -3.52704407 50.45374329 -4.07954407 51.10054016 C-7.11298784 55.86614926 -7.70729885 60.50424313 -7.73542786 66.06507874 C-7.7413701 66.72468511 -7.74731235 67.38429148 -7.75343466 68.06388593 C-7.77069363 70.26072671 -7.77381519 72.45734806 -7.77680969 74.6542511 C-7.78607421 76.23495442 -7.79612463 77.8156533 -7.80690002 79.39634705 C-7.83307294 83.68164887 -7.84602305 87.96688813 -7.85492134 92.25225735 C-7.86079471 94.93286662 -7.86900653 97.61345901 -7.87792969 100.29405975 C-7.90525926 108.69073616 -7.92460273 117.08737373 -7.93233347 125.48409152 C-7.94129155 135.15914395 -7.97638033 144.8336308 -8.03433466 154.5085113 C-8.07763944 161.9991841 -8.09774577 169.48969816 -8.10041571 176.98049474 C-8.10250667 181.44890072 -8.11421041 185.91677432 -8.15005493 190.38504791 C-8.18314138 194.59109556 -8.18726896 198.7962142 -8.16977692 203.00234604 C-8.16824275 204.53978092 -8.17683495 206.07726705 -8.19669342 207.61457443 C-8.30895727 216.85224622 -7.53303699 223.9016454 -1.45454407 231.26069641 C0.83374255 233.5272308 0.83374255 233.5272308 3.23295593 234.82319641 C3.97932312 235.27823547 4.72569031 235.73327454 5.49467468 236.20210266 C9.87056688 238.46089654 13.857693 238.41155559 18.65948486 238.41459656 C19.49620427 238.41897881 20.33292367 238.42336107 21.1949982 238.42787611 C24.00916671 238.44127019 26.82330389 238.4474444 29.63749695 238.4535675 C31.65124656 238.46146812 33.66499475 238.46973705 35.67874146 238.47834778 C42.30226793 238.50457711 48.92580074 238.51987841 55.54936218 238.53413391 C57.82964011 238.53949361 60.109918 238.54487112 62.39019585 238.55026627 C71.87709919 238.57189817 81.36400082 238.59063396 90.85092258 238.60188866 C104.44415339 238.61812082 118.03709803 238.65127752 131.63022095 238.7082895 C141.18874507 238.74701128 150.74719273 238.76652414 160.30579323 238.77180922 C166.01382254 238.77546017 171.7215467 238.78745427 177.42949104 238.81991196 C182.80332225 238.85003087 188.17666426 238.85629056 193.5505619 238.8445282 C195.51854019 238.84430777 197.48654143 238.85258709 199.45444107 238.87018204 C210.88569343 238.96679047 219.85189221 238.9244811 228.98295593 231.19819641 C229.49858093 230.55882141 230.01420593 229.91944641 230.54545593 229.26069641 C231.08170593 228.62132141 231.61795593 227.98194641 232.17045593 227.32319641 C235.18608817 222.79974805 235.79755388 218.95773534 235.81288147 213.56311035 C235.81967814 212.57286573 235.81967814 212.57286573 235.82661211 211.56261617 C235.83923813 209.35798188 235.83763694 207.1535952 235.83598328 204.94892883 C235.84196969 203.36512943 235.8487755 201.78133294 235.8563385 200.19754028 C235.87399504 195.89989998 235.87869376 191.60233935 235.87997007 187.30466628 C235.88139252 184.6178802 235.88566392 181.93111432 235.89096451 179.24433327 C235.90946424 169.86590414 235.91763527 160.48753185 235.9160614 151.10908508 C235.91486029 142.37546423 235.93595677 133.64209062 235.96754873 124.90853232 C235.99372661 117.40347356 236.00442805 109.89849548 236.00315058 102.39339143 C236.00264136 97.9139892 236.0083026 93.4348067 236.02950668 88.95545006 C236.0489144 84.74053719 236.0489964 80.52605306 236.03447342 76.3111248 C236.03238729 74.76803204 236.03707457 73.22491227 236.04919434 71.68186569 C236.11708376 62.43635441 235.93294155 55.371891 229.65092468 48.05366516 C229.017995 47.52386047 228.38506531 46.99405579 227.73295593 46.44819641 C227.10776062 45.9055011 226.48256531 45.36280579 225.83842468 44.80366516 C219.91303524 40.81639288 214.97133619 39.8179966 207.9883728 39.86628723 C207.15231925 39.86019613 206.3162657 39.85410502 205.4548772 39.84782934 C202.66681488 39.83124423 199.87921153 39.83596873 197.09111023 39.84077454 C195.08661934 39.83343155 193.08213268 39.82484465 191.07765198 39.81510925 C185.6415805 39.79290744 180.20566067 39.78996196 174.76955009 39.79185677 C170.22694774 39.79197654 165.68437743 39.78340938 161.14178401 39.77507925 C150.42158321 39.75584951 139.70146027 39.75295962 128.98124695 39.75971985 C117.93340982 39.7663587 106.88590672 39.74350139 95.83813733 39.70640612 C86.34320679 39.67568523 76.84838357 39.66435174 67.35340434 39.66824293 C61.68682182 39.67030815 56.02049919 39.6648662 50.35396385 39.64035034 C45.02272115 39.61804683 39.69202043 39.61999133 34.36077499 39.64027786 C32.40893315 39.64368163 30.45705457 39.63862624 28.50526237 39.62429428 C11.2340966 39.44107645 11.2340966 39.44107645 -2.45454407 49.19819641 Z " fill="#F8B938" transform="translate(71.45454406738281,28.739303588867188)"/>
<path d="M0 0 C14.41299859 -0.09052298 28.82580703 -0.16384437 43.23902607 -0.20724869 C49.93233028 -0.22781659 56.62541652 -0.25633102 63.31860352 -0.30175781 C69.78307794 -0.34535562 76.24735541 -0.3691668 82.71196556 -0.37950897 C85.17301723 -0.38687528 87.63405864 -0.40125978 90.09502602 -0.42292023 C93.55357423 -0.45213853 97.01131808 -0.45594819 100.4699707 -0.45410156 C101.47770538 -0.46848267 102.48544006 -0.48286377 103.52371216 -0.49768066 C113.96918508 -0.43769562 123.35082127 2.73748305 131 10 C140.93619515 20.69697111 141.59025723 32.20337999 141.53344727 46.11083984 C141.54051423 47.93519282 141.5492625 49.75953993 141.55955505 51.58387756 C141.58197303 56.51584888 141.57912688 61.44749813 141.57023358 66.37950087 C141.56510695 70.50702368 141.57242993 74.63448687 141.57970566 78.76200354 C141.59668099 88.50480064 141.59316316 98.24744103 141.57641602 107.99023438 C141.5595003 118.01849457 141.57532715 128.04631928 141.6076389 138.07453191 C141.63438921 146.70588015 141.64159602 155.33709329 141.63312382 163.9684788 C141.62821007 169.11416899 141.63032575 174.25959736 141.65091133 179.40525436 C141.66935383 184.24657878 141.6632056 189.08728015 141.63871193 193.9285717 C141.63373095 195.69734962 141.63712264 197.46617572 141.64986038 199.23491478 C141.73545999 212.1506144 140.4079363 223.43206008 131.01953125 233.25 C121.22679885 241.73577198 112.10922201 243.31859927 99.5625 243.125 C98.44939453 243.11597656 97.33628906 243.10695313 96.18945312 243.09765625 C93.45940977 243.0742224 90.7298199 243.041414 88 243 C88.02356567 244.96005981 88.02356567 244.96005981 88.04760742 246.9597168 C88.1019672 251.81447164 88.13637226 256.66919964 88.16479492 261.52416992 C88.17986772 263.62415086 88.20032941 265.7241004 88.22631836 267.82397461 C88.26276754 270.84496824 88.27974159 273.86554511 88.29296875 276.88671875 C88.30845261 277.82335861 88.32393646 278.75999847 88.33988953 279.72502136 C88.34114669 284.61034121 88.28468647 288.08358602 85 292 C82.75 293.0625 82.75 293.0625 80 293 C75.37597218 290.58438169 71.34712016 287.86947623 67.25 284.625 C61.85945791 280.40520379 56.39251149 276.3022919 50.875 272.25 C50.07626465 271.6629126 49.2775293 271.0758252 48.45458984 270.47094727 C45.97047238 268.64627972 43.48534056 266.82300116 41 265 C37.62376609 262.52250824 34.24903049 260.04299137 30.875 257.5625 C30.11815918 257.00788086 29.36131836 256.45326172 28.58154297 255.88183594 C27.85080566 255.34461914 27.12006836 254.80740234 26.3671875 254.25390625 C25.34146228 253.51118202 25.34146228 253.51118202 24.29501534 252.75345325 C22 251 22 251 20.04118156 249.17991924 C13.7751338 243.54847881 8.81837497 243.01579644 0.58642578 243.17700195 C-0.62616913 243.17265137 -1.83876404 243.16830078 -3.08810425 243.16381836 C-5.71016162 243.15922673 -8.32850635 243.1671099 -10.95003891 243.19695473 C-15.1042411 243.24388767 -19.25749733 243.2400915 -23.41189575 243.2297821 C-30.73672803 243.21799718 -38.06091451 243.2487779 -45.38562012 243.28894043 C-56.40132129 243.34885844 -67.41705452 243.37312669 -78.43290722 243.36069459 C-81.88127969 243.35810987 -85.32910849 243.36511851 -88.77737045 243.39415932 C-92.62761389 243.42493253 -96.47728623 243.43194475 -100.32763672 243.43481445 C-101.45214233 243.45084213 -102.57664795 243.46686981 -103.73522949 243.48338318 C-114.07337954 243.44643426 -122.90830236 240.81432119 -130.92578125 234.12109375 C-139.48144927 225.3720773 -142.32380085 216.16652751 -142.22705078 204.30102539 C-142.22748886 202.8803476 -142.22748886 202.8803476 -142.22793579 201.43096924 C-142.22654936 198.3197697 -142.2110205 195.20881364 -142.1953125 192.09765625 C-142.19157993 189.93289826 -142.18873411 187.76813858 -142.18673706 185.6033783 C-142.17911983 179.92014865 -142.15948773 174.23702208 -142.1373291 168.55383301 C-142.1168295 162.74879348 -142.10772655 156.94373721 -142.09765625 151.13867188 C-142.07624004 139.75906214 -142.04107344 128.37955578 -142 117 C-130.45 117 -118.9 117 -107 117 C-106.98582031 122.3934375 -106.97164062 127.786875 -106.95703125 133.34375 C-106.93696223 136.77089811 -106.9154337 140.19791356 -106.88867188 143.625 C-106.84637924 149.05864618 -106.80934621 154.49195591 -106.80444336 159.92578125 C-106.80014898 164.30923413 -106.77159264 168.69193248 -106.72656822 173.07514954 C-106.71362946 174.7431447 -106.70927267 176.41123033 -106.71384621 178.07926941 C-106.99038111 190.51298063 -106.99038111 190.51298063 -101 201 C-95.72708343 205.8870934 -91.74048096 207.29888136 -84.62542725 207.27415466 C-83.88036399 207.27939134 -83.13530074 207.28462802 -82.36765981 207.29002339 C-79.86972678 207.30503146 -77.37199846 207.30572871 -74.87402344 207.30639648 C-73.08347731 207.31401752 -71.29293447 207.32244492 -69.50239563 207.33161926 C-64.63654174 207.35357876 -59.77075071 207.36236531 -54.90485287 207.36744571 C-51.86412497 207.37108806 -48.82341357 207.37732754 -45.78269196 207.3844471 C-35.17234066 207.40894822 -24.56203829 207.42199458 -13.95166016 207.42553711 C-4.06548069 207.42917121 5.8203881 207.45905593 15.70647264 207.50094169 C24.1966401 207.53565049 32.68670466 207.55108567 41.17694259 207.55178314 C46.24661385 207.55257586 51.31596882 207.56131195 56.38556671 207.58978081 C61.1561735 207.61597091 65.926202 207.61816136 70.69684792 207.60212517 C72.44474105 207.60031133 74.1926675 207.60699552 75.94048882 207.62294388 C88.31367805 207.79886033 88.31367805 207.79886033 99 202 C99.66 202 100.32 202 101 202 C105.52701048 193.17084851 106.44041599 185.53362621 106.40405273 175.63671875 C106.41091599 174.32337555 106.41777924 173.01003235 106.42485046 171.65689087 C106.44268938 168.07834946 106.4416314 164.50005448 106.43590808 160.92148209 C106.43280337 157.92455524 106.43892271 154.92767486 106.44494683 151.93075466 C106.45895938 144.85711691 106.45745752 137.78360002 106.44604492 130.70996094 C106.4345609 123.43155221 106.44865138 116.15351185 106.4754414 108.87515163 C106.49764429 102.60648995 106.50422566 96.33794352 106.49836498 90.06924534 C106.49500586 86.33378326 106.49734069 82.59855737 106.51461601 78.86312866 C106.5330485 74.69627777 106.51885108 70.53013769 106.50170898 66.36328125 C106.51137695 65.1380777 106.52104492 63.91287415 106.53100586 62.65054321 C106.45762333 54.11630197 105.12460718 47.78241922 99.625 41.125 C93.83154099 36.43505699 89.16937876 35.55516116 81.96533203 35.56762695 C81.07688095 35.5574353 80.18842987 35.54724365 79.27305603 35.53674316 C76.35124355 35.50667113 73.42975925 35.49735603 70.5078125 35.48828125 C68.47613439 35.47143028 66.44446669 35.45327948 64.41281128 35.43388367 C59.07653045 35.38642304 53.7402918 35.3565881 48.40386963 35.33044434 C42.95405755 35.30061904 37.5043907 35.25409543 32.0546875 35.20898438 C21.36985101 35.12299585 10.68502957 35.05717467 0 35 C0 23.45 0 11.9 0 0 Z " fill="#A2A2F9" transform="translate(347,190)"/>
<path d="M0 0 C9.92656019 4.25424008 16.7101578 11.04089637 21 21 C23.398648 27.08942205 24.43723278 32.38287911 24.38095093 38.91148376 C24.3856309 39.76149682 24.39031087 40.61150988 24.39513266 41.48728091 C24.40701481 44.31061253 24.39765212 47.13345264 24.38818359 49.95678711 C24.39225234 51.99112733 24.39759592 54.02546534 24.40411377 56.05979919 C24.41775793 61.56808188 24.41250042 67.07619546 24.40297651 72.584481 C24.39536388 78.35869844 24.40243008 84.13290172 24.40713501 89.90711975 C24.41258832 99.6037149 24.40541251 109.30024144 24.39111328 118.99682617 C24.37479223 130.19345284 24.38007309 141.38991557 24.3965925 152.58653826 C24.41022493 162.21313753 24.41211829 171.83968758 24.40427649 181.46629339 C24.39960906 187.20990119 24.39894946 192.95343204 24.40888596 198.69703484 C24.41757872 204.09878871 24.41149146 209.50033213 24.39420319 214.90206337 C24.39025049 216.87969997 24.39135144 218.85735442 24.39799118 220.83498383 C24.44436314 236.05490599 23.21103426 249.55201483 12.63671875 261.52734375 C0.41932621 272.52008119 -12.41451226 274.19858654 -28.12939453 273.95141602 C-30.14561375 273.92715738 -32.16183354 273.90292827 -34.17806602 273.87979782 C-35.6043014 273.86333244 -37.03052986 273.84625714 -38.45675111 273.82860959 C-47.65323887 273.71680657 -56.85018643 273.68704627 -66.04723573 273.65329087 C-74.97927579 273.62004193 -83.90928028 273.56164856 -92.84033203 273.4206543 C-99.95472527 273.30849188 -107.0669835 273.25459188 -114.18228614 273.26622146 C-117.93576131 273.27030574 -121.684177 273.24745127 -125.43658829 273.15368843 C-143.36609752 272.72652778 -155.96911537 274.31515895 -169.65206909 286.92662048 C-170.36789028 287.61216948 -171.08371147 288.29771847 -171.82122421 289.00404167 C-175.29729925 292.18844502 -179.12872005 294.8235643 -183 297.5 C-189.683398 302.26870904 -196.23321022 307.19388076 -202.75 312.1875 C-205.36633699 314.18108078 -207.98362329 316.17340942 -210.60107422 318.16552734 C-212.12574857 319.33145479 -213.64613091 320.50303299 -215.16064453 321.68212891 C-217.03216558 323.13867044 -218.91936529 324.57173971 -220.8125 326 C-222.33810547 327.175625 -222.33810547 327.175625 -223.89453125 328.375 C-228.07454944 330.56227996 -230.32575085 330.61490636 -235 330 C-237.70984023 327.82550499 -238.0120594 325.95573131 -238.92578125 322.6015625 C-239.91336373 312.44642147 -239.91336373 312.44642147 -236.51025391 308.09521484 C-232.26524375 304.06218203 -227.41775354 300.85501944 -222.52685547 297.66162109 C-219.39988768 295.60537541 -216.3824846 293.41990954 -213.36132812 291.21240234 C-211.15904911 289.60422421 -208.94142958 288.0189121 -206.72265625 286.43359375 C-200.57869997 282.00562272 -194.58666942 277.3764424 -188.60620117 272.73095703 C-186.99856907 271.49163153 -185.38085928 270.26523214 -183.75179386 269.05421829 C-181.93720665 267.69962619 -180.14222043 266.31831608 -178.36942959 264.90946579 C-170.47660588 259.03710426 -164.60577633 257.86474962 -154.90063477 258.06347656 C-153.53080546 258.06241608 -152.16097505 258.05776713 -150.79116821 258.04985046 C-147.86549523 258.04044942 -144.94143299 258.05580246 -142.0159626 258.09122467 C-137.37788816 258.14708941 -132.74086152 258.14529753 -128.1025238 258.13641357 C-120.75868294 258.12893864 -113.41555252 258.15852188 -106.07186979 258.20463252 C-92.93758704 258.28680717 -79.80328873 258.32399885 -66.66875309 258.32002425 C-62.07076474 258.32033513 -57.47359176 258.34266134 -52.87579167 258.3835597 C-50.00167337 258.40549745 -47.12767719 258.41089824 -44.25348282 258.41248512 C-42.31296448 258.41867664 -40.372542 258.44501924 -38.4322052 258.47227478 C-25.88622619 258.44741872 -15.21951073 255.78939157 -6 247 C-5.43667969 246.47664062 -4.87335938 245.95328125 -4.29296875 245.4140625 C3.40186763 237.42701714 6.15233715 226.51577573 6.14044189 215.76571655 C6.14341302 214.92814273 6.14638414 214.0905689 6.1494453 213.22761405 C6.15812784 210.41654381 6.15964018 207.60551618 6.16113281 204.79443359 C6.16576138 202.780537 6.17078609 200.76664128 6.17617798 198.75274658 C6.18930209 193.27728035 6.19574721 187.80182638 6.20018864 182.32634687 C6.20311993 178.90435719 6.20722489 175.48237085 6.21169281 172.06038284 C6.22536906 161.35068826 6.23503455 150.64100133 6.2388947 139.93129861 C6.24337299 127.57477973 6.26090977 115.2183716 6.2898953 102.86188638 C6.31152814 93.30758608 6.32159987 83.7533169 6.32293582 74.19899237 C6.32398289 68.49441815 6.32986963 62.78994803 6.34775543 57.08539963 C6.36426328 51.71574475 6.36637837 46.3462719 6.35761642 40.97660065 C6.35684745 39.01024767 6.36117027 37.0438848 6.37107468 35.07755661 C6.42935183 22.78248256 5.81981895 13.08536943 0 2 C0 1.34 0 0.68 0 0 Z " fill="#EBB023" transform="translate(323,33)"/>
<path d="M0 0 C11.19304305 8.86807862 17.79131948 21.2103254 20 35.25 C21.29442444 50.924948 17.19078246 65.05928942 8.13671875 77.890625 C5.72523615 80.55339555 3.18746798 82.49927845 0.25 84.5625 C-0.73484375 85.25988281 -1.7196875 85.95726562 -2.734375 86.67578125 C-3.48203125 87.19527344 -4.2296875 87.71476562 -5 88.25 C-3.04522306 92.71512206 0.12601526 95.99092123 3.3203125 99.6171875 C5.35126517 102.80058773 5.48167108 104.53859754 5 108.25 C2.9375 111.125 2.9375 111.125 0 113.25 C-3.3671875 113.69921875 -3.3671875 113.69921875 -7 113.25 C-9.66015625 111.08984375 -9.66015625 111.08984375 -12.0625 108.1875 C-12.85785156 107.24777344 -13.65320313 106.30804688 -14.47265625 105.33984375 C-15.79657696 103.72126371 -17.11020644 102.08790216 -18.28588867 100.35864258 C-20.34118193 97.53293113 -21.84695654 95.5945349 -25.26733398 94.57250977 C-27.91901772 94.25441025 -30.51782294 94.12645855 -33.1875 94.0625 C-35.07486293 93.94622005 -36.96164216 93.82001489 -38.84765625 93.68359375 C-39.74371582 93.61897949 -40.63977539 93.55436523 -41.56298828 93.48779297 C-53.12986927 92.3591472 -62.93830775 85.14329875 -70.375 76.5625 C-74.58139974 70.9769528 -76.89839638 64.87249514 -79 58.25 C-79.36738281 57.12207031 -79.73476562 55.99414062 -80.11328125 54.83203125 C-83.47544535 41.25007319 -80.86858432 25.81272654 -73.78125 13.87890625 C-66.07250056 2.50173877 -56.04985945 -5.46880372 -42.38671875 -8.30859375 C-26.95398638 -10.320011 -13.18231803 -8.96756329 0 0 Z " fill="#4A4949" transform="translate(207,113.75)"/>
<path d="M0 0 C7.62198817 1.07978166 11.78595716 4.42405252 16.703125 10.12109375 C19.73748284 14.51725676 20.25243692 18.42226399 20.26742554 23.69758606 C20.27195665 24.35774914 20.27648776 25.01791222 20.28115618 25.69808024 C20.2937822 27.90271453 20.29218101 30.10710121 20.29052734 32.31176758 C20.29651376 33.89556698 20.30331957 35.47936347 20.31088257 37.06315613 C20.32853911 41.36079643 20.33323783 45.65835707 20.33451414 49.95603013 C20.33593659 52.64281621 20.34020799 55.32958209 20.34550858 58.01636314 C20.36400831 67.39479227 20.37217933 76.77316456 20.37060547 86.15161133 C20.36940436 94.88523218 20.39050083 103.61860579 20.4220928 112.35216409 C20.44827068 119.85722285 20.45897212 127.36220093 20.45769465 134.86730498 C20.45718542 139.34670721 20.46284667 143.82588971 20.48405075 148.30524635 C20.50345847 152.52015922 20.50354047 156.73464335 20.48901749 160.94957161 C20.48693136 162.49266437 20.49161863 164.03578414 20.5037384 165.57883072 C20.57162783 174.82434201 20.38748562 181.88880541 14.10546875 189.20703125 C13.47253906 189.73683594 12.83960938 190.26664063 12.1875 190.8125 C11.56230469 191.35519531 10.93710937 191.89789063 10.29296875 192.45703125 C4.34697592 196.45816782 -0.60170426 197.44196885 -7.60850525 197.38768005 C-8.45005348 197.39306559 -9.29160172 197.39845113 -10.15865141 197.40399987 C-12.96521204 197.4182533 -15.77129926 197.41118222 -18.57788086 197.40405273 C-20.59546792 197.40975766 -22.61305174 197.41672239 -24.63063049 197.42485046 C-30.10169963 197.44278316 -35.57260838 197.44161328 -41.04369807 197.43590808 C-45.61382563 197.43281649 -50.18392237 197.43890834 -54.75404555 197.44494683 C-65.53649592 197.45899073 -76.31886706 197.45743177 -87.10131836 197.44604492 C-98.21958897 197.43456279 -109.33761839 197.44864139 -120.45585722 197.4754414 C-130.00765396 197.49760227 -139.559375 197.50423492 -149.11119562 197.49836498 C-154.81344126 197.49499528 -160.51553228 197.49741157 -166.21775627 197.51461601 C-171.58012623 197.53008919 -176.94213899 197.52612522 -182.30449486 197.50731087 C-184.27007225 197.5036261 -186.23567612 197.50673016 -188.2012291 197.51719666 C-190.88940015 197.53041591 -193.5763903 197.51885102 -196.26451111 197.50120544 C-197.03796889 197.51081045 -197.81142667 197.52041546 -198.60832256 197.53031152 C-205.49149801 197.43766984 -210.56215154 195.10541458 -215.75 190.625 C-222 183.33333333 -222 183.33333333 -222 180 C-220.43678481 179.99918285 -220.43678481 179.99918285 -218.84198952 179.99834919 C-193.46897965 179.98394538 -168.09614117 179.9408939 -142.72323036 179.86790943 C-130.45299929 179.83327573 -118.18288038 179.80790601 -105.91259766 179.80444336 C-95.21617537 179.80140123 -84.51995292 179.7808771 -73.8236078 179.73947543 C-68.16141364 179.71816657 -62.49950342 179.70553411 -56.83726883 179.71384621 C-51.50360966 179.7213995 -46.17052521 179.70551099 -40.83697128 179.67193985 C-38.88354434 179.66372208 -36.93006009 179.66393828 -34.97663879 179.67340279 C-20.65052748 180.02541062 -20.65052748 180.02541062 -8 174 C-2.40499901 168.01457356 0.25342236 162.57044535 0.24050903 154.2865448 C0.24221788 153.62482075 0.24392673 152.96309669 0.24568737 152.28132039 C0.24897241 150.07179425 0.23799508 147.86257417 0.22705078 145.65307617 C0.22648645 144.06615201 0.22680365 142.47922733 0.22793579 140.89230347 C0.22850946 136.58897196 0.2167528 132.28575202 0.20278788 127.98244643 C0.19028295 123.483446 0.1891102 118.98444299 0.18673706 114.48542786 C0.1805216 105.96802958 0.16410987 97.45068266 0.14403808 88.93330699 C0.12168116 79.23568022 0.11068617 69.538051 0.10064721 59.84040487 C0.07974371 39.89357458 0.04456642 19.94679053 0 0 Z " fill="#E4E3FE" transform="translate(287,70)"/>
<path d="M0 0 C9.03444395 2.25861099 15.18770984 8.2881185 20 16 C25.06904703 24.85924424 24.57377316 34.23879116 24.53344727 44.11083984 C24.54051423 45.93519282 24.5492625 47.75953993 24.55955505 49.58387756 C24.58197303 54.51584888 24.57912688 59.44749813 24.57023358 64.37950087 C24.56510695 68.50702368 24.57242993 72.63448687 24.57970566 76.76200354 C24.59668099 86.50480064 24.59316316 96.24744103 24.57641602 105.99023438 C24.5595003 116.01849457 24.57532715 126.04631928 24.6076389 136.07453191 C24.63438921 144.70588015 24.64159602 153.33709329 24.63312382 161.9684788 C24.62821007 167.11416899 24.63032575 172.25959736 24.65091133 177.40525436 C24.66935383 182.24657878 24.6632056 187.08728015 24.63871193 191.9285717 C24.63373095 193.69734962 24.63712264 195.46617572 24.64986038 197.23491478 C24.73545999 210.1506144 23.4079363 221.43206008 14.01953125 231.25 C4.22679885 239.73577198 -4.89077799 241.31859927 -17.4375 241.125 C-18.55060547 241.11597656 -19.66371094 241.10695313 -20.81054688 241.09765625 C-23.54059023 241.0742224 -26.2701801 241.041414 -29 241 C-28.98428955 242.30670654 -28.9685791 243.61341309 -28.95239258 244.9597168 C-28.8980328 249.81447164 -28.86362774 254.66919964 -28.83520508 259.52416992 C-28.82013228 261.62415086 -28.79967059 263.7241004 -28.77368164 265.82397461 C-28.73723246 268.84496824 -28.72025841 271.86554511 -28.70703125 274.88671875 C-28.69154739 275.82335861 -28.67606354 276.75999847 -28.66011047 277.72502136 C-28.65885331 282.61034121 -28.71531353 286.08358602 -32 290 C-34.25 291.0625 -34.25 291.0625 -37 291 C-42.01212061 288.39418096 -46.47725195 285.32644338 -50.9375 281.875 C-51.82018555 281.21177734 -51.82018555 281.21177734 -52.72070312 280.53515625 C-54.18748243 279.40738866 -55.59938209 278.2089544 -57 277 C-57 276.34 -57 275.68 -57 275 C-55.2984375 274.5359375 -55.2984375 274.5359375 -53.5625 274.0625 C-50.21224901 273.37075469 -50.21224901 273.37075469 -49 272 C-48.88912275 269.10306944 -48.8383475 266.22597083 -48.82421875 263.328125 C-48.80101329 261.53123838 -48.77689566 259.73436335 -48.75195312 257.9375 C-48.71687128 255.09562518 -48.68751975 252.25417409 -48.67407227 249.41210938 C-48.65857613 246.67525373 -48.61834662 243.93964935 -48.57421875 241.203125 C-48.57612717 240.35711731 -48.57803558 239.51110962 -48.58000183 238.63946533 C-48.49595329 234.57628935 -48.31510228 232.49678832 -46.08911133 228.98730469 C-42.76420194 225.82442489 -40.60075825 225.90749536 -36.08349609 225.81201172 C-24.23435505 225.50533943 -13.43726941 223.47872163 -4.64453125 214.87109375 C5.20490866 203.66472387 5.44603028 190.62922547 5.40405273 176.40234375 C5.40976468 174.64518807 5.41673211 172.8880361 5.42485046 171.13088989 C5.44270397 166.38709824 5.4416285 161.64349235 5.43590808 156.89967728 C5.4328055 152.92859424 5.43892039 148.95754633 5.44494683 144.98646832 C5.45896422 135.61432121 5.45745344 126.24226531 5.44604492 116.87011719 C5.43456076 107.22302539 5.44865079 97.5762115 5.4754414 87.9291563 C5.49763633 79.62392827 5.5042274 71.31878725 5.49836498 63.01353168 C5.49500397 58.06297963 5.49735368 53.11260577 5.51461601 48.16207886 C5.53014416 43.50631623 5.52606484 38.8509639 5.50731087 34.19521713 C5.50364148 32.49374339 5.50668494 30.79223884 5.51719666 29.09079361 C5.57086814 19.67994348 4.99559278 11.70458438 1 3 C0.505 1.515 0.505 1.515 0 0 Z " fill="#7979F7" transform="translate(464,192)"/>
<path d="M0 0 C5.31313802 1.15652358 8.88348493 3.57334185 12.25 7.875 C15.02561353 12.83145274 16.2488797 17.15022596 16.26069641 22.8240509 C16.26778122 23.9636174 16.27486603 25.1031839 16.28216553 26.27728271 C16.27968811 27.51327209 16.27721069 28.74926147 16.2746582 30.02270508 C16.27976913 31.3356102 16.28488007 32.64851532 16.29014587 34.00120544 C16.30350354 37.59227749 16.30411801 41.18324407 16.30158257 44.7743361 C16.30051035 47.77855924 16.30540282 50.78276126 16.310188 53.78697985 C16.32127269 60.87924297 16.32172689 67.97145312 16.31567383 75.0637207 C16.30963854 82.36415661 16.32193602 89.66439957 16.3432439 96.96480256 C16.3608988 103.2461287 16.36685502 109.52739364 16.36360615 115.80874366 C16.36179884 119.55427434 16.36437377 123.29966748 16.37832069 127.04517555 C16.3933088 131.22661344 16.38389502 135.40766259 16.37231445 139.58911133 C16.37995819 140.81902802 16.38760193 142.0489447 16.39547729 143.31613159 C16.34703538 151.24457392 15.88568445 158.3722824 10.8125 164.75 C9.884375 165.4925 8.95625 166.235 8 167 C7.53581917 167.42594137 7.07163834 167.85188274 6.59339142 168.29073143 C-0.40648717 173.77800865 -9.15286953 172.70048065 -17.58007812 172.64697266 C-19.37121976 172.65375401 -21.16235442 172.66266004 -22.95347595 172.67352295 C-27.80273313 172.69626136 -32.65145672 172.68750253 -37.50072289 172.67162752 C-42.58321919 172.65894023 -47.66567079 172.67071649 -52.74816895 172.67855835 C-61.28222834 172.68764666 -69.81607116 172.67568844 -78.35009766 172.65185547 C-88.20686402 172.62464581 -98.06311321 172.63346055 -107.91986704 172.6609875 C-116.39316426 172.68370084 -124.86630609 172.68686775 -133.33962393 172.67379415 C-138.39577807 172.66601189 -143.45168937 172.66492435 -148.50782776 172.68147659 C-153.26213773 172.69595447 -158.01578303 172.68583912 -162.77002144 172.65700531 C-164.51144369 172.6504122 -166.25292219 172.65226174 -167.99432182 172.66331863 C-185.05905116 172.7616539 -185.05905116 172.7616539 -191 167 C-193.88704038 164.08192254 -196.64629531 160.92574361 -198 157 C-197.67 156.01 -197.34 155.02 -197 154 C-196.06939507 154.00460896 -195.13879013 154.00921793 -194.17998505 154.01396656 C-171.52836231 154.12500189 -148.87677491 154.20714652 -126.22493744 154.25906086 C-115.27062808 154.28483406 -104.31649859 154.31996786 -93.36230469 154.37719727 C-83.81377049 154.42705909 -74.26536657 154.45929744 -64.7167058 154.47044247 C-59.66147261 154.47695648 -54.60661208 154.49224808 -49.55149841 154.52865028 C-44.79083521 154.56265354 -40.03069727 154.57304417 -35.26992416 154.56553841 C-33.52524331 154.56691101 -31.78054442 154.57681777 -30.03596878 154.59602737 C-18.59810789 154.99402506 -18.59810789 154.99402506 -8.41757965 150.42779827 C-3.34036374 145.31398326 -0.88749248 140.60416503 -0.84178162 133.36225891 C-0.8319928 132.1885675 -0.82220398 131.0148761 -0.81211853 129.80561829 C-0.80636307 128.51665146 -0.8006076 127.22768463 -0.79467773 125.8996582 C-0.7850984 124.52977198 -0.77508828 123.15988871 -0.76467896 121.79000854 C-0.73762982 118.06924936 -0.71662031 114.34847749 -0.69667697 110.62767434 C-0.67481748 106.7398931 -0.64742861 102.85215095 -0.62062073 98.96440125 C-0.57069335 91.60154294 -0.52575468 84.23866293 -0.48259836 76.87576216 C-0.43322638 68.49372231 -0.37830811 60.11172168 -0.32291877 51.72971976 C-0.20909802 34.4865161 -0.10225918 17.24327602 0 0 Z " fill="#E3E2FE" transform="translate(438,226)"/>
<path d="M0 0 C6.88997513 5.06202255 11.74521873 11.35889184 13.48828125 19.828125 C14.88552607 32.7226986 14.10299082 44.50726915 6.17578125 55.265625 C-2.02006911 63.08027301 -10.47181842 65.31313687 -21.53613281 65.33227539 C-29.74538992 65.1181281 -36.24642404 62.62527761 -42.43359375 57.1171875 C-43.97586807 55.42984777 -45.25446047 53.73496672 -46.51171875 51.828125 C-46.8984375 51.27253906 -47.28515625 50.71695313 -47.68359375 50.14453125 C-53.11458605 41.62417014 -53.74644425 30.92520267 -52.046875 21.15625 C-49.34943025 10.87722978 -43.574888 3.96882595 -34.94921875 -1.921875 C-24.85899627 -7.09634807 -9.4159823 -5.57405315 0 0 Z " fill="#FDFDFD" transform="translate(195.51171875,126.171875)"/>
<path d="M0 0 C3.55946369 0.89142436 5.861231 2.85931202 8.23046875 5.55859375 C10.34818237 9.29694789 11.94504181 13.21709278 13.56640625 17.19140625 C14.29097519 18.91108109 14.29097519 18.91108109 15.03018188 20.66549683 C16.31141904 23.71458331 17.57815443 26.76888126 18.83807373 29.82678223 C20.09520923 32.86858421 21.37079352 35.9026207 22.64453125 38.9375 C24.61293258 43.63125706 26.56501435 48.33132463 28.50683594 53.03613281 C30.209456 57.14710271 31.95715375 61.23043772 33.77441406 65.29199219 C34.15675201 66.15758759 34.53908997 67.02318298 34.93301392 67.91500854 C35.62986222 69.4852317 36.33968942 71.04979607 37.06576538 72.60671997 C39.13701 77.31119927 39.50201546 80.40522779 38.23046875 85.55859375 C37.16796875 87.49609375 37.16796875 87.49609375 35.23046875 88.55859375 C32.50150952 88.96309501 29.93957264 89.11570786 27.23046875 88.55859375 C24.23046875 85.55859375 24.23046875 85.55859375 17.23046875 68.55859375 C4.69046875 68.22859375 -7.84953125 67.89859375 -20.76953125 67.55859375 C-21.09953125 69.20859375 -21.42953125 70.85859375 -21.76953125 72.55859375 C-22.68103719 74.99018594 -23.62344805 77.36273613 -24.64453125 79.74609375 C-25.02931641 80.6887207 -25.02931641 80.6887207 -25.421875 81.65039062 C-26.86848628 85.04883673 -27.61695379 86.45687545 -30.76953125 88.55859375 C-34.64291879 88.98114512 -36.88551734 89.12526933 -40.20703125 86.99609375 C-42.39215648 83.5872984 -42.11135307 81.59459541 -41.76953125 77.55859375 C-40.75917846 74.3138628 -39.39638549 71.25919192 -38 68.1640625 C-37.6076265 67.26666351 -37.21525299 66.36926453 -36.81098938 65.44467163 C-35.53802346 62.53984384 -34.2477049 59.64309103 -32.95703125 56.74609375 C-32.08068828 54.75506648 -31.20569199 52.76344593 -30.33203125 50.77124023 C-29.02879661 47.80022056 -27.72459917 44.82966799 -26.41537476 41.86128235 C-22.48943453 32.95774523 -18.70466976 24.00058964 -14.98120117 15.01049805 C-8.93584916 0.55291681 -8.93584916 0.55291681 0 0 Z " fill="#4A4949" transform="translate(373.76953125,269.44140625)"/>
<path d="M0 0 C3.63 0 7.26 0 11 0 C11.04540318 7.38954278 11.08200305 14.77900779 11.10362434 22.16866112 C11.1140078 25.60093799 11.12806596 29.03311348 11.15087891 32.46533203 C11.17701074 36.42218766 11.18651771 40.37900397 11.1953125 44.3359375 C11.20563507 45.55300385 11.21595764 46.77007019 11.22659302 48.02401733 C11.22771888 56.67282586 10.70983566 65.05035216 7 73 C6.34 73 5.68 73 5 73 C3.92838801 74.33580442 2.91769878 75.7207436 1.9375 77.125 C-1.74051791 81.96569712 -5.59755574 85.22450404 -11 88 C-11.5792775 88.32890732 -12.15855499 88.65781464 -12.75538635 88.99668884 C-21.65592543 93.35420218 -31.13008193 92.50183666 -40.7890625 92.390625 C-42.70290533 92.38315341 -44.61675588 92.37746482 -46.53060913 92.37347412 C-51.53828504 92.35829004 -56.54548793 92.31907142 -61.55297852 92.2746582 C-66.67457686 92.23354866 -71.79625254 92.21542977 -76.91796875 92.1953125 C-86.94551894 92.15256943 -96.97271995 92.08440681 -107 92 C-107 88.7 -107 85.4 -107 82 C-106.17029694 81.99191315 -105.34059387 81.98382629 -104.48574829 81.97549438 C-96.63031454 81.89724699 -88.77504519 81.80986773 -80.9198246 81.71247292 C-76.88229367 81.66272824 -72.84478617 81.61639809 -68.80712891 81.578125 C-64.90367342 81.54099414 -61.00042513 81.49456275 -57.0971489 81.44193649 C-55.61501103 81.42353903 -54.13282901 81.40837829 -52.65062332 81.39665604 C-42.12372533 81.31049537 -32.19838849 81.09279832 -22.6875 76.125 C-21.72199219 75.63257813 -20.75648438 75.14015625 -19.76171875 74.6328125 C-9.6761706 68.6699283 -4.65535264 59.18126038 -1.46522522 48.15093994 C-0.96259478 45.82705928 -0.84038282 43.69990676 -0.79467773 41.32324219 C-0.77473251 40.40258972 -0.75478729 39.48193726 -0.73423767 38.53338623 C-0.71752518 37.54783752 -0.70081268 36.56228882 -0.68359375 35.546875 C-0.6524221 34.02383759 -0.6524221 34.02383759 -0.62062073 32.47003174 C-0.55529403 29.23008927 -0.49631863 25.99006652 -0.4375 22.75 C-0.39429874 20.55207507 -0.35068393 18.35415822 -0.30664062 16.15625 C-0.19962988 10.77091539 -0.09831478 5.3855001 0 0 Z " fill="#E4E3FE" transform="translate(347,225)"/>
<path d="M0 0 C3.68009888 0.92002472 5.11667777 2.71577579 7.5 5.625 C8.13491821 8.96398926 8.13491821 8.96398926 8.14697266 12.81445312 C8.15573425 13.51916245 8.16449585 14.22387177 8.17352295 14.94993591 C8.19545221 17.26934169 8.18098981 19.58682635 8.1640625 21.90625 C8.16743256 23.52380742 8.17228677 25.14136236 8.17855835 26.75891113 C8.18592081 30.14502123 8.1752452 33.53047075 8.15185547 36.91650391 C8.12336706 41.25132068 8.13977453 45.58458966 8.16971779 49.91934967 C8.1878083 53.25835783 8.18202492 56.59700057 8.16907883 59.9360199 C8.16574961 61.53397303 8.16981491 63.13195961 8.18147659 64.72987366 C8.19421553 66.96598839 8.1747718 69.19961684 8.14697266 71.43554688 C8.14299469 72.70619995 8.13901672 73.97685303 8.13491821 75.28601074 C7.33190966 79.50897503 5.83524165 80.99587723 2.5 83.625 C-0.5625 84.25 -0.5625 84.25 -3.5 83.625 C-6.32255584 80.88190171 -7.41052293 79.20550136 -8.0146637 75.28601074 C-8.02086227 74.01535767 -8.02706085 72.74470459 -8.03344727 71.43554688 C-8.04637062 70.37848289 -8.04637062 70.37848289 -8.05955505 69.30006409 C-8.08217598 66.98091439 -8.07548467 64.66297679 -8.06640625 62.34375 C-8.0716433 60.72619265 -8.07792008 59.10863836 -8.08518982 57.49108887 C-8.09558656 54.10507816 -8.09104285 50.71948791 -8.07641602 47.33349609 C-8.0592214 42.99872335 -8.08273418 38.66527529 -8.11790562 34.33065033 C-8.13988633 30.99167126 -8.13843677 27.65300893 -8.1301403 24.3139801 C-8.12932129 22.71601406 -8.13617535 21.11802465 -8.15091133 19.52012634 C-8.16837324 17.28407792 -8.15380639 15.05040675 -8.13110352 12.81445312 C-8.13014175 11.54380005 -8.12917999 10.27314697 -8.12818909 8.96398926 C-7.23379286 4.21003944 -4.78082563 1.19520641 0 0 Z " fill="#FACD71" transform="translate(44.5,156.375)"/>
<path d="M0 0 C1.95739357 -0.01891296 1.95739357 -0.01891296 3.95433044 -0.03820801 C5.3758905 -0.03104745 6.79744563 -0.02284328 8.21899414 -0.01367188 C9.68103798 -0.01636763 11.14308008 -0.02025075 12.6051178 -0.02526855 C15.6675831 -0.03116167 18.72958126 -0.02260864 21.79199219 -0.00390625 C25.71078989 0.01886386 29.62849059 0.00577266 33.54724789 -0.01819611 C36.56625068 -0.0326769 39.58499507 -0.02803749 42.60400581 -0.01768494 C44.04844862 -0.01502286 45.49291514 -0.01826916 46.93733025 -0.02760315 C48.95951746 -0.03780198 50.98178725 -0.01949128 53.00390625 0 C54.15322128 0.00318237 55.30253632 0.00636475 56.48667908 0.00964355 C60.24899143 0.63010664 61.92641315 1.80103236 64.56665039 4.51757812 C65.12915039 8.01757812 65.12915039 8.01757812 64.56665039 11.51757812 C62.38698185 14.44785233 61.20435455 15.40952393 57.56896973 16.0255127 C55.81501892 16.03028625 55.81501892 16.03028625 54.02563477 16.03515625 C53.05416252 16.04567017 53.05416252 16.04567017 52.06306458 16.05639648 C49.92840327 16.07396038 47.79507448 16.06236133 45.66040039 16.04882812 C44.17354071 16.05152355 42.68668275 16.05540639 41.1998291 16.0604248 C38.08609203 16.06631761 34.97281445 16.05776459 31.85913086 16.0390625 C27.87073951 16.01627227 23.8834248 16.02939664 19.89507294 16.05335236 C16.82549956 16.0678167 13.75618084 16.0632016 10.68659973 16.05284119 C9.21621065 16.05017562 7.74579835 16.05343774 6.2754364 16.0627594 C4.21889138 16.07293647 2.16408196 16.05741215 0.10766602 16.03515625 C-1.06163452 16.03197388 -2.23093506 16.0287915 -3.43566895 16.0255127 C-7.07041663 15.40963188 -8.25711135 14.45028473 -10.43334961 11.51757812 C-10.98620995 7.64755575 -11.17903927 5.5183216 -8.80418396 2.33117676 C-5.707084 -0.03798761 -3.87703339 0.01074267 0 0 Z " fill="#FACD71" transform="translate(197.433349609375,41.482421875)"/>
<path d="M0 0 C0.78628281 -0.00004028 1.57256561 -0.00008057 2.38267517 -0.00012207 C4.04108699 0.00522894 5.69949851 0.02279419 7.35766602 0.05175781 C9.89743366 0.09366897 12.43455375 0.09282179 14.97460938 0.0859375 C16.58725803 0.09642855 18.19989301 0.10936621 19.8125 0.125 C20.57192398 0.12520142 21.33134796 0.12540283 22.11378479 0.12561035 C27.32493172 0.24279228 27.32493172 0.24279228 29.81420898 1.93945312 C31.46625551 4.60412041 31.27602812 6.54045941 30.83984375 9.59375 C29.29296875 11.75415039 29.29296875 11.75415039 26.83984375 13.59375 C24.13676883 13.97993041 21.84990007 14.1324949 19.15234375 14.08984375 C18.41282471 14.09129898 17.67330566 14.09275421 16.91137695 14.09425354 C15.35135957 14.09259714 13.79132541 14.08106465 12.23144531 14.06030273 C9.8475991 14.03134421 7.46597778 14.03969794 5.08203125 14.05273438 C3.56379131 14.04649649 2.04555837 14.03810514 0.52734375 14.02734375 C-0.18317139 14.03027939 -0.89368652 14.03321503 -1.62573242 14.03623962 C-5.73017941 13.95824398 -8.24466238 13.5816813 -11.16015625 10.59375 C-12.16015625 8.21875 -12.16015625 8.21875 -12.16015625 5.59375 C-9.08136513 0.16563392 -5.81938289 -0.12597089 0 0 Z " fill="#B2B2FA" transform="translate(296.16015625,410.40625)"/>
<path d="M0 0 C3.63 0 7.26 0 11 0 C11 11.55 11 23.1 11 35 C7.37 35 3.74 35 0 35 C0 23.45 0 11.9 0 0 Z " fill="#7A7AF7" transform="translate(347,190)"/>
<path d="M0 0 C11.22 0 22.44 0 34 0 C34 3.63 34 7.26 34 11 C22.78 11 11.56 11 0 11 C0 7.37 0 3.74 0 0 Z " fill="#7B7BF7" transform="translate(205,307)"/>
<path d="M0 0 C2.33562724 2.89046986 3.85433049 5.66375442 5.26171875 9.09765625 C5.65810547 10.06380859 6.05449219 11.02996094 6.46289062 12.02539062 C6.86701172 13.02763672 7.27113281 14.02988281 7.6875 15.0625 C8.10322266 16.06861328 8.51894531 17.07472656 8.94726562 18.11132812 C12 25.61534021 12 25.61534021 12 29 C4.08 29 -3.84 29 -12 29 C-8.38054118 19.08957704 -4.58989499 9.50531444 0 0 Z " fill="#FAFAFA" transform="translate(372,293)"/>
<path d="M0 0 C3.5 0.5625 3.5 0.5625 5.9375 2.3125 C8.34867466 7.3277433 8.36678601 12.10551678 7.5 17.5625 C5.375 20.8125 5.375 20.8125 2.5 22.5625 C-0.5625 23.1875 -0.5625 23.1875 -3.5 22.5625 C-6.22868315 19.86353028 -7.39625086 18.18575771 -8.03125 14.37109375 C-8.0209375 13.25863281 -8.010625 12.14617187 -8 11 C-8.0103125 9.88496094 -8.020625 8.76992187 -8.03125 7.62109375 C-7.15244722 2.56151596 -4.97677715 0.79983918 0 0 Z " fill="#FACD71" transform="translate(44.5,120.4375)"/>
<path d="M0 0 C2.54878922 1.17244304 4.06297378 2.06297378 6 4 C6.51781922 7.79734096 6.25914909 9.57425507 4.25 12.875 C-0.66507911 16.08870557 -5.29436162 15.96799106 -11 15 C-14.3125 12.9375 -14.3125 12.9375 -16 10 C-16.0625 6.375 -16.0625 6.375 -15 3 C-10.67342528 -1.22868841 -5.69304063 -0.64942834 0 0 Z " fill="#FACD70" transform="translate(164,42)"/>
<path d="M0 0 C2.5 1.625 2.5 1.625 4 4 C4 7.49447855 3.66530348 9.26077391 1.3125 11.875 C-1.76660389 13.37294243 -3.61700591 13.56383235 -7 13 C-9.4375 10.875 -9.4375 10.875 -11 8 C-10.9375 4.8125 -10.9375 4.8125 -10 2 C-6.2794164 -0.48038907 -4.40203429 -0.46337203 0 0 Z " fill="#B2B2FA" transform="translate(268,411)"/>
</svg>
