<?xml version="1.0" encoding="UTF-8"?>
<svg version="1.1" xmlns="http://www.w3.org/2000/svg" width="512" height="512">
<path d="M0 0 C1.01790619 0.00215515 2.03581238 0.0043103 3.08456421 0.00653076 C17.69363523 0.05620146 32.02575853 0.30709809 46.375 3.3125 C47.34985352 3.51117676 48.32470703 3.70985352 49.32910156 3.91455078 C88.37782454 12.08284366 124.83813271 27.70153311 156.375 52.3125 C157.27089844 52.99699219 158.16679687 53.68148437 159.08984375 54.38671875 C165.85375932 59.65466563 172.17242313 65.40219115 178.375 71.3125 C178.97538086 71.88419922 179.57576172 72.45589844 180.19433594 73.04492188 C188.53034882 81.04095281 196.17384608 89.25373428 203.05566406 98.53564453 C204.41568182 100.36728947 205.79649374 102.18190483 207.1796875 103.99609375 C213.5480373 112.42343333 219.17969786 121.11991515 224.375 130.3125 C224.73803223 130.94285156 225.10106445 131.57320312 225.47509766 132.22265625 C247.08503355 169.97093421 256.85198837 212.73995161 256.6875 255.9375 C256.68534485 256.95540619 256.6831897 257.97331238 256.68096924 259.02206421 C256.63129854 273.63113523 256.38040191 287.96325853 253.375 302.3125 C253.07698486 303.77478027 253.07698486 303.77478027 252.77294922 305.26660156 C244.60465634 344.31532454 228.98596689 380.77563271 204.375 412.3125 C203.69050781 413.20839844 203.00601562 414.10429687 202.30078125 415.02734375 C197.03283437 421.79125932 191.28530885 428.10992313 185.375 434.3125 C184.51745117 435.21307129 184.51745117 435.21307129 183.64257812 436.13183594 C175.6343274 444.48058817 167.41011118 452.12586051 158.11230469 459.01513672 C156.39124144 460.30037142 154.698612 461.6167016 153.0078125 462.94140625 C122.05599233 486.84699932 84.66878791 502.15926624 46.375 509.3125 C45.56998047 509.47476074 44.76496094 509.63702148 43.93554688 509.80419922 C13.88950647 515.6788185 -20.75595352 514.58629779 -50.625 508.3125 C-52.14794678 507.99901611 -52.14794678 507.99901611 -53.70166016 507.67919922 C-90.93790584 499.76731191 -125.56559467 483.59756002 -155.625 460.3125 C-156.97271484 459.28382813 -156.97271484 459.28382813 -158.34765625 458.234375 C-165.10647392 452.96442525 -171.42437048 447.22095326 -177.625 441.3125 C-178.22538086 440.74080078 -178.82576172 440.16910156 -179.44433594 439.58007812 C-187.79308817 431.5718274 -195.43836051 423.34761118 -202.32763672 414.04980469 C-203.61287142 412.32874144 -204.9292016 410.636112 -206.25390625 408.9453125 C-230.15949932 377.99349233 -245.47176624 340.60628791 -252.625 302.3125 C-252.78726074 301.50748047 -252.94952148 300.70246094 -253.11669922 299.87304688 C-258.58955505 271.88184616 -258.4709259 238.22377604 -252.625 210.3125 C-252.42632324 209.33764648 -252.22764648 208.36279297 -252.02294922 207.35839844 C-241.7272891 158.1397446 -219.29081567 114.71000304 -184.625 78.3125 C-184.05475098 77.71356934 -183.48450195 77.11463867 -182.89697266 76.49755859 C-174.89943802 68.16006957 -166.68545927 60.51490955 -157.40185547 53.63183594 C-155.57021053 52.27181818 -153.75559517 50.89100626 -151.94140625 49.5078125 C-143.51406667 43.1394627 -134.81758485 37.50780214 -125.625 32.3125 C-124.99464844 31.94946777 -124.36429688 31.58643555 -123.71484375 31.21240234 C-85.96656579 9.60246645 -43.19754839 -0.16448837 0 0 Z " fill="#4BAE4F" transform="translate(255.625,-0.3125)"/>
<path d="M0 0 C2.42500389 0.84854624 3.80440946 2.02650702 5.70606995 3.75053406 C6.75397202 4.70033646 6.75397202 4.70033646 7.82304382 5.66932678 C11.33158829 8.96525028 14.76010866 12.33330825 18.15895081 15.74198914 C18.89992508 16.48200668 19.64089935 17.22202423 20.40432739 17.98446655 C21.95421565 19.53367948 23.50286263 21.08413515 25.05030823 22.63578796 C27.42717955 25.01806294 29.80940351 27.39489285 32.19215393 29.77128601 C33.7022407 31.28203278 35.21201768 32.79308929 36.72145081 34.30448914 C37.43490158 35.01591568 38.14835236 35.72734222 38.88342285 36.46032715 C39.53823135 37.11828781 40.19303986 37.77624847 40.86769104 38.45414734 C41.44534714 39.03259903 42.02300323 39.61105072 42.61816406 40.20703125 C44.55881991 42.32926153 44.95964828 43.55297069 45.28785706 46.44120789 C44.60250341 53.56888576 38.49607875 58.45578169 33.65652466 63.26400757 C32.54800539 64.37720681 32.54800539 64.37720681 31.41709179 65.51289493 C28.94458407 67.99336701 26.46500466 70.46664435 23.98536682 72.93998718 C22.20924572 74.7188188 20.43355029 76.49807552 18.6582489 78.27772522 C14.33893569 82.6052101 10.01496226 86.92798936 5.68866152 91.24848732 C2.17253713 94.76009107 -1.34162559 98.27364678 -4.85440254 101.78859901 C-5.35475735 102.28926029 -5.85511216 102.78992157 -6.37062924 103.3057544 C-7.38713592 104.32290053 -8.40363811 105.34005115 -9.42013586 106.3572062 C-18.9462322 115.88900215 -28.47844308 125.4146643 -38.01276345 134.93823306 C-46.19183208 143.10836378 -54.36563899 151.28372783 -62.53562927 159.4629364 C-72.02717124 168.96518279 -81.52195098 178.46417453 -91.02191693 187.95799953 C-92.03497133 188.97041684 -93.04802157 189.98283834 -94.06106758 190.99526405 C-94.55948803 191.49337595 -95.05790848 191.99148785 -95.57143257 192.50469404 C-99.08206646 196.01360171 -102.59037551 199.52482351 -106.09779167 203.03694725 C-110.81834773 207.76369991 -115.54417875 212.48511565 -120.27361679 217.20298386 C-122.00998855 218.93670778 -123.74465442 220.67214209 -125.47749901 222.4093914 C-127.84001977 224.77736387 -130.20859301 227.13911087 -132.5788269 229.49935913 C-133.26579586 230.19078953 -133.95276482 230.88221993 -134.66055101 231.59460276 C-138.65078175 235.55221347 -142.19123605 239.06156191 -147.83714294 240.31620789 C-155.88932811 238.73734805 -162.80629841 229.05254293 -168.42234802 223.42289734 C-169.32577942 222.52121826 -170.22921082 221.61953918 -171.16001892 220.6905365 C-173.61447389 218.24060051 -176.06580348 215.78756041 -178.51640534 213.33377099 C-181.0906184 210.7570086 -183.66729033 208.18270678 -186.24356079 205.60800171 C-190.56325552 201.29011989 -194.8808516 196.97014803 -199.19725037 192.64897156 C-204.18283229 187.6579349 -209.17202491 182.67052935 -214.16308099 177.68496734 C-218.45978964 173.39279844 -222.7545444 169.09868179 -227.04767531 164.80293435 C-229.60700239 162.24205103 -232.16699385 159.68184168 -234.72875404 157.12339211 C-237.5800101 154.27556461 -240.42715746 151.42366362 -243.27391052 148.57133484 C-244.12017502 147.72709457 -244.96643951 146.88285431 -245.83834839 146.01303101 C-246.61342743 145.23513214 -247.38850647 144.45723328 -248.18707275 143.65576172 C-249.19605983 142.6462091 -249.19605983 142.6462091 -250.22543049 141.61626148 C-253.0708301 138.57184795 -254.85124705 136.59286654 -255.64964294 132.44120789 C-254.99657202 128.52278232 -254.54820851 127.77596225 -252.00242615 124.98197937 C-251.36576019 124.28216949 -250.72909424 123.58235962 -250.07313538 122.86134338 C-246.69101629 119.27838815 -243.24388656 115.76787367 -239.75511169 112.28886414 C-238.61179131 111.14410866 -238.61179131 111.14410866 -237.44537354 109.97622681 C-235.84908227 108.37926 -234.25154741 106.78353535 -232.65281677 105.18901062 C-230.19811472 102.73971053 -227.74885399 100.28505885 -225.30003357 97.82987976 C-223.74371387 96.27422009 -222.18708443 94.71887022 -220.63011169 93.16386414 C-219.89681137 92.42853958 -219.16351105 91.69321503 -218.4079895 90.93560791 C-217.73000809 90.26077866 -217.05202667 89.5859494 -216.35350037 88.89067078 C-215.45917549 87.99753929 -215.45917549 87.99753929 -214.54678345 87.08636475 C-212.50238124 85.21251554 -211.14037814 84.71325268 -208.39964294 84.19120789 C-200.00371364 85.43504926 -193.15703926 95.48203796 -187.41165924 101.35128784 C-185.31283966 103.49273769 -183.2041829 105.62439368 -181.09617996 107.75679779 C-177.18751717 111.71098586 -173.28317076 115.66924218 -169.39476013 119.64335632 C-166.67304726 122.42430092 -163.93941169 125.19301219 -161.19738007 127.95391846 C-160.15780404 129.00524921 -159.1227824 130.06110363 -158.09244537 131.12149048 C-156.65890959 132.59583999 -155.21071269 134.0541042 -153.75804138 135.50956726 C-152.93833862 136.34338928 -152.11863586 137.1772113 -151.27409363 138.03630066 C-149.25016252 139.88368243 -149.25016252 139.88368243 -147.24071312 139.62917328 C-143.95941947 138.24034547 -141.77579375 135.84058435 -139.31806946 133.33866882 C-138.75253266 132.77498974 -138.18699587 132.21131065 -137.6043216 131.63055038 C-135.70711346 129.73594635 -133.82084367 127.8308127 -131.93431091 125.92558289 C-130.57802911 124.56681837 -129.22107907 123.20872058 -127.86351013 121.85124207 C-124.17526771 118.15958354 -120.49628266 114.4588197 -116.81871557 110.75653076 C-112.97358268 106.88895109 -109.11958247 103.03022994 -105.26637268 99.17070007 C-97.96738972 91.85721904 -90.6756629 84.53655045 -83.38685238 77.21293259 C-70.32583194 64.09000907 -57.25261546 50.97924036 -44.17668641 37.87117386 C-39.58468711 33.26731429 -34.99588363 28.66029878 -30.4096868 24.05065918 C-27.5616111 21.18879192 -24.71157371 18.32888403 -21.86108398 15.46942139 C-20.53550504 14.13875776 -19.21080404 12.80721892 -17.88702774 11.47476196 C-16.08603623 9.66214724 -14.28203456 7.85258298 -12.47724915 6.04374695 C-11.94885244 5.51039104 -11.42045574 4.97703514 -10.87604702 4.42751694 C-7.17783803 0.73038892 -5.38745375 -0.87574522 0 0 Z " fill="#FEFEFE" transform="translate(361.02464294433594,136.3087921142578)"/>
</svg>
