<?xml version="1.0" encoding="UTF-8"?>
<svg version="1.1" xmlns="http://www.w3.org/2000/svg" width="512" height="512">
<path d="M0 0 C89.1 0 178.2 0 270 0 C270 10.56 270 21.12 270 32 C309.93 32 349.86 32 391 32 C391.12375 61.1740625 391.12375 61.1740625 391.25 90.9375 C391.28641602 97.04757568 391.32283203 103.15765137 391.36035156 109.45288086 C391.37841797 116.99328613 391.37841797 116.99328613 391.3817749 120.53858948 C391.38786216 122.98120551 391.40181429 125.42381057 391.42230225 127.86634827 C391.6898519 161.48380069 383.12292912 189.41043769 359.34765625 213.7109375 C350.90470752 221.7695523 341.40906985 227.79546507 331 233 C330.67 282.83 330.34 332.66 330 384 C322.125 377.25 322.125 377.25 318.71704102 373.83056641 C317.95678116 373.07023102 317.1965213 372.30989563 316.41322327 371.52651978 C315.61814865 370.72628387 314.82307404 369.92604797 314.00390625 369.1015625 C313.17036118 368.26660248 312.3368161 367.43164246 311.47801208 366.57138062 C308.83713476 363.92494152 306.19977104 361.27503241 303.5625 358.625 C301.76390351 356.82138357 299.96507773 355.01799575 298.16601562 353.21484375 C293.77468752 348.81253739 289.38623271 344.40738286 285 340 C279.532533 344.55000419 274.50103312 349.39504497 269.51171875 354.4609375 C267.90312482 356.08216028 266.29439704 357.70325026 264.68554688 359.32421875 C262.1708679 361.86385425 259.65782266 364.40506809 257.1472168 366.94873047 C254.71052617 369.41544532 252.26780084 371.87605213 249.82421875 374.3359375 C248.6914576 375.48888809 248.6914576 375.48888809 247.53581238 376.66513062 C246.48880913 377.717202 246.48880913 377.717202 245.4206543 378.79052734 C244.80667282 379.41196625 244.19269135 380.03340515 243.56010437 380.67367554 C242 382 242 382 240 382 C239.505 333.985 239.505 333.985 239 285 C233.39 290.61 227.78 296.22 222 302 C209.50016508 311.88623307 195.91579503 319.40657686 181 325 C180.67 357.01 180.34 389.02 180 422 C196.52813251 421.8030078 196.52813251 421.8030078 213.05541992 421.54956055 C235.04192768 421.32476006 235.04192768 421.32476006 245 427 C246.2835437 427.71482544 246.2835437 427.71482544 247.59301758 428.4440918 C258.42307474 434.81632541 264.18049841 444.78243544 269 456 C273.52805344 474.11221377 270 493.33035738 270 512 C180.9 512 91.8 512 0 512 C0 449.87649402 0 449.87649402 12.9609375 435.8828125 C18.58736857 430.50012573 24.85789796 427.02647779 32 424 C32.80300537 423.64873047 33.60601074 423.29746094 34.43334961 422.93554688 C39.61647356 421.57599242 44.62548118 421.75469835 49.9609375 421.8046875 C51.48521362 421.80770874 51.48521362 421.80770874 53.0402832 421.81079102 C56.81856837 421.82121659 60.59678895 421.84913908 64.375 421.875 C72.83125 421.91625 81.2875 421.9575 90 422 C89.67 389.99 89.34 357.98 89 325 C81.08 321.535 81.08 321.535 73 318 C56.4000011 309.8886369 44.16081656 298.16081656 31 285 C30.67 317.67 30.34 350.34 30 384 C22.125 377.25 22.125 377.25 18.71704102 373.83056641 C17.95678116 373.07023102 17.1965213 372.30989563 16.41322327 371.52651978 C15.61814865 370.72628387 14.82307404 369.92604797 14.00390625 369.1015625 C13.17036118 368.26660248 12.3368161 367.43164246 11.47801208 366.57138062 C8.83713476 363.92494152 6.19977104 361.27503241 3.5625 358.625 C1.76390351 356.82138357 -0.03492227 355.01799575 -1.83398438 353.21484375 C-6.22531248 348.81253739 -10.61376729 344.40738286 -15 340 C-20.467467 344.55000419 -25.49896688 349.39504497 -30.48828125 354.4609375 C-32.09687518 356.08216028 -33.70560296 357.70325026 -35.31445312 359.32421875 C-37.8291321 361.86385425 -40.34217734 364.40506809 -42.8527832 366.94873047 C-45.28947383 369.41544532 -47.73219916 371.87605213 -50.17578125 374.3359375 C-51.3085424 375.48888809 -51.3085424 375.48888809 -52.46418762 376.66513062 C-53.51119087 377.717202 -53.51119087 377.717202 -54.5793457 378.79052734 C-55.19332718 379.41196625 -55.80730865 380.03340515 -56.43989563 380.67367554 C-58 382 -58 382 -60 382 C-60.33 332.83 -60.66 283.66 -61 233 C-67.435 229.535 -67.435 229.535 -74 226 C-76.55862026 224.22599039 -78.9312397 222.52736705 -81.3125 220.5625 C-82.19083496 219.85057495 -82.19083496 219.85057495 -83.08691406 219.12426758 C-103.43788193 202.42755697 -117.53314368 178.27435131 -121 152 C-121.14277841 148.10092026 -121.12625628 144.20451281 -121.11352539 140.30322266 C-121.11364593 139.11303717 -121.11376646 137.92285168 -121.11389065 136.69659996 C-121.11314557 132.85240165 -121.10553574 129.00825211 -121.09765625 125.1640625 C-121.09618558 122.78735375 -121.09516564 120.41064468 -121.09460449 118.03393555 C-121.08936614 109.23095209 -121.07540491 100.42797556 -121.0625 91.625 C-121.041875 71.94875 -121.02125 52.2725 -121 32 C-81.07 32 -41.14 32 0 32 C0 21.44 0 10.88 0 0 Z M-91 62 C-91.04550926 71.48517986 -91.08206291 80.97028507 -91.10362434 90.45555019 C-91.11398206 94.86176608 -91.12799132 99.26790224 -91.15087891 103.67407227 C-91.17289755 107.94053472 -91.18462852 112.20692138 -91.18975449 116.47343636 C-91.19339897 118.08660129 -91.20051226 119.69976292 -91.21146011 121.31289482 C-91.38114531 147.39576003 -87.49774531 170.11097128 -69 190 C-65.01331205 194.50266985 -65.01331205 194.50266985 -60 197 C-60 152.45 -60 107.9 -60 62 C-70.23 62 -80.46 62 -91 62 Z M330 62 C330 106.55 330 151.1 330 197 C345.77531426 185.16851431 356.78973591 168.75365384 360 149 C361.17936185 139.15934267 361.1306618 129.31343608 361.09765625 119.421875 C361.09578673 117.75750776 361.09436536 116.09313996 361.09336853 114.42877197 C361.08958535 110.08879017 361.0797919 105.74884286 361.06866455 101.40887451 C361.05835918 96.963994 361.05385153 92.51910781 361.04882812 88.07421875 C361.03816505 79.38279506 361.02060326 70.69140582 361 62 C350.77 62 340.54 62 330 62 Z " fill="#FDBE00" transform="translate(121,0)"/>
<path d="M0 0 C44.55 0 89.1 0 135 0 C135 62.17539418 135 62.17539418 122.6875 82.0625 C121.49797822 84.17707849 120.31896319 86.29760085 119.15039062 88.42382812 C116.60205424 93.00978465 113.98299082 97.53541314 111.2097168 101.98924255 C109.88146857 104.11756245 109.88146857 104.11756245 108.60229492 106.99462891 C106.17966011 110.02670606 103.25176324 110.15398016 99.6015625 110.61328125 C98.85572906 110.72545486 98.10989563 110.83762848 97.34146118 110.95320129 C95.7329067 111.19363757 94.12293733 111.42475495 92.51184082 111.64752197 C89.99339652 112.00092664 87.48298576 112.38970691 84.97167969 112.79052734 C80.6549541 113.47844784 76.33483534 114.14006977 72.01220703 114.78979492 C69.34194426 115.19248498 66.67295634 115.60303008 64.00390625 116.01367188 C62.28132216 116.27391559 60.55866838 116.53369851 58.8359375 116.79296875 C58.05044525 116.91480026 57.264953 117.03663177 56.45565796 117.16215515 C51.91444539 117.83497169 47.59097815 118.11749315 43 118 C43 118.66 43 119.32 43 120 C43.87833496 120.38828979 43.87833496 120.38828979 44.77441406 120.78442383 C47.1688396 122.09221724 48.71093329 123.49736101 50.609375 125.44921875 C51.28226563 126.13306641 51.95515625 126.81691406 52.6484375 127.52148438 C53.34195313 128.23626953 54.03546875 128.95105469 54.75 129.6875 C59.37910014 134.43540784 64.06077471 138.99017197 69.08935547 143.31420898 C72.09616155 145.96716018 74.88756419 148.81952201 77.6875 151.6875 C78.77223178 152.79802801 79.85942891 153.90615391 80.94921875 155.01171875 C81.45888184 155.5329834 81.96854492 156.05424805 82.49365234 156.59130859 C84.14501341 158.21396518 84.14501341 158.21396518 86.95703125 159.95703125 C87.63121094 160.63121094 88.30539063 161.30539063 89 162 C88.70922852 165.11645508 88.70922852 165.11645508 88 169 C87.79648926 170.29405762 87.59297852 171.58811523 87.38330078 172.92138672 C87.1547081 174.34093915 86.92534319 175.76036738 86.6953125 177.1796875 C86.50834305 178.33623337 86.50834305 178.33623337 86.31759644 179.5161438 C86.05403171 181.14493235 85.79011981 182.77366476 85.52587891 184.40234375 C85.13179018 186.83311756 84.73965929 189.2642016 84.34765625 191.6953125 C82.65679386 202.14711994 80.86913323 212.57862176 79 223 C83.2656606 221.38184981 87.32473785 219.41018338 91.3984375 217.3671875 C92.11045319 217.01165802 92.82246887 216.65612854 93.55606079 216.28982544 C95.0643958 215.53599747 96.57222843 214.78116355 98.07958984 214.02539062 C100.33154216 212.89677976 102.58555133 211.77236541 104.83984375 210.6484375 C112.75974057 206.68925068 120.63043377 202.66446906 128.38754272 198.39303589 C132.78630897 196 132.78630897 196 135 196 C135 300.28 135 404.56 135 512 C90.45 512 45.9 512 0 512 C0 449.87649402 0 449.87649402 12.9609375 435.8828125 C18.58736857 430.50012573 24.85789796 427.02647779 32 424 C32.80300537 423.64873047 33.60601074 423.29746094 34.43334961 422.93554688 C39.61647356 421.57599242 44.62548118 421.75469835 49.9609375 421.8046875 C51.48521362 421.80770874 51.48521362 421.80770874 53.0402832 421.81079102 C56.81856837 421.82121659 60.59678895 421.84913908 64.375 421.875 C72.83125 421.91625 81.2875 421.9575 90 422 C89.67 389.99 89.34 357.98 89 325 C81.08 321.535 81.08 321.535 73 318 C56.4000011 309.8886369 44.16081656 298.16081656 31 285 C30.67 317.67 30.34 350.34 30 384 C22.125 377.25 22.125 377.25 18.71704102 373.83056641 C17.95678116 373.07023102 17.1965213 372.30989563 16.41322327 371.52651978 C15.61814865 370.72628387 14.82307404 369.92604797 14.00390625 369.1015625 C13.17036118 368.26660248 12.3368161 367.43164246 11.47801208 366.57138062 C8.83713476 363.92494152 6.19977104 361.27503241 3.5625 358.625 C1.76390351 356.82138357 -0.03492227 355.01799575 -1.83398438 353.21484375 C-6.22531248 348.81253739 -10.61376729 344.40738286 -15 340 C-20.467467 344.55000419 -25.49896688 349.39504497 -30.48828125 354.4609375 C-32.09687518 356.08216028 -33.70560296 357.70325026 -35.31445312 359.32421875 C-37.8291321 361.86385425 -40.34217734 364.40506809 -42.8527832 366.94873047 C-45.28947383 369.41544532 -47.73219916 371.87605213 -50.17578125 374.3359375 C-51.3085424 375.48888809 -51.3085424 375.48888809 -52.46418762 376.66513062 C-53.51119087 377.717202 -53.51119087 377.717202 -54.5793457 378.79052734 C-55.19332718 379.41196625 -55.80730865 380.03340515 -56.43989563 380.67367554 C-58 382 -58 382 -60 382 C-60.33 332.83 -60.66 283.66 -61 233 C-67.435 229.535 -67.435 229.535 -74 226 C-76.55862026 224.22599039 -78.9312397 222.52736705 -81.3125 220.5625 C-82.19083496 219.85057495 -82.19083496 219.85057495 -83.08691406 219.12426758 C-103.43788193 202.42755697 -117.53314368 178.27435131 -121 152 C-121.14277841 148.10092026 -121.12625628 144.20451281 -121.11352539 140.30322266 C-121.11364593 139.11303717 -121.11376646 137.92285168 -121.11389065 136.69659996 C-121.11314557 132.85240165 -121.10553574 129.00825211 -121.09765625 125.1640625 C-121.09618558 122.78735375 -121.09516564 120.41064468 -121.09460449 118.03393555 C-121.08936614 109.23095209 -121.07540491 100.42797556 -121.0625 91.625 C-121.041875 71.94875 -121.02125 52.2725 -121 32 C-81.07 32 -41.14 32 0 32 C0 21.44 0 10.88 0 0 Z M-91 62 C-91.04550926 71.48517986 -91.08206291 80.97028507 -91.10362434 90.45555019 C-91.11398206 94.86176608 -91.12799132 99.26790224 -91.15087891 103.67407227 C-91.17289755 107.94053472 -91.18462852 112.20692138 -91.18975449 116.47343636 C-91.19339897 118.08660129 -91.20051226 119.69976292 -91.21146011 121.31289482 C-91.38114531 147.39576003 -87.49774531 170.11097128 -69 190 C-65.01331205 194.50266985 -65.01331205 194.50266985 -60 197 C-60 152.45 -60 107.9 -60 62 C-70.23 62 -80.46 62 -91 62 Z " fill="#FED92C" transform="translate(121,0)"/>
<path d="M0 0 C39.93 0 79.86 0 121 0 C121.03738281 12.64054687 121.07476562 25.28109375 121.11328125 38.3046875 C121.14357348 46.33464619 121.1746095 54.36459072 121.20898438 62.39453125 C121.26335314 75.1271025 121.31477103 87.85963449 121.34643555 100.59228516 C121.36951653 109.8677661 121.40302595 119.1431429 121.44870156 128.41854107 C121.47249845 133.32303762 121.49131539 138.22743189 121.49761391 143.13198471 C121.50372666 147.76297759 121.52394533 152.39370925 121.55427551 157.0246048 C121.56295778 158.71021067 121.56679912 160.39585083 121.56500816 162.08147812 C121.55397707 177.2756533 123.10399166 192.20305144 128.1875 206.625 C128.63706055 207.93283447 128.63706055 207.93283447 129.09570312 209.26708984 C133.47212055 221.60452639 139.57333127 236.76963545 149.07415771 246.01933289 C151.85680397 250.32609374 151.53055253 253.99822252 151.45410156 259.02270508 C151.45468567 260.02805298 151.45526978 261.03340088 151.45587158 262.06921387 C151.45308882 265.38633971 151.42198672 268.70256272 151.390625 272.01953125 C151.38316332 274.32166554 151.37747004 276.62380618 151.37347412 278.9259491 C151.3582122 284.98088156 151.318925 291.03542934 151.2746582 297.09020996 C151.23371789 303.2703735 151.21546572 309.45059928 151.1953125 315.63085938 C151.15243176 327.75407513 151.08417321 339.87700556 151 352 C147.11820114 348.72199957 143.30617826 345.43178828 139.71704102 341.83056641 C138.95678116 341.07023102 138.1965213 340.30989563 137.41322327 339.52651978 C136.61814865 338.72628387 135.82307404 337.92604797 135.00390625 337.1015625 C134.17036118 336.26660248 133.3368161 335.43164246 132.47801208 334.57138062 C129.83713476 331.92494152 127.19977104 329.27503241 124.5625 326.625 C122.76390351 324.82138357 120.96507773 323.01799575 119.16601562 321.21484375 C114.77468752 316.81253739 110.38623271 312.40738286 106 308 C100.532533 312.55000419 95.50103312 317.39504497 90.51171875 322.4609375 C88.90312482 324.08216028 87.29439704 325.70325026 85.68554688 327.32421875 C83.1708679 329.86385425 80.65782266 332.40506809 78.1472168 334.94873047 C75.71052617 337.41544532 73.26780084 339.87605213 70.82421875 342.3359375 C69.6914576 343.48888809 69.6914576 343.48888809 68.53581238 344.66513062 C67.48880913 345.717202 67.48880913 345.717202 66.4206543 346.79052734 C65.80667282 347.41196625 65.19269135 348.03340515 64.56010437 348.67367554 C63 350 63 350 61 350 C60.67 300.83 60.34 251.66 60 201 C53.565 197.535 53.565 197.535 47 194 C44.44137974 192.22599039 42.0687603 190.52736705 39.6875 188.5625 C38.80916504 187.85057495 38.80916504 187.85057495 37.91308594 187.12426758 C17.56211807 170.42755697 3.46685632 146.27435131 0 120 C-0.14277841 116.10092026 -0.12625628 112.20451281 -0.11352539 108.30322266 C-0.11364593 107.11303717 -0.11376646 105.92285168 -0.11389065 104.69659996 C-0.11314557 100.85240165 -0.10553574 97.00825211 -0.09765625 93.1640625 C-0.09618558 90.78735375 -0.09516564 88.41064468 -0.09460449 86.03393555 C-0.08936614 77.23095209 -0.07540491 68.42797556 -0.0625 59.625 C-0.041875 39.94875 -0.02125 20.2725 0 0 Z M30 30 C29.95449074 39.48517986 29.91793709 48.97028507 29.89637566 58.45555019 C29.88601794 62.86176608 29.87200868 67.26790224 29.84912109 71.67407227 C29.82710245 75.94053472 29.81537148 80.20692138 29.81024551 84.47343636 C29.80660103 86.08660129 29.79948774 87.69976292 29.78853989 89.31289482 C29.61885469 115.39576003 33.50225469 138.11097128 52 158 C55.98668795 162.50266985 55.98668795 162.50266985 61 165 C61 120.45 61 75.9 61 30 C50.77 30 40.54 30 30 30 Z " fill="#FF9100" transform="translate(0,32)"/>
<path d="M0 0 C39.93 0 79.86 0 121 0 C121.0825 19.449375 121.165 38.89875 121.25 58.9375 C121.28641602 65.04757568 121.32283203 71.15765137 121.36035156 77.45288086 C121.37841797 84.99328613 121.37841797 84.99328613 121.3817749 88.53858948 C121.38786216 90.98120551 121.40181429 93.42381057 121.42230225 95.86634827 C121.6898519 129.48380069 113.12292912 157.41043769 89.34765625 181.7109375 C80.90470752 189.7695523 71.40906985 195.79546507 61 201 C60.67 250.83 60.34 300.66 60 352 C52.125 345.25 52.125 345.25 48.71704102 341.83056641 C47.95678116 341.07023102 47.1965213 340.30989563 46.41322327 339.52651978 C45.61814865 338.72628387 44.82307404 337.92604797 44.00390625 337.1015625 C43.17036118 336.26660248 42.3368161 335.43164246 41.47801208 334.57138062 C38.83713476 331.92494152 36.19977104 329.27503241 33.5625 326.625 C31.76390351 324.82138357 29.96507773 323.01799575 28.16601562 321.21484375 C23.77468752 316.81253739 19.38623271 312.40738286 15 308 C9.532533 312.55000419 4.50103312 317.39504497 -0.48828125 322.4609375 C-2.09687518 324.08216028 -3.70560296 325.70325026 -5.31445312 327.32421875 C-7.8291321 329.86385425 -10.34217734 332.40506809 -12.8527832 334.94873047 C-15.28947383 337.41544532 -17.73219916 339.87605213 -20.17578125 342.3359375 C-21.3085424 343.48888809 -21.3085424 343.48888809 -22.46418762 344.66513062 C-23.51119087 345.717202 -23.51119087 345.717202 -24.5793457 346.79052734 C-25.19332718 347.41196625 -25.80730865 348.03340515 -26.43989563 348.67367554 C-28 350 -28 350 -30 350 C-30.16242813 336.98686045 -30.28669066 323.97396337 -30.3626852 310.9600153 C-30.39916526 304.91658194 -30.44862178 298.87384381 -30.52807617 292.83081055 C-30.60431988 286.99523049 -30.64602959 281.16031771 -30.6641407 275.32427788 C-30.67704168 273.10153134 -30.70223501 270.87881998 -30.7401104 268.65635872 C-30.79118116 265.53451718 -30.79791312 262.41540717 -30.79467773 259.29321289 C-30.81984467 258.38114578 -30.8450116 257.46907867 -30.87094116 256.52937317 C-30.78819709 249.11540083 -27.79713595 245.411582 -23 240 C-7.07544551 216.93631959 -0.71460798 189.7384826 -0.68115234 162.11425781 C-0.67183676 160.33910677 -0.66166571 158.56396004 -0.65071106 156.78881836 C-0.62358065 152.00456668 -0.60831236 147.22034417 -0.59528303 142.43603611 C-0.57957771 137.42320502 -0.55281135 132.41043283 -0.5272522 127.39764404 C-0.4805948 117.92075312 -0.44378785 108.44385096 -0.41057932 98.9669044 C-0.36509146 86.1497246 -0.30426652 73.33261798 -0.24433136 60.51549911 C-0.15040615 40.34370289 -0.0768684 20.17188514 0 0 Z M60 30 C60 74.55 60 119.1 60 165 C75.77531426 153.16851431 86.78973591 136.75365384 90 117 C91.17936185 107.15934267 91.1306618 97.31343608 91.09765625 87.421875 C91.09578673 85.75750776 91.09436536 84.09313996 91.09336853 82.42877197 C91.08958535 78.08879017 91.0797919 73.74884286 91.06866455 69.40887451 C91.05835918 64.963994 91.05385153 60.51910781 91.04882812 56.07421875 C91.03816505 47.38279506 91.02060326 38.69140582 91 30 C80.77 30 70.54 30 60 30 Z " fill="#FE641A" transform="translate(391,32)"/>
<path d="M0 0 C0.66 0 1.32 0 2 0 C2.43768707 0.87870506 2.43768707 0.87870506 2.88421631 1.77516174 C5.93175572 7.89242778 8.9821506 14.00826378 12.03417969 20.12329102 C13.17162631 22.40320146 14.30835346 24.68347101 15.44433594 26.96411133 C17.08077312 30.24916583 18.71982495 33.53290447 20.359375 36.81640625 C20.86370056 37.83021866 21.36802612 38.84403107 21.88763428 39.88856506 C22.83022226 41.77388929 23.78786234 43.65179316 24.76319885 45.52038574 C26 48 26 48 26.76792908 50.16516113 C27.53370557 52.38858389 27.53370557 52.38858389 30 55 C34.38811087 56.46993788 38.8225132 56.91288818 43.41015625 57.3984375 C44.742824 57.56252727 46.07513553 57.72953403 47.40708923 57.89932251 C50.90631329 58.33786636 54.40884357 58.7385553 57.91351318 59.13085938 C61.47943472 59.53597415 65.04133171 59.97357807 68.60351562 60.41015625 C72.60606982 60.90053541 76.60870915 61.38531902 80.61476135 61.8465271 C81.80286911 61.98402374 82.99097687 62.12152039 84.21508789 62.26318359 C85.26225479 62.38196869 86.30942169 62.50075378 87.38832092 62.62313843 C90 63 90 63 93 64 C91.91286132 67.26141605 91.31971975 67.79115163 88.75 69.875 C84.78618429 73.22570752 81.14056938 76.80808119 77.5 80.5 C73.5207339 84.52558918 69.5042486 88.38267393 65.1796875 92.0390625 C61.42801051 95.41422711 57.92021026 99.04137871 54.390625 102.64648438 C50.20441198 106.89779401 50.20441198 106.89779401 48 108 C49.13580082 117.17116785 50.74001783 126.23141013 52.4375 135.3125 C52.65647949 136.48417725 52.87545898 137.65585449 53.10107422 138.86303711 C53.53350358 141.17291722 53.96627468 143.48273339 54.39941406 145.79248047 C55.21556296 150.15124639 56.02393678 154.51115887 56.8125 158.875 C57.04582031 160.15117187 57.27914062 161.42734375 57.51953125 162.7421875 C57.93558104 165.56320805 58.10269828 168.15687928 58 171 C57.07703125 170.53851563 56.1540625 170.07703125 55.203125 169.6015625 C54.5846167 169.29234863 53.9661084 168.98313477 53.32885742 168.66455078 C51.9148281 167.95745309 50.50093337 167.25008619 49.0871582 166.54248047 C45.11193612 164.55337353 41.13437942 162.56918491 37.15234375 160.59375 C35.49738613 159.77085284 33.84243832 158.94793597 32.1875 158.125 C31.35621582 157.71354736 30.52493164 157.30209473 29.66845703 156.87817383 C25.30141435 154.70304903 20.98554121 152.46473883 16.71484375 150.10546875 C15.86059814 149.63802246 15.00635254 149.17057617 14.1262207 148.68896484 C12.49845786 147.79317891 10.87798311 146.88397628 9.26635742 145.95947266 C8.5313501 145.55647949 7.79634277 145.15348633 7.0390625 144.73828125 C6.08314209 144.19747925 6.08314209 144.19747925 5.10791016 143.64575195 C-0.9263342 141.7971793 -6.53603004 145.53463261 -11.73046875 148.26171875 C-12.56153641 148.68999466 -13.39260406 149.11827057 -14.24885559 149.55952454 C-16.89912316 150.92784381 -19.54324435 152.30760521 -22.1875 153.6875 C-23.94558741 154.59643103 -25.70404766 155.50464126 -27.46289062 156.41210938 C-35.39475 160.51478882 -43.30009348 164.61509347 -50.99731445 169.14770508 C-53 170 -53 170 -56 169 C-55.08982795 163.24895293 -54.17211101 157.49914451 -53.25 151.75 C-53.11471893 150.90453613 -52.97943787 150.05907227 -52.84005737 149.18798828 C-51.14624713 138.63160392 -49.41699047 128.10191159 -47.03027344 117.67480469 C-46.18385608 113.82048733 -45.56047459 110.74146918 -47 107 C-48.86685217 104.86724412 -48.86685217 104.86724412 -51.3125 102.9375 C-55.43877177 99.40153892 -59.32185241 95.74816268 -63.125 91.875 C-66.9004384 88.04967379 -70.75260407 84.40601933 -74.8515625 80.9296875 C-78.36978748 77.76968179 -81.66050302 74.37951596 -84.96484375 70.99804688 C-87.70625742 68.13890994 -87.70625742 68.13890994 -91 66 C-91 65.34 -91 64.68 -91 64 C-83.09877697 62.82399424 -75.19721226 61.65032272 -67.29519939 60.47963715 C-63.62607097 59.93597957 -59.95706591 59.39151595 -56.28833008 58.84521484 C-52.74841086 58.31812568 -49.20818442 57.79314783 -45.66773415 57.26963806 C-44.31642287 57.06944587 -42.96522442 56.86849062 -41.61414146 56.66676331 C-39.72312233 56.38455192 -37.83166312 56.10529412 -35.94018555 55.82617188 C-34.86318893 55.66628784 -33.78619232 55.50640381 -32.67655945 55.3416748 C-30 55 -30 55 -27 55 C-26.72201569 54.28137283 -26.44403137 53.56274567 -26.15762329 52.82234192 C-25.03784469 50.09226719 -23.80006865 47.47993494 -22.47802734 44.8425293 C-21.97765961 43.84186935 -21.47729187 42.84120941 -20.96176147 41.81022644 C-20.42523956 40.7423439 -19.88871765 39.67446136 -19.3359375 38.57421875 C-18.78386627 37.47149124 -18.23179504 36.36876373 -17.66299438 35.23262024 C-15.90220719 31.7166358 -14.13864079 28.20205378 -12.375 24.6875 C-11.17927867 22.30163689 -9.98418944 19.91545786 -8.7890625 17.52929688 C-5.86147739 11.68514236 -2.93161025 5.84213632 0 0 Z " fill="#FE9100" transform="translate(255,54)"/>
<path d="M0 0 C20.13 0 40.26 0 61 0 C61.16065467 29.30609004 61.16065467 29.30609004 61.20101547 43.88636112 C61.22309509 51.74033974 61.25102985 59.59414657 61.30175781 67.44799805 C61.34193159 73.67084706 61.36750438 79.89356585 61.37635398 86.11654097 C61.38151783 89.40423774 61.39562084 92.69148061 61.42292023 95.97907829 C61.69036882 129.54938838 53.08427816 157.4499425 29.34765625 181.7109375 C20.69116153 189.9733774 11.01694149 196.37690679 0 201 C-0.27429247 196.05659751 -0.47254241 191.11771535 -0.60424805 186.16845703 C-0.65918904 184.48993731 -0.73398136 182.81193493 -0.82983398 181.13525391 C-1.60643897 167.18958794 -1.60643897 167.18958794 2.32836914 161.82641602 C5.1096354 159.34856062 7.97976052 157.17511296 11 155 C28.69888399 136.12677008 30.06041276 111.73165599 30.31640625 87.421875 C30.33702748 85.7575027 30.3580251 84.09313503 30.37937927 82.42877197 C30.43406714 78.08884473 30.48370694 73.74887451 30.53222656 69.40887451 C30.58283561 64.96395125 30.63831408 60.5190889 30.69335938 56.07421875 C30.8002872 47.38286305 30.90142078 38.6914544 31 30 C20.77 30 10.54 30 0 30 C0 20.1 0 10.2 0 0 Z " fill="#FDBE00" transform="translate(451,32)"/>
<path d="M0 0 C20.13 0 40.26 0 61 0 C61 9.9 61 19.8 61 30 C50.77 30 40.54 30 30 30 C30.08611871 39.48531026 30.18017663 48.97045599 30.28752708 58.45555019 C30.33709197 62.86169336 30.38341898 67.26781703 30.421875 71.67407227 C30.45923889 75.94064016 30.50572296 80.20702687 30.55806351 84.47343636 C30.57634042 86.08655625 30.59154228 87.69971456 30.60334396 89.31289482 C30.66659378 97.67372387 30.9592956 105.92755363 31.92041016 114.23852539 C32.03966889 115.27182684 32.03966889 115.27182684 32.1613369 116.32600307 C34.16860017 132.16525978 42.07421818 146.51173643 53 158 C53.67627441 158.40516846 54.35254883 158.81033691 55.04931641 159.2277832 C57.71286789 160.96779319 59.24799945 162.31891999 61 165 C62.00804762 171.17165754 61.75498166 177.20909192 61.5 183.4375 C61.45983324 185.1398905 61.42333804 186.84237183 61.390625 188.54492188 C61.30284571 192.69887035 61.16503442 196.84843231 61 201 C45.78236592 193.7251704 45.78236592 193.7251704 39.625 188.5625 C39.04395508 188.0878833 38.46291016 187.6132666 37.86425781 187.12426758 C36.22501892 185.76884884 34.60809704 184.39213141 33 183 C32.23945312 182.34257812 31.47890625 181.68515625 30.6953125 181.0078125 C14.26398577 165.632314 0.74178534 140.25712568 -0.09014225 117.53834057 C-0.12307031 114.45952854 -0.12358409 111.38219844 -0.11352539 108.30322266 C-0.11367142 107.13191803 -0.11381744 105.9606134 -0.1139679 104.7538147 C-0.11327243 100.89054499 -0.10549709 97.02732377 -0.09765625 93.1640625 C-0.09579077 90.48220742 -0.09431827 87.80035501 -0.09336853 85.11849976 C-0.09026527 78.7863163 -0.08206546 72.45415018 -0.07201904 66.12197435 C-0.05972791 58.20241332 -0.05426741 50.28284945 -0.04882812 42.36328125 C-0.03909945 28.242174 -0.0190654 14.12110458 0 0 Z " fill="#FFDA2C" transform="translate(0,32)"/>
<path d="M0 0 C0.33 0 0.66 0 1 0 C1 46.86 1 93.72 1 142 C-13.85 149.59 -28.7 157.18 -44 165 C-46.97 166.65 -49.94 168.3 -53 170 C-53.99 169.67 -54.98 169.34 -56 169 C-55.08982795 163.24895293 -54.17211101 157.49914451 -53.25 151.75 C-53.11471893 150.90453613 -52.97943787 150.05907227 -52.84005737 149.18798828 C-51.14624713 138.63160392 -49.41699047 128.10191159 -47.03027344 117.67480469 C-46.18385608 113.82048733 -45.56047459 110.74146918 -47 107 C-48.86685217 104.86724412 -48.86685217 104.86724412 -51.3125 102.9375 C-55.43877177 99.40153892 -59.32185241 95.74816268 -63.125 91.875 C-66.9004384 88.04967379 -70.75260407 84.40601933 -74.8515625 80.9296875 C-78.36978748 77.76968179 -81.66050302 74.37951596 -84.96484375 70.99804688 C-87.70625742 68.13890994 -87.70625742 68.13890994 -91 66 C-91 65.34 -91 64.68 -91 64 C-83.09877697 62.82399424 -75.19721226 61.65032272 -67.29519939 60.47963715 C-63.62607097 59.93597957 -59.95706591 59.39151595 -56.28833008 58.84521484 C-52.74841086 58.31812568 -49.20818442 57.79314783 -45.66773415 57.26963806 C-44.31642287 57.06944587 -42.96522442 56.86849062 -41.61414146 56.66676331 C-39.72312233 56.38455192 -37.83166312 56.10529412 -35.94018555 55.82617188 C-34.86318893 55.66628784 -33.78619232 55.50640381 -32.67655945 55.3416748 C-30 55 -30 55 -27 55 C-26.72201569 54.28137283 -26.44403137 53.56274567 -26.15762329 52.82234192 C-25.03784469 50.09226719 -23.80006865 47.47993494 -22.47802734 44.8425293 C-21.97765961 43.84186935 -21.47729187 42.84120941 -20.96176147 41.81022644 C-20.42523956 40.7423439 -19.88871765 39.67446136 -19.3359375 38.57421875 C-18.78386627 37.47149124 -18.23179504 36.36876373 -17.66299438 35.23262024 C-15.90220719 31.7166358 -14.13864079 28.20205378 -12.375 24.6875 C-11.17927867 22.30163689 -9.98418944 19.91545786 -8.7890625 17.52929688 C-5.86147739 11.68514236 -2.93161025 5.84213632 0 0 Z " fill="#FDBF00" transform="translate(255,54)"/>
</svg>
