<?xml version="1.0" encoding="UTF-8"?>
<svg version="1.1" xmlns="http://www.w3.org/2000/svg" width="512" height="512">
<path d="M0 0 C0.83454208 -0.0049649 1.66908417 -0.00992981 2.52891541 -0.01504517 C5.29386213 -0.0296657 8.05875141 -0.03647015 10.82373047 -0.04199219 C12.74844362 -0.04774564 14.67315675 -0.05350335 16.59786987 -0.05926514 C20.6380032 -0.06977613 24.67811664 -0.07561753 28.71826172 -0.07910156 C33.87962325 -0.08457329 39.04071925 -0.1085726 44.20199776 -0.13707352 C48.18100738 -0.15576011 52.15995397 -0.16090879 56.13900375 -0.16243744 C58.04068318 -0.1654531 59.94236179 -0.17344472 61.84399796 -0.18662262 C64.51468906 -0.20380217 67.18474382 -0.20177356 69.85546875 -0.1953125 C70.63191238 -0.20452728 71.40835602 -0.21374207 72.20832825 -0.22323608 C82.55811852 -0.14535193 90.0939417 3.76952469 97.50732422 10.75488281 C104.45662301 18.13960133 106.41840681 26.29968992 106.28857422 36.25854492 C105.88201233 45.57521997 102.30606688 53.47040535 95.81591797 60.16113281 C90.761659 64.32613258 87.41267384 66.0616735 80.81591797 67.16113281 C81.14591797 75.41113281 81.47591797 83.66113281 81.81591797 92.16113281 C86.98248047 93.55332031 86.98248047 93.55332031 92.25341797 94.97363281 C123.59412599 103.89749502 151.91849132 120.06761323 175.33740234 142.73388672 C176.87436206 144.21755028 178.43093562 145.67885558 179.98779297 147.14160156 C212.92395983 178.56022329 236.60261934 227.53227856 237.99291992 273.32861328 C238.01905401 274.81175937 238.03922402 276.29501958 238.05419922 277.77832031 C238.06403839 278.58447784 238.07387756 279.39063538 238.08401489 280.22122192 C238.48372934 321.53346817 232.29232851 370.61666362 203.81591797 403.16113281 C201.50341797 404.53613281 201.50341797 404.53613281 198.81591797 405.16113281 C197.72923828 404.88140625 196.64255859 404.60167969 195.52294922 404.31347656 C192.0089732 403.80642446 192.0089732 403.80642446 190.20141602 405.23046875 C188.60298686 406.85602495 187.20760152 408.54325703 185.81591797 410.34863281 C185.06375 411.23518555 185.06375 411.23518555 184.29638672 412.13964844 C182.67350409 414.07469495 182.67350409 414.07469495 180.81591797 417.16113281 C181.11634216 419.23206382 181.11634216 419.23206382 181.81591797 421.16113281 C182.200018 424.22844594 182.31738912 427.10324892 181.81591797 430.16113281 C179.63432652 432.91682728 177.94414303 434.59702028 174.81591797 436.16113281 C170.44796778 436.40379671 167.62436044 436.28345869 163.81591797 434.16113281 C163.21263672 434.70382812 162.60935547 435.24652344 161.98779297 435.80566406 C161.18857422 436.52109375 160.38935547 437.23652344 159.56591797 437.97363281 C158.77701172 438.68132812 157.98810547 439.38902344 157.17529297 440.11816406 C154.81591797 442.16113281 154.81591797 442.16113281 152.51904297 443.61816406 C150.57088933 445.03975387 150.57088933 445.03975387 150.56591797 447.46582031 C150.7320828 449.17420253 150.89874645 450.88253631 151.06591797 452.59082031 C150.70325099 456.31949016 149.50047425 457.53309351 146.81591797 460.16113281 C143.73983376 462.30481904 140.52603807 464.14778081 137.25341797 465.97363281 C136.32029785 466.49844238 135.38717773 467.02325195 134.42578125 467.56396484 C116.7622609 477.31131253 97.84075895 484.16278346 78.12841797 488.41113281 C77.42974609 488.56227539 76.73107422 488.71341797 76.01123047 488.86914062 C62.91581393 491.51088449 49.83866924 492.57417699 36.50341797 492.53613281 C35.77490631 492.53558899 35.04639465 492.53504517 34.29580688 492.53448486 C-20.96115029 492.34696719 -71.77875688 469.55377819 -110.62451172 430.72119141 C-124.92726343 416.13318538 -153.18408203 383.965686 -153.18408203 362.16113281 C-154.5580439 362.17112556 -154.5580439 362.17112556 -155.95976257 362.18132019 C-164.5965537 362.2414585 -173.2332744 362.2871211 -181.87022686 362.31656933 C-186.31046679 362.33221799 -190.75053355 362.35344159 -195.19067383 362.38745117 C-199.47654228 362.42007325 -203.76224427 362.43799185 -208.04822731 362.44576454 C-209.68248934 362.45130294 -211.31674238 362.46211816 -212.95093346 362.47832298 C-215.24198389 362.50013553 -217.53234857 362.5030982 -219.82348633 362.50170898 C-221.12698532 362.50837082 -222.43048431 362.51503265 -223.77348328 362.52189636 C-227.44332277 362.13371106 -229.28087369 361.39552059 -232.18408203 359.16113281 C-234.86313933 355.14254687 -234.88018897 351.8847156 -234.18408203 347.16113281 C-232.39014535 344.29083413 -231.20144927 342.66981643 -228.18408203 341.16113281 C-226.02929273 341.06931199 -223.87158485 341.04362819 -221.71484375 341.04760742 C-220.71954147 341.04738838 -220.71954147 341.04738838 -219.70413208 341.04716492 C-217.5073115 341.0478625 -215.31057533 341.05564767 -213.11376953 341.06347656 C-211.59205166 341.06534129 -210.07033319 341.06676494 -208.5486145 341.06776428 C-204.54057156 341.07158515 -200.53256477 341.08141177 -196.52453613 341.09246826 C-192.43579599 341.10269163 -188.34705002 341.10726389 -184.25830078 341.11230469 C-176.2335446 341.12303441 -168.20881781 341.14010568 -160.18408203 341.16113281 C-160.38963211 340.35973373 -160.59518219 339.55833466 -160.80696106 338.73265076 C-161.07683334 337.66934036 -161.34670563 336.60602997 -161.62475586 335.51049805 C-161.89218094 334.46159897 -162.15960602 333.41269989 -162.43513489 332.33201599 C-163.5375768 327.66451101 -164.23386838 322.97337982 -164.87158203 318.22363281 C-165.00113281 317.31806641 -165.13068359 316.4125 -165.26416016 315.47949219 C-165.84138624 311.3228536 -166.20946365 307.36145127 -166.18408203 303.16113281 C-166.78685471 303.17223587 -167.38962738 303.18333893 -168.01066589 303.19477844 C-174.28845389 303.30545838 -180.56596446 303.38083585 -186.84448242 303.43579102 C-189.18704487 303.46092407 -191.52952899 303.49503589 -193.87182617 303.53833008 C-197.24043102 303.59903209 -200.60799852 303.62735532 -203.97705078 303.64941406 C-205.54606392 303.6881237 -205.54606392 303.6881237 -207.14677429 303.72761536 C-214.42665345 303.73041892 -214.42665345 303.73041892 -218.34301758 300.78686523 C-220.33214743 297.94996144 -220.86264025 296.58885878 -220.80908203 293.16113281 C-220.82197266 292.33613281 -220.83486328 291.51113281 -220.84814453 290.66113281 C-219.83386797 286.84267987 -218.35160408 285.54185404 -215.18408203 283.16113281 C-211.44427477 282.46436948 -207.76976701 282.57928021 -203.97705078 282.67285156 C-202.35625359 282.68346367 -202.35625359 282.68346367 -200.70271301 282.69429016 C-197.25829259 282.72223435 -193.81550948 282.78497648 -190.37158203 282.84863281 C-188.03371491 282.87371549 -185.69582227 282.8965287 -183.35791016 282.91699219 C-177.63274402 282.97206105 -171.90853001 283.05568862 -166.18408203 283.16113281 C-166.19128769 282.35973373 -166.19849335 281.55833466 -166.20591736 280.73265076 C-166.21152176 279.66934036 -166.21712616 278.60602997 -166.22290039 277.51049805 C-166.23010605 276.46159897 -166.23731171 275.41269989 -166.24473572 274.33201599 C-166.15347323 269.56095099 -165.48902648 264.93038531 -164.74658203 260.22363281 C-164.54452148 258.8652832 -164.54452148 258.8652832 -164.33837891 257.47949219 C-163.71614998 253.34849915 -163.01094538 249.25630118 -162.18408203 245.16113281 C-163.50095505 245.17001526 -164.81782806 245.17889771 -166.17460632 245.18804932 C-178.57871141 245.26910021 -190.98276285 245.3290816 -203.38707256 245.3683815 C-209.76442683 245.38926515 -216.1415675 245.41759764 -222.51879883 245.46289062 C-228.67202164 245.50631965 -234.82503886 245.53026406 -240.97840309 245.54064178 C-243.32718963 245.54803837 -245.67596479 245.56248195 -248.02466393 245.58405304 C-251.31201966 245.613047 -254.59852351 245.61709037 -257.88598633 245.61523438 C-258.85918823 245.62961548 -259.83239014 245.64399658 -260.83508301 245.65881348 C-265.15108413 245.63240837 -267.52515861 245.56818547 -271.26521301 243.25775146 C-274.48159185 239.74343141 -274.57324425 237.04731658 -274.54345703 232.42285156 C-273.97351337 228.83592352 -271.98182155 227.29274387 -269.18408203 225.16113281 C-266.79944424 223.96881392 -265.35287371 224.0379015 -262.69161987 224.0408783 C-261.74648529 224.03950363 -260.80135071 224.03812897 -259.82757568 224.03671265 C-258.26743744 224.04210556 -258.26743744 224.04210556 -256.67578125 224.04760742 C-255.58308929 224.0474614 -254.49039734 224.04731537 -253.36459351 224.04716492 C-249.73929891 224.04786368 -246.11405519 224.05565439 -242.48876953 224.06347656 C-239.98056059 224.06534087 -237.47235128 224.06676471 -234.96414185 224.06776428 C-229.02848404 224.0711972 -223.09284266 224.07908517 -217.1571933 224.08911377 C-209.73777406 224.10137776 -202.31835256 224.10675652 -194.89892578 224.11230469 C-181.66063519 224.12304022 -168.42235977 224.1399241 -155.18408203 224.16113281 C-154.95937729 222.74194298 -154.95937729 222.74194298 -154.73013306 221.29408264 C-154.26160771 218.60593383 -153.6828938 216.56233605 -152.58251953 214.09472656 C-152.25638672 213.36060547 -151.93025391 212.62648437 -151.59423828 211.87011719 C-151.25263672 211.12052734 -150.91103516 210.3709375 -150.55908203 209.59863281 C-150.24068359 208.87611328 -149.92228516 208.15359375 -149.59423828 207.40917969 C-146.47770683 200.4721898 -142.83840311 193.82531388 -139.18408203 187.16113281 C-140.25070824 187.17112556 -140.25070824 187.17112556 -141.33888245 187.18132019 C-148.06193695 187.24159694 -154.7849153 187.28719099 -161.50817966 187.31656933 C-164.96414849 187.33218118 -168.41989279 187.35333637 -171.87573242 187.38745117 C-175.85478975 187.42648221 -179.83375826 187.44087913 -183.81298828 187.45410156 C-185.66181358 187.47732735 -185.66181358 187.47732735 -187.54798889 187.50102234 C-193.82788506 187.50224833 -198.72602795 187.42736614 -204.18408203 184.16113281 C-206.86313933 180.14254687 -206.88018897 176.8847156 -206.18408203 172.16113281 C-204.39014535 169.29083413 -203.20144927 167.66981643 -200.18408203 166.16113281 C-197.83135014 166.09650562 -195.4766999 166.09889704 -193.12329102 166.13037109 C-191.61584377 166.14647918 -190.1083921 166.16217621 -188.60093689 166.17752075 C-187.79965803 166.18705906 -186.99837917 166.19659737 -186.17281914 166.20642471 C-181.03493496 166.25799765 -175.89672184 166.25220843 -170.75862026 166.25778389 C-166.24629608 166.26598674 -161.73570094 166.29362624 -157.22387695 166.36328125 C-152.85711321 166.42957415 -148.4931003 166.44170295 -144.12593269 166.41802597 C-142.46696896 166.41863402 -140.80788854 166.43858049 -139.14941216 166.4787941 C-129.59077909 166.85585856 -129.59077909 166.85585856 -121.25283813 162.78799438 C-118.9790704 160.01466942 -117.0929666 157.19189918 -115.18408203 154.16113281 C-87.34256419 122.63403739 -50.57633334 102.5849396 -10.18408203 92.16113281 C-10.18408203 84.24113281 -10.18408203 76.32113281 -10.18408203 68.16113281 C-11.99908203 67.35675781 -13.81408203 66.55238281 -15.68408203 65.72363281 C-24.79848591 61.13418652 -30.01183403 55.07331118 -33.49267578 45.52050781 C-36.17782494 36.35762594 -35.65568303 27.47092694 -31.55908203 18.78613281 C-24.69303754 6.43701487 -14.15329287 0.0200629 0 0 Z " fill="#5CDBF2" transform="translate(274.18408203125,9.8388671875)"/>
<path d="M0 0 C0.63663574 0.28246582 1.27327148 0.56493164 1.92919922 0.85595703 C34.33669131 15.50568463 59.12107212 43.05678388 72 76 C81.44710118 102.30806917 83.68629133 130.90494565 76 158 C75.67854004 159.15048828 75.67854004 159.15048828 75.35058594 160.32421875 C65.20650296 195.584874 41.41982267 225.39053334 9.41015625 243.3125 C-3.20939293 249.55722537 -16.22948673 254.1342853 -30 257 C-31.40958984 257.33644531 -31.40958984 257.33644531 -32.84765625 257.6796875 C-64.61366386 264.35283442 -101.06333353 255.42769867 -128 238 C-135.86192126 232.58164886 -143.05580031 226.54198029 -150 220 C-150.66386719 219.40058594 -151.32773438 218.80117188 -152.01171875 218.18359375 C-175.47986334 196.14353098 -188.99253938 162.25795554 -190.4453125 130.50390625 C-190.80433689 115.95928666 -190.02886902 102.01399809 -186 88 C-185.79632813 87.28134766 -185.59265625 86.56269531 -185.3828125 85.82226562 C-175.24288538 51.36529104 -151.35339619 22.16118011 -119.99658203 4.89697266 C-82.71304179 -14.98935375 -38.71305791 -17.26829185 0 0 Z " fill="#FDFDFD" transform="translate(365,176)"/>
<path d="M0 0 C0.83454208 -0.0049649 1.66908417 -0.00992981 2.52891541 -0.01504517 C5.29386213 -0.0296657 8.05875141 -0.03647015 10.82373047 -0.04199219 C12.74844362 -0.04774564 14.67315675 -0.05350335 16.59786987 -0.05926514 C20.6380032 -0.06977613 24.67811664 -0.07561753 28.71826172 -0.07910156 C33.87962325 -0.08457329 39.04071925 -0.1085726 44.20199776 -0.13707352 C48.18100738 -0.15576011 52.15995397 -0.16090879 56.13900375 -0.16243744 C58.04068318 -0.1654531 59.94236179 -0.17344472 61.84399796 -0.18662262 C64.51468906 -0.20380217 67.18474382 -0.20177356 69.85546875 -0.1953125 C70.63191238 -0.20452728 71.40835602 -0.21374207 72.20832825 -0.22323608 C82.55811852 -0.14535193 90.0939417 3.76952469 97.50732422 10.75488281 C104.45662301 18.13960133 106.41840681 26.29968992 106.28857422 36.25854492 C105.88201233 45.57521997 102.30606688 53.47040535 95.81591797 60.16113281 C90.761659 64.32613258 87.41267384 66.0616735 80.81591797 67.16113281 C81.14591797 75.41113281 81.47591797 83.66113281 81.81591797 92.16113281 C86.98248047 93.55332031 86.98248047 93.55332031 92.25341797 94.97363281 C123.59412599 103.89749502 151.91849132 120.06761323 175.33740234 142.73388672 C176.87436206 144.21755028 178.43093562 145.67885558 179.98779297 147.14160156 C212.92395983 178.56022329 236.60261934 227.53227856 237.99291992 273.32861328 C238.01905401 274.81175937 238.03922402 276.29501958 238.05419922 277.77832031 C238.06403839 278.58447784 238.07387756 279.39063538 238.08401489 280.22122192 C238.48372934 321.53346817 232.29232851 370.61666362 203.81591797 403.16113281 C200.70413883 405.01137987 198.90222078 405.1626469 195.25341797 405.09863281 C191.14882455 403.97919824 190.05768341 402.69622446 187.81591797 399.16113281 C186.32559493 396.18048674 186.42415181 394.51374707 186.81591797 391.16113281 C188.39223087 387.79761358 190.36269271 384.69172328 192.31591797 381.53613281 C216.35050545 341.04100138 223.23979212 291.35313085 211.8659668 245.67431641 C203.74660081 215.25558611 189.08554781 188.32834728 167.81591797 165.16113281 C167.34605469 164.64599121 166.87619141 164.13084961 166.39208984 163.60009766 C136.58062862 131.31125839 91.07771779 110.68658294 47.34239197 108.83078003 C13.03408253 107.64636828 -19.89006676 113.34853152 -50.18408203 130.16113281 C-51.40517498 130.81656762 -52.62652895 131.47151637 -53.84814453 132.12597656 C-94.76300451 154.40546985 -125.37571818 194.19905762 -138.56298828 238.65332031 C-151.45563224 285.14672777 -146.52073525 335.94804909 -122.95654297 378.37109375 C-115.93400358 390.49993622 -107.68185756 401.68750542 -98.17236328 411.98535156 C-96.57701382 413.73114655 -95.08472471 415.49401383 -93.62158203 417.34863281 C-90.43305897 421.02769788 -86.93369791 424.06517421 -83.18408203 427.16113281 C-82.19537109 427.98742187 -81.20666016 428.81371094 -80.18798828 429.66503906 C-59.86243127 446.33693563 -36.43310414 458.02193936 -11.18408203 465.16113281 C-10.2970459 465.41942871 -9.41000977 465.67772461 -8.49609375 465.94384766 C18.96346227 473.61282142 52.27473173 473.12945374 79.81591797 466.16113281 C80.54198242 465.97921387 81.26804687 465.79729492 82.01611328 465.60986328 C86.71037918 464.38198026 91.26809583 462.85093971 95.81591797 461.16113281 C96.59386719 460.87753906 97.37181641 460.59394531 98.17333984 460.30175781 C111.05381011 455.55579219 122.9550885 449.79753436 134.54248047 442.42675781 C137.83263202 440.59512705 140.10842337 440.70582646 143.81591797 441.16113281 C149.35437951 444.23805589 149.35437951 444.23805589 150.81591797 447.16113281 C151.39200407 454.18938319 151.39200407 454.18938319 149.39404297 457.55957031 C145.78477172 461.20165312 141.71147736 463.48640349 137.25341797 465.97363281 C136.32029785 466.49844238 135.38717773 467.02325195 134.42578125 467.56396484 C116.7622609 477.31131253 97.84075895 484.16278346 78.12841797 488.41113281 C77.42974609 488.56227539 76.73107422 488.71341797 76.01123047 488.86914062 C62.91581393 491.51088449 49.83866924 492.57417699 36.50341797 492.53613281 C35.77490631 492.53558899 35.04639465 492.53504517 34.29580688 492.53448486 C-20.96115029 492.34696719 -71.77875688 469.55377819 -110.62451172 430.72119141 C-124.92726343 416.13318538 -153.18408203 383.965686 -153.18408203 362.16113281 C-154.5580439 362.17112556 -154.5580439 362.17112556 -155.95976257 362.18132019 C-164.5965537 362.2414585 -173.2332744 362.2871211 -181.87022686 362.31656933 C-186.31046679 362.33221799 -190.75053355 362.35344159 -195.19067383 362.38745117 C-199.47654228 362.42007325 -203.76224427 362.43799185 -208.04822731 362.44576454 C-209.68248934 362.45130294 -211.31674238 362.46211816 -212.95093346 362.47832298 C-215.24198389 362.50013553 -217.53234857 362.5030982 -219.82348633 362.50170898 C-221.12698532 362.50837082 -222.43048431 362.51503265 -223.77348328 362.52189636 C-227.44332277 362.13371106 -229.28087369 361.39552059 -232.18408203 359.16113281 C-234.86313933 355.14254687 -234.88018897 351.8847156 -234.18408203 347.16113281 C-232.39014535 344.29083413 -231.20144927 342.66981643 -228.18408203 341.16113281 C-226.02929273 341.06931199 -223.87158485 341.04362819 -221.71484375 341.04760742 C-220.71954147 341.04738838 -220.71954147 341.04738838 -219.70413208 341.04716492 C-217.5073115 341.0478625 -215.31057533 341.05564767 -213.11376953 341.06347656 C-211.59205166 341.06534129 -210.07033319 341.06676494 -208.5486145 341.06776428 C-204.54057156 341.07158515 -200.53256477 341.08141177 -196.52453613 341.09246826 C-192.43579599 341.10269163 -188.34705002 341.10726389 -184.25830078 341.11230469 C-176.2335446 341.12303441 -168.20881781 341.14010568 -160.18408203 341.16113281 C-160.38963211 340.35973373 -160.59518219 339.55833466 -160.80696106 338.73265076 C-161.07683334 337.66934036 -161.34670563 336.60602997 -161.62475586 335.51049805 C-161.89218094 334.46159897 -162.15960602 333.41269989 -162.43513489 332.33201599 C-163.5375768 327.66451101 -164.23386838 322.97337982 -164.87158203 318.22363281 C-165.00113281 317.31806641 -165.13068359 316.4125 -165.26416016 315.47949219 C-165.84138624 311.3228536 -166.20946365 307.36145127 -166.18408203 303.16113281 C-166.78685471 303.17223587 -167.38962738 303.18333893 -168.01066589 303.19477844 C-174.28845389 303.30545838 -180.56596446 303.38083585 -186.84448242 303.43579102 C-189.18704487 303.46092407 -191.52952899 303.49503589 -193.87182617 303.53833008 C-197.24043102 303.59903209 -200.60799852 303.62735532 -203.97705078 303.64941406 C-205.54606392 303.6881237 -205.54606392 303.6881237 -207.14677429 303.72761536 C-214.42665345 303.73041892 -214.42665345 303.73041892 -218.34301758 300.78686523 C-220.33214743 297.94996144 -220.86264025 296.58885878 -220.80908203 293.16113281 C-220.82197266 292.33613281 -220.83486328 291.51113281 -220.84814453 290.66113281 C-219.83386797 286.84267987 -218.35160408 285.54185404 -215.18408203 283.16113281 C-211.44427477 282.46436948 -207.76976701 282.57928021 -203.97705078 282.67285156 C-202.35625359 282.68346367 -202.35625359 282.68346367 -200.70271301 282.69429016 C-197.25829259 282.72223435 -193.81550948 282.78497648 -190.37158203 282.84863281 C-188.03371491 282.87371549 -185.69582227 282.8965287 -183.35791016 282.91699219 C-177.63274402 282.97206105 -171.90853001 283.05568862 -166.18408203 283.16113281 C-166.19128769 282.35973373 -166.19849335 281.55833466 -166.20591736 280.73265076 C-166.21152176 279.66934036 -166.21712616 278.60602997 -166.22290039 277.51049805 C-166.23010605 276.46159897 -166.23731171 275.41269989 -166.24473572 274.33201599 C-166.15347323 269.56095099 -165.48902648 264.93038531 -164.74658203 260.22363281 C-164.54452148 258.8652832 -164.54452148 258.8652832 -164.33837891 257.47949219 C-163.71614998 253.34849915 -163.01094538 249.25630118 -162.18408203 245.16113281 C-163.50095505 245.17001526 -164.81782806 245.17889771 -166.17460632 245.18804932 C-178.57871141 245.26910021 -190.98276285 245.3290816 -203.38707256 245.3683815 C-209.76442683 245.38926515 -216.1415675 245.41759764 -222.51879883 245.46289062 C-228.67202164 245.50631965 -234.82503886 245.53026406 -240.97840309 245.54064178 C-243.32718963 245.54803837 -245.67596479 245.56248195 -248.02466393 245.58405304 C-251.31201966 245.613047 -254.59852351 245.61709037 -257.88598633 245.61523438 C-258.85918823 245.62961548 -259.83239014 245.64399658 -260.83508301 245.65881348 C-265.15108413 245.63240837 -267.52515861 245.56818547 -271.26521301 243.25775146 C-274.48159185 239.74343141 -274.57324425 237.04731658 -274.54345703 232.42285156 C-273.97351337 228.83592352 -271.98182155 227.29274387 -269.18408203 225.16113281 C-266.79944424 223.96881392 -265.35287371 224.0379015 -262.69161987 224.0408783 C-261.74648529 224.03950363 -260.80135071 224.03812897 -259.82757568 224.03671265 C-258.26743744 224.04210556 -258.26743744 224.04210556 -256.67578125 224.04760742 C-255.58308929 224.0474614 -254.49039734 224.04731537 -253.36459351 224.04716492 C-249.73929891 224.04786368 -246.11405519 224.05565439 -242.48876953 224.06347656 C-239.98056059 224.06534087 -237.47235128 224.06676471 -234.96414185 224.06776428 C-229.02848404 224.0711972 -223.09284266 224.07908517 -217.1571933 224.08911377 C-209.73777406 224.10137776 -202.31835256 224.10675652 -194.89892578 224.11230469 C-181.66063519 224.12304022 -168.42235977 224.1399241 -155.18408203 224.16113281 C-154.95937729 222.74194298 -154.95937729 222.74194298 -154.73013306 221.29408264 C-154.26160771 218.60593383 -153.6828938 216.56233605 -152.58251953 214.09472656 C-152.25638672 213.36060547 -151.93025391 212.62648437 -151.59423828 211.87011719 C-151.25263672 211.12052734 -150.91103516 210.3709375 -150.55908203 209.59863281 C-150.24068359 208.87611328 -149.92228516 208.15359375 -149.59423828 207.40917969 C-146.47770683 200.4721898 -142.83840311 193.82531388 -139.18408203 187.16113281 C-140.25070824 187.17112556 -140.25070824 187.17112556 -141.33888245 187.18132019 C-148.06193695 187.24159694 -154.7849153 187.28719099 -161.50817966 187.31656933 C-164.96414849 187.33218118 -168.41989279 187.35333637 -171.87573242 187.38745117 C-175.85478975 187.42648221 -179.83375826 187.44087913 -183.81298828 187.45410156 C-185.66181358 187.47732735 -185.66181358 187.47732735 -187.54798889 187.50102234 C-193.82788506 187.50224833 -198.72602795 187.42736614 -204.18408203 184.16113281 C-206.86313933 180.14254687 -206.88018897 176.8847156 -206.18408203 172.16113281 C-204.39014535 169.29083413 -203.20144927 167.66981643 -200.18408203 166.16113281 C-197.83135014 166.09650562 -195.4766999 166.09889704 -193.12329102 166.13037109 C-191.61584377 166.14647918 -190.1083921 166.16217621 -188.60093689 166.17752075 C-187.79965803 166.18705906 -186.99837917 166.19659737 -186.17281914 166.20642471 C-181.03493496 166.25799765 -175.89672184 166.25220843 -170.75862026 166.25778389 C-166.24629608 166.26598674 -161.73570094 166.29362624 -157.22387695 166.36328125 C-152.85711321 166.42957415 -148.4931003 166.44170295 -144.12593269 166.41802597 C-142.46696896 166.41863402 -140.80788854 166.43858049 -139.14941216 166.4787941 C-129.59077909 166.85585856 -129.59077909 166.85585856 -121.25283813 162.78799438 C-118.9790704 160.01466942 -117.0929666 157.19189918 -115.18408203 154.16113281 C-87.34256419 122.63403739 -50.57633334 102.5849396 -10.18408203 92.16113281 C-10.18408203 84.24113281 -10.18408203 76.32113281 -10.18408203 68.16113281 C-11.99908203 67.35675781 -13.81408203 66.55238281 -15.68408203 65.72363281 C-24.79848591 61.13418652 -30.01183403 55.07331118 -33.49267578 45.52050781 C-36.17782494 36.35762594 -35.65568303 27.47092694 -31.55908203 18.78613281 C-24.69303754 6.43701487 -14.15329287 0.0200629 0 0 Z " fill="#000001" transform="translate(274.18408203125,9.8388671875)"/>
<path d="M0 0 C0.75748032 -0.00979385 1.51496063 -0.01958771 2.2953949 -0.02967834 C18.24109449 -0.19350158 33.49273929 -0.2533474 48.92578125 4.23828125 C50.06974365 4.54378906 50.06974365 4.54378906 51.23681641 4.85546875 C78.35616931 12.1126815 100.4961652 26.26544597 120.92578125 45.23828125 C121.53035156 45.78871094 122.13492187 46.33914062 122.7578125 46.90625 C141.2361308 64.4325238 153.8121274 89.07357924 160.92578125 113.23828125 C161.22226562 114.24117188 161.51875 115.2440625 161.82421875 116.27734375 C169.58279922 144.77668389 168.12808978 177.56706267 157.92578125 205.23828125 C157.26255859 207.0790625 157.26255859 207.0790625 156.5859375 208.95703125 C148.21791252 231.02450986 135.83144244 249.76609855 118.92578125 266.23828125 C118.41402344 266.79515625 117.90226562 267.35203125 117.375 267.92578125 C96.85017791 289.72516402 66.75462735 302.4034609 37.92578125 308.23828125 C36.94222656 308.44582031 35.95867187 308.65335937 34.9453125 308.8671875 C16.36202297 312.16831843 -3.69568822 311.37670922 -22.07421875 307.23828125 C-22.81929688 307.07199219 -23.564375 306.90570313 -24.33203125 306.734375 C-53.90255392 299.87523314 -79.99961493 283.86747991 -101.07421875 262.23828125 C-101.64269531 261.71492188 -102.21117187 261.1915625 -102.796875 260.65234375 C-128.9150983 236.03994247 -143.22371692 196.35094901 -144.38671875 161.19921875 C-145.10690629 117.87393673 -130.83832367 78.65546965 -100.90625 47.140625 C-75.053465 20.44956411 -37.83296864 0.40396037 0 0 Z M-77.07421875 52.23828125 C-77.88246094 52.91246094 -78.69070312 53.58664063 -79.5234375 54.28125 C-100.2828668 72.17281465 -114.16768093 96.89037487 -121.07421875 123.23828125 C-121.39390625 124.39457031 -121.71359375 125.55085938 -122.04296875 126.7421875 C-129.6894035 159.55813664 -122.4839743 196.47181457 -105.13671875 225.1015625 C-99.18834648 234.14804532 -92.4922034 242.36421797 -85.07421875 250.23828125 C-84.47480469 250.90214844 -83.87539062 251.56601562 -83.2578125 252.25 C-77.00518595 258.90776434 -69.55401673 264.06141825 -62.07421875 269.23828125 C-61.24148437 269.81707031 -60.40875 270.39585937 -59.55078125 270.9921875 C-47.1145453 278.99937801 -31.63226409 284.77291154 -17.19921875 287.86328125 C-16.10867188 288.10304688 -15.018125 288.3428125 -13.89453125 288.58984375 C21.59125879 294.61299421 58.62017089 287.27559425 88.17578125 266.42578125 C94.89410432 261.53368785 100.94590936 255.99368348 106.92578125 250.23828125 C107.55742187 249.66980469 108.1890625 249.10132813 108.83984375 248.515625 C130.4844273 228.4610464 144.44556601 195.31048628 146.1027832 166.12060547 C146.85359405 125.34948246 135.92527477 89.96490812 107.59106445 59.78833008 C92.96744212 44.80483794 75.48021506 34.38194027 55.92578125 27.23828125 C54.91902344 26.85800781 53.91226563 26.47773438 52.875 26.0859375 C39.36293505 21.24060974 26.61395443 19.95726176 12.36328125 19.92578125 C11.07381592 19.92030273 9.78435059 19.91482422 8.45581055 19.90917969 C-23.77742336 20.14650467 -52.6295171 31.36096558 -77.07421875 52.23828125 Z " fill="#020203" transform="translate(299.07421875,144.76171875)"/>
<path d="M0 0 C3.0625 2 3.0625 2 5 5 C5.66887222 8.40010046 5.92172139 9.816972 5 13 C0.32066022 19.81064285 -6.44369932 25.40709791 -12.37890625 31.08984375 C-14.37404818 33.02429677 -16.36372507 34.96434144 -18.35351562 36.90429688 C-21.46652897 39.93909675 -24.58610391 42.96571583 -27.73657227 45.96166992 C-30.30393566 48.40432985 -32.84341226 50.87308209 -35.36631584 53.36160469 C-36.79134702 54.75287815 -38.24435154 56.11531318 -39.69764709 57.47703552 C-44.35315758 61.77116212 -44.35315758 61.77116212 -46.128479 67.53460693 C-45.62206166 69.83471847 -44.90818529 71.83316889 -44 74 C-42.9589326 82.98223266 -44.58147249 91.06128659 -49.765625 98.55078125 C-53.89906494 103.52230055 -57.98502149 106.68285259 -64 109 C-64.78632813 109.35449219 -65.57265625 109.70898438 -66.3828125 110.07421875 C-73.64145136 112.64182682 -81.73062166 111.54930419 -88.6171875 108.3828125 C-97.29743889 103.34542071 -102.63677827 96.6014457 -105.61328125 87.02734375 C-106.07797298 84.59123257 -106.16960377 82.29291789 -106.1875 79.8125 C-106.20167969 78.93207031 -106.21585937 78.05164063 -106.23046875 77.14453125 C-106 74 -106 74 -105.14379883 72.03466797 C-104.10674198 69.41458038 -103.70098407 67.82191151 -104 65 C-107.20169749 60.57427532 -111.22599555 57.096407 -115.3125 53.5 C-127.58523965 42.59526936 -127.58523965 42.59526936 -128.34375 36.96875 C-127.96143697 32.5547723 -127.23756607 30.96006041 -124 28 C-120.69427767 26.34713884 -117.54676374 26.24460487 -114 27 C-112.13916016 28.26586914 -112.13916016 28.26586914 -110.2890625 29.97265625 C-109.5976416 30.60768066 -108.9062207 31.24270508 -108.19384766 31.89697266 C-104.40888801 35.52524357 -100.68656536 39.20940488 -97 42.9375 C-96.22527344 43.71673828 -95.45054687 44.49597656 -94.65234375 45.29882812 C-92.76589243 47.1969242 -90.88183755 49.09733149 -89 51 C-87.74509766 50.51273437 -87.74509766 50.51273437 -86.46484375 50.015625 C-82.66636087 48.90220274 -79.51459396 48.73381947 -75.5625 48.75 C-73.67724609 48.74226563 -73.67724609 48.74226563 -71.75390625 48.734375 C-67.91158095 49.0062565 -64.67611127 49.89290645 -61 51 C-60.37803741 50.3758168 -59.75607483 49.75163361 -59.11526489 49.10853577 C-53.2613553 43.23461218 -47.40505991 37.36308009 -41.54605293 31.49424076 C-38.5337673 28.47673035 -35.52242149 25.45829419 -32.51318359 22.43774414 C-29.6105886 19.52430594 -26.70557741 16.61329751 -23.79885483 13.70397758 C-22.68877124 12.59204235 -21.57957004 11.47922548 -20.47125626 10.3655262 C-18.92210958 8.80915013 -17.36989179 7.25590166 -15.81689453 5.70336914 C-14.93309113 4.81734512 -14.04928772 3.93132111 -13.13870239 3.01844788 C-9.19363241 -0.70479953 -5.23257811 -0.77586503 0 0 Z " fill="#020202" transform="translate(385,220)"/>
<path d="M0 0 C0.75855789 -0.00861557 1.51711578 -0.01723114 2.29866028 -0.02610779 C4.79272116 -0.04870928 7.28565281 -0.04203908 9.77978516 -0.03295898 C11.52324759 -0.03819794 13.26670719 -0.04447541 15.01016235 -0.05174255 C18.66006833 -0.06213659 22.30958423 -0.05760092 25.95947266 -0.04296875 C30.62234145 -0.02580008 35.28397574 -0.04925703 39.94670677 -0.08445835 C43.54658069 -0.10648918 47.14616196 -0.1049769 50.74608231 -0.09669304 C52.46437558 -0.09587628 54.18269094 -0.10268674 55.90092087 -0.11746407 C72.07603255 -0.23523794 72.07603255 -0.23523794 77.87612915 4.18104553 C81.12246573 7.51282785 82.06389934 10.49386071 82.63134766 15.03344727 C81.98042589 20.24082137 79.22454273 24.20374264 75.19384766 27.53344727 C71.58400937 28.7367267 68.27172514 28.69673917 64.51293945 28.71044922 C63.34168015 28.72030602 63.34168015 28.72030602 62.14675903 28.73036194 C59.56219383 28.7500756 56.97768667 28.7617529 54.39306641 28.77172852 C53.06797027 28.77784181 53.06797027 28.77784181 51.71610451 28.7840786 C47.04080057 28.80493059 42.36552591 28.81923636 37.69018555 28.82861328 C32.86473743 28.83967896 28.03975029 28.87408305 23.21446514 28.91378498 C19.50064748 28.93994528 15.7869398 28.94830456 12.0730381 28.95189476 C10.29446103 28.95676184 8.51588892 28.96837935 6.73740196 28.98693275 C4.24554389 29.01131337 1.75488059 29.01036158 -0.73706055 29.00341797 C-1.83374809 29.02263306 -1.83374809 29.02263306 -2.95259094 29.04223633 C-8.03207706 28.99078026 -10.90079018 27.73576807 -14.80615234 24.53344727 C-17.86134866 20.05249267 -18.74886602 15.8295915 -17.80615234 10.53344727 C-13.94978104 2.82070467 -8.41331392 -0.07792611 0 0 Z " fill="#FB727E" transform="translate(277.80615234375,29.466552734375)"/>
<path d="M0 0 C15.84 0 31.68 0 48 0 C48 6.93 48 13.86 48 21 C32.16 21 16.32 21 0 21 C0 14.07 0 7.14 0 0 Z " fill="#D1F0F6" transform="translate(286,78)"/>
<path d="M0 0 C0.71220703 -0.020625 1.42441406 -0.04125 2.15820312 -0.0625 C6.71100013 -0.09619322 9.56615398 0.45541411 13.1875 3.25 C15.51599047 6.46553446 15.73207007 9.36021377 15.1875 13.25 C13.11977415 16.67765324 11.06621765 18.95709412 7.1875 20.25 C4.73298666 20.42209806 2.27261082 20.51658438 -0.1875 20.5625 C-2.14816406 20.61857422 -2.14816406 20.61857422 -4.1484375 20.67578125 C-8.32611607 20.1903154 -9.88914569 19.20072654 -12.8125 16.25 C-14.41336627 13.04826746 -14.31167089 9.72422941 -13.8125 6.25 C-9.95563275 0.20757464 -6.76909464 0.04822151 0 0 Z " fill="#050505" transform="translate(411.8125,289.75)"/>
<path d="M0 0 C0.75152344 -0.03738281 1.50304687 -0.07476562 2.27734375 -0.11328125 C6.33347233 -0.17699008 8.99703055 0.12095559 12.265625 2.64453125 C14.75 5.375 14.75 5.375 15.40625 7.47265625 C14.83161974 14.69863176 14.83161974 14.69863176 12.75 17.375 C6.75947219 21.82921164 -0.16365563 21.1762003 -7.25 20.375 C-10.62555229 19.17647629 -11.10416905 18.46752107 -13.25 15.375 C-14.25462199 12.28857801 -14.61874675 9.6059239 -14.25 6.375 C-10.48674339 0.14616147 -6.81127945 0.12592281 0 0 Z " fill="#060606" transform="translate(207.25,289.625)"/>
<path d="M0 0 C3.5386994 1.65139305 4.81070153 2.71605229 7 6 C7.22216068 8.67169858 7.32452645 11.20512871 7.3125 13.875 C7.32861328 14.58269531 7.34472656 15.29039062 7.36132812 16.01953125 C7.36553908 20.5421007 6.76061453 23.39831372 4 27 C0.57840405 29.56619697 -2.84844133 29.50984054 -7 29 C-9.63016161 26.8272578 -11.47336894 25.05326212 -13 22 C-13.1509482 19.54709172 -13.23128564 17.14141991 -13.25 14.6875 C-13.27578125 13.37136719 -13.3015625 12.05523437 -13.328125 10.69921875 C-12.98528315 6.83408499 -12.36079233 5.02821259 -10 2 C-6.27420911 -0.48386059 -4.41288598 -0.3804212 0 0 Z " fill="#050505" transform="translate(313,183)"/>
<path d="M0 0 C3.16872216 0.68885264 4.96142228 2.13674555 7.15625 4.46875 C8.64982569 7.45590138 8.38128435 10.50762936 8.40625 13.78125 C8.43203125 15.09738281 8.4578125 16.41351563 8.484375 17.76953125 C8.14248282 21.62395856 7.47089997 23.42520785 5.15625 26.46875 C2.07705053 29.03474956 0.63846121 29.47720985 -3.40625 29.40625 C-7.13503308 28.38930916 -8.52339113 27.50306545 -10.84375 24.46875 C-12.83944999 18.48165004 -13.13027821 10.19654395 -11.04296875 4.1484375 C-8.1853813 0.08300381 -4.59320905 -0.30621394 0 0 Z " fill="#040404" transform="translate(311.84375,387.53125)"/>
<path d="M0 0 C3.02508145 1.73602105 5.41790069 3.83580137 7 7 C7.40710593 11.23390162 7.25575965 13.51588352 5.25 17.3125 C2.26226793 20.88117997 0.68823369 21.77979561 -3.875 22.375 C-7.87153796 21.89541545 -9.90459308 20.53260567 -13 18 C-15.59107284 14.58449489 -15.50288306 11.16674536 -15 7 C-11.34207093 0.9079843 -7.04191354 -1.20195927 0 0 Z " fill="#F9808A" transform="translate(314,289)"/>
<path d="M0 0 C2.79750031 2.18341487 3.75038246 3.67510688 4.40625 7.15625 C4.70150462 11.58506933 4.45078467 13.43058778 1.625 17 C-2.54369556 20.176149 -4.71721956 20.22594685 -9.80078125 19.5546875 C-12 19 -12 19 -14.5625 17 C-16.52558653 12.90312377 -16.81679831 9.46408581 -16 5 C-12.01229156 -1.60034501 -6.98748958 -1.79101718 0 0 Z " fill="#000000" transform="translate(16,352)"/>
<path d="M0 0 C2.8974124 0.54064036 4.8754575 1.54919984 7.15625 3.40234375 C8.89256636 6.87497648 8.75815402 10.61427388 8.15625 14.40234375 C5.97465855 17.15803822 4.28447506 18.83823122 1.15625 20.40234375 C-2.15625 20.77734375 -2.15625 20.77734375 -5.84375 20.40234375 C-9.68929163 17.22559197 -11.64599739 15.11619968 -12.21875 10.15234375 C-11.44509701 2.41581381 -7.34833419 -0.50213617 0 0 Z " fill="#000102" transform="translate(447.84375,425.59765625)"/>
</svg>
