<?xml version="1.0" encoding="UTF-8"?>
<svg version="1.1" xmlns="http://www.w3.org/2000/svg" width="512" height="512">
<path d="M0 0 C1.01790619 0.00215515 2.03581238 0.0043103 3.08456421 0.00653076 C17.69363523 0.05620146 32.02575853 0.30709809 46.375 3.3125 C47.34985352 3.51117676 48.32470703 3.70985352 49.32910156 3.91455078 C97.7109774 14.03517194 141.69928269 35.9516877 177.375 70.3125 C178.3640332 71.26068604 178.3640332 71.26068604 179.37304688 72.22802734 C188.86130305 81.37247479 197.6012044 90.66984009 205.375 101.3125 C206.23306152 102.46355017 207.09113451 103.61459177 207.94921875 104.765625 C213.98736829 112.95680614 219.34595521 121.47054105 224.375 130.3125 C224.73948242 130.94430176 225.10396484 131.57610352 225.47949219 132.22705078 C247.08534998 169.97532572 256.85198095 212.74189997 256.6875 255.9375 C256.68534485 256.95540619 256.6831897 257.97331238 256.68096924 259.02206421 C256.63129854 273.63113523 256.38040191 287.96325853 253.375 302.3125 C253.07698486 303.77478027 253.07698486 303.77478027 252.77294922 305.26660156 C242.65232806 353.6484774 220.7358123 397.63678269 186.375 433.3125 C185.74287598 433.97185547 185.11075195 434.63121094 184.45947266 435.31054688 C175.31502521 444.79880305 166.01765991 453.5387044 155.375 461.3125 C154.22394983 462.17056152 153.07290823 463.02863451 151.921875 463.88671875 C143.73224019 469.92427396 135.22961724 475.30707302 126.375 480.3125 C125.66778809 480.7146875 124.96057617 481.116875 124.23193359 481.53125 C101.09654164 494.5566741 75.92537591 503.30551461 49.9375 508.625 C49.21860596 508.77235596 48.49971191 508.91971191 47.7590332 509.0715332 C33.08339502 511.86090125 18.55831162 512.66142619 3.64770508 512.62817383 C0.70811513 512.6250221 -2.2304558 512.64854926 -5.16992188 512.67382812 C-18.54306192 512.71848737 -31.43916711 511.51301542 -44.625 509.3125 C-46.33055054 509.03031616 -46.33055054 509.03031616 -48.07055664 508.74243164 C-91.33802759 500.97044532 -132.38793216 480.98345309 -165.625 452.3125 C-166.37007813 451.67828125 -167.11515625 451.0440625 -167.8828125 450.390625 C-181.38779833 438.57948485 -194.05918743 425.82889772 -204.625 411.3125 C-205.48149066 410.16255169 -206.33826433 409.01281411 -207.1953125 407.86328125 C-213.23534209 399.67315742 -218.61867614 391.16870382 -223.625 382.3125 C-224.0271875 381.60528809 -224.429375 380.89807617 -224.84375 380.16943359 C-237.8691741 357.03404164 -246.61801461 331.86287591 -251.9375 305.875 C-252.08485596 305.15610596 -252.23221191 304.43721191 -252.3840332 303.6965332 C-255.35789088 288.05024391 -255.99800362 272.57681954 -255.9375 256.6875 C-255.93534485 255.66959381 -255.9331897 254.65168762 -255.93096924 253.60293579 C-255.88129854 238.99386477 -255.63040191 224.66174147 -252.625 210.3125 C-252.42632324 209.33764648 -252.22764648 208.36279297 -252.02294922 207.35839844 C-241.90232806 158.9765226 -219.9858123 114.98821731 -185.625 79.3125 C-184.99287598 78.65314453 -184.36075195 77.99378906 -183.70947266 77.31445312 C-174.56502521 67.82619695 -165.26765991 59.0862956 -154.625 51.3125 C-153.47394983 50.45443848 -152.32290823 49.59636549 -151.171875 48.73828125 C-142.98224019 42.70072604 -134.47961724 37.31792698 -125.625 32.3125 C-124.91778809 31.9103125 -124.21057617 31.508125 -123.48193359 31.09375 C-100.34654164 18.0683259 -75.17537591 9.31948539 -49.1875 4 C-48.46860596 3.85264404 -47.74971191 3.70528809 -47.0090332 3.5534668 C-31.36274391 0.57960912 -15.88931954 -0.06050362 0 0 Z " fill="#FE3939" transform="translate(255.625,-0.3125)"/>
<path d="M0 0 C5.55153557 4.62432301 10.68532596 9.5485616 15.78100586 14.66748047 C16.63058868 15.51691727 17.48017151 16.36635406 18.35549927 17.24153137 C20.66467735 19.55128322 22.97163402 21.86322545 25.27758861 24.17619467 C27.69542349 26.60031731 30.1161257 29.02157336 32.53651428 31.44314575 C37.11049497 36.02022386 41.68192244 40.59984313 46.25241905 45.18040001 C51.45968184 50.39887351 56.66981362 55.61447862 61.88017833 60.82985473 C72.58996199 71.55006675 83.29616999 82.27384317 94 93 C97.26362976 91.56906155 99.42615023 89.82129135 101.93572998 87.30477905 C102.70691666 86.53634171 103.47810333 85.76790436 104.2726593 84.97618103 C105.1091954 84.13245438 105.94573151 83.28872772 106.80761719 82.41943359 C107.69577621 81.53156662 108.58393524 80.64369965 109.49900818 79.72892761 C111.93087819 77.29763109 114.35653521 74.86022036 116.78112316 72.42166471 C119.31731792 69.87296197 121.85918285 67.32992711 124.40045166 64.7862854 C129.21028534 59.97023716 134.01499831 55.14911367 138.81789231 50.32614577 C144.28672294 44.83495542 149.76123807 39.34944739 155.236238 33.86440921 C166.4971623 22.58258345 177.75092689 11.29364333 189 0 C190.09960012 0.93284913 191.19779758 1.86735176 192.29542542 2.80252075 C192.90713876 3.32273867 193.5188521 3.84295658 194.14910221 4.37893867 C197.09133002 6.95581339 199.8381843 9.7149139 202.58984375 12.4921875 C203.47392662 13.37839279 203.47392662 13.37839279 204.37586975 14.28250122 C206.23213727 16.14430404 208.08487085 18.00957745 209.9375 19.875 C211.20614672 21.14867011 212.4750249 22.42210971 213.74414062 23.6953125 C216.83210554 26.79422043 219.91690929 29.89624301 223 33 C218.37567699 38.55153557 213.4514384 43.68532596 208.33251953 48.78100586 C207.48308273 49.63058868 206.63364594 50.48017151 205.75846863 51.35549927 C203.44871678 53.66467735 201.13677455 55.97163402 198.82380533 58.27758861 C196.39968269 60.69542349 193.97842664 63.1161257 191.55685425 65.53651428 C186.97977614 70.11049497 182.40015687 74.68192244 177.81959999 79.25241905 C172.60112649 84.45968184 167.38552138 89.66981362 162.17014527 94.88017833 C151.44993325 105.58996199 140.72615683 116.29616999 130 127 C131.43093845 130.26362976 133.17870865 132.42615023 135.69522095 134.93572998 C136.46365829 135.70691666 137.23209564 136.47810333 138.02381897 137.2726593 C138.86754562 138.1091954 139.71127228 138.94573151 140.58056641 139.80761719 C141.46843338 140.69577621 142.35630035 141.58393524 143.27107239 142.49900818 C145.70236891 144.93087819 148.13977964 147.35653521 150.57833529 149.78112316 C153.12703803 152.31731792 155.67007289 154.85918285 158.2137146 157.40045166 C163.02976284 162.21028534 167.85088633 167.01499831 172.67385423 171.81789231 C178.16504458 177.28672294 183.65055261 182.76123807 189.13559079 188.236238 C200.41741655 199.4971623 211.70635667 210.75092689 223 222 C222.06715087 223.09960012 221.13264824 224.19779758 220.19747925 225.29542542 C219.67726133 225.90713876 219.15704342 226.5188521 218.62106133 227.14910221 C216.04418661 230.09133002 213.2850861 232.8381843 210.5078125 235.58984375 C209.62160721 236.47392662 209.62160721 236.47392662 208.71749878 237.37586975 C206.85569596 239.23213727 204.99042255 241.08487085 203.125 242.9375 C201.85132989 244.20614672 200.57789029 245.4750249 199.3046875 246.74414062 C196.20577957 249.83210554 193.10375699 252.91690929 190 256 C184.44846443 251.37567699 179.31467404 246.4514384 174.21899414 241.33251953 C173.36941132 240.48308273 172.51982849 239.63364594 171.64450073 238.75846863 C169.33532265 236.44871678 167.02836598 234.13677455 164.72241139 231.82380533 C162.30457651 229.39968269 159.8838743 226.97842664 157.46348572 224.55685425 C152.88950503 219.97977614 148.31807756 215.40015687 143.74758095 210.81959999 C138.54031816 205.60112649 133.33018638 200.38552138 128.11982167 195.17014527 C117.41003801 184.44993325 106.70383001 173.72615683 96 163 C92.73637024 164.43093845 90.57384977 166.17870865 88.06427002 168.69522095 C87.29308334 169.46365829 86.52189667 170.23209564 85.7273407 171.02381897 C84.8908046 171.86754562 84.05426849 172.71127228 83.19238281 173.58056641 C82.30422379 174.46843338 81.41606476 175.35630035 80.50099182 176.27107239 C78.06912181 178.70236891 75.64346479 181.13977964 73.21887684 183.57833529 C70.68268208 186.12703803 68.14081715 188.67007289 65.59954834 191.2137146 C60.78971466 196.02976284 55.98500169 200.85088633 51.18210769 205.67385423 C45.71327706 211.16504458 40.23876193 216.65055261 34.763762 222.13559079 C23.5028377 233.41741655 12.24907311 244.70635667 1 256 C-0.09960012 255.06715087 -1.19779758 254.13264824 -2.29542542 253.19747925 C-2.90713876 252.67726133 -3.5188521 252.15704342 -4.14910221 251.62106133 C-7.09133002 249.04418661 -9.8381843 246.2850861 -12.58984375 243.5078125 C-13.17923233 242.91700897 -13.76862091 242.32620544 -14.37586975 241.71749878 C-16.23213727 239.85569596 -18.08487085 237.99042255 -19.9375 236.125 C-21.20614672 234.85132989 -22.4750249 233.57789029 -23.74414062 232.3046875 C-26.83210554 229.20577957 -29.91690929 226.10375699 -33 223 C-28.37567699 217.44846443 -23.4514384 212.31467404 -18.33251953 207.21899414 C-17.05836433 205.9446199 -17.05836433 205.9446199 -15.75846863 204.64450073 C-13.44871678 202.33532265 -11.13677455 200.02836598 -8.82380533 197.72241139 C-6.39968269 195.30457651 -3.97842664 192.8838743 -1.55685425 190.46348572 C3.02022386 185.88950503 7.59984313 181.31807756 12.18040001 176.74758095 C17.39887351 171.54031816 22.61447862 166.33018638 27.82985473 161.11982167 C38.55006675 150.41003801 49.27384317 139.70383001 60 129 C58.56906155 125.73637024 56.82129135 123.57384977 54.30477905 121.06427002 C53.53634171 120.29308334 52.76790436 119.52189667 51.97618103 118.7273407 C51.13245438 117.8908046 50.28872772 117.05426849 49.41943359 116.19238281 C48.53156662 115.30422379 47.64369965 114.41606476 46.72892761 113.50099182 C44.29763109 111.06912181 41.86022036 108.64346479 39.42166471 106.21887684 C36.87296197 103.68268208 34.32992711 101.14081715 31.7862854 98.59954834 C26.97023716 93.78971466 22.14911367 88.98500169 17.32614577 84.18210769 C11.83495542 78.71327706 6.34944739 73.23876193 0.86440921 67.763762 C-10.41741655 56.5028377 -21.70635667 45.24907311 -33 34 C-32.06715087 32.90039988 -31.13264824 31.80220242 -30.19747925 30.70457458 C-29.41715238 29.78700457 -29.41715238 29.78700457 -28.62106133 28.85089779 C-26.04418661 25.90866998 -23.2850861 23.1618157 -20.5078125 20.41015625 C-19.91700897 19.82076767 -19.32620544 19.23137909 -18.71749878 18.62413025 C-16.85569596 16.76786273 -14.99042255 14.91512915 -13.125 13.0625 C-11.85132989 11.79385328 -10.57789029 10.5249751 -9.3046875 9.25585938 C-6.20577957 6.16789446 -3.10375699 3.08309071 0 0 Z " fill="#E6E5E5" transform="translate(161,128)"/>
</svg>
